<?xml version="1.0" encoding="utf-8"?>
<!DOCTYPE svg PUBLIC "-//W3C//DTD SVG 1.1//EN" "http://www.w3.org/Graphics/SVG/1.1/DTD/svg11.dtd">
<svg version="1.1"
	 xmlns="http://www.w3.org/2000/svg" xmlns:xlink="http://www.w3.org/1999/xlink" xmlns:a="http://ns.adobe.com/AdobeSVGViewerExtensions/3.0/"
	 x="0px" y="0px" width="24px" height="24px" viewBox="4.125 6 24 24" enable-background="new 4.125 6 24 24" xml:space="preserve">
<path fill="#939598" d="M4.751,28.119c1.787-0.674,1.571-1.287,10.723-20.653c0.277-0.613,0.432-0.705,0.925-0.705
	c0.646,0,0.246,0.062,2.217,4.934c1.449,3.555,5.793,13.575,6.04,14.065c1.541,3.096,3.421,1.686,3.421,2.789
	c0,0.153-0.062,0.46-0.832,0.46c-0.709,0-1.911-0.185-2.773-0.185c-1.109,0-1.973,0.123-2.865,0.123
	c-1.294,0-1.479-0.062-1.479-0.43c0-0.674,1.541-0.275,1.541-1.44c0-0.979-1.417-4.657-2.064-5.821
	c-0.124-0.245-0.247-0.521-1.264-0.521c-0.647,0-1.726,0.062-3.729,0.062h-1.633c-1.911,0-2.034,0.153-2.373,0.889
	c-1.109,2.329-1.972,3.922-1.972,4.78c0,2.114,2.28,1.134,2.28,2.084c0,0.245-0.031,0.429-0.524,0.429
	c-0.493,0-1.479-0.03-2.557-0.03c-1.202,0-1.972,0.122-2.65,0.122c-0.555,0-0.894-0.061-0.894-0.367S4.474,28.212,4.751,28.119z
	 M13.594,19.172h0.956c1.356,0,2.927-0.031,2.927-0.031c0.801,0,1.202-0.153,1.202-0.49c0-0.367-2.835-7.17-3.42-7.17
	c-0.4,0-3.235,6.741-3.235,7.109C12.023,19.141,12.3,19.172,13.594,19.172z"/>
</svg>
