<?xml version="1.0" encoding="utf-8"?>
<!DOCTYPE svg PUBLIC "-//W3C//DTD SVG 1.1//EN" "http://www.w3.org/Graphics/SVG/1.1/DTD/svg11.dtd">
<svg version="1.1" id="Layer_1" xmlns="http://www.w3.org/2000/svg" xmlns:xlink="http://www.w3.org/1999/xlink" x="0px" y="0px"
	 width="30px" height="25px" viewBox="0 0 30 25" enable-background="new 0 0 30 25" xml:space="preserve">
<path fill="#929497" d="M23.58,0c-3.25,0-6.04,0.7-7.49,1.94V20c1.45-1.23,4.24-1.94,7.49-1.94c2.51,0,4.84,0.56,6.42,1.45V1.45
	C28.42,0.56,26.09,0,23.58,0z"/>
<path fill="#929497" d="M6.42,0C3.91,0,1.58,0.56,0,1.45v18.06c1.58-0.89,3.91-1.45,6.42-1.45c3.25,0,6.04,0.71,7.49,1.94V1.94
	C12.46,0.7,9.67,0,6.42,0z"/>
<path fill="#929497" d="M23.56,20c2.51,0,4.84,0.56,6.42,1.45v3C28.41,23.56,26.07,23,23.56,23c-3.25,0-6.04,0.71-7.49,1.94V25
	h-2.14v-0.06C12.48,23.71,9.69,23,6.44,23c-2.51,0-4.84,0.56-6.42,1.45v-3C1.6,20.56,3.93,20,6.44,20c3.31,0,6.14,0.73,7.57,2H16
	C17.43,20.73,20.25,20,23.56,20z"/>
</svg>
