<?xml version="1.0" encoding="utf-8"?>
<!DOCTYPE svg PUBLIC "-//W3C//DTD SVG 1.1//EN" "http://www.w3.org/Graphics/SVG/1.1/DTD/svg11.dtd">
<svg version="1.1" id="Layer_2" xmlns="http://www.w3.org/2000/svg" xmlns:xlink="http://www.w3.org/1999/xlink" x="0px" y="0px"
	 width="23px" height="23px" viewBox="0 0 23 23" enable-background="new 0 0 23 23" xml:space="preserve">
<g>
	<path d="M7.697,17.812c0.879-2.006,1.822-3.924,2.831-5.753c1.008-1.83,2.046-3.519,3.117-5.066
		c1.261-1.814,2.254-3.124,2.981-3.927c0.468-0.516,0.907-0.94,1.318-1.275c0.238-0.19,0.616-0.334,1.132-0.43
		c1.251-0.229,2.125-0.345,2.623-0.345c0.22,0,0.33,0.077,0.33,0.23c0,0.143-0.11,0.314-0.33,0.516
		c-1.911,1.7-3.915,4.132-6.012,7.294c-2.097,3.163-3.867,6.521-5.31,10.074c-0.544,1.328-0.924,2.143-1.139,2.443
		c-0.215,0.302-0.886,0.452-2.013,0.452c-0.736,0-1.197-0.072-1.383-0.215c-0.186-0.145-0.523-0.598-1.01-1.361
		c-0.841-1.271-1.744-2.418-2.708-3.439c-0.506-0.535-0.759-0.946-0.759-1.232c0-0.402,0.282-0.796,0.845-1.183
		c0.564-0.388,1.027-0.581,1.39-0.581c0.506,0,1.116,0.285,1.827,0.854C6.138,15.436,6.895,16.417,7.697,17.812z"/>
</g>
</svg>
