<?xml version="1.0" encoding="utf-8"?>
<!-- Generator: Adobe Illustrator 16.0.4, SVG Export Plug-In . SVG Version: 6.00 Build 0)  -->
<!DOCTYPE svg PUBLIC "-//W3C//DTD SVG 1.1//EN" "http://www.w3.org/Graphics/SVG/1.1/DTD/svg11.dtd">
<svg version="1.1" id="Layer_1" xmlns="http://www.w3.org/2000/svg" xmlns:xlink="http://www.w3.org/1999/xlink" x="0px" y="0px"  width="48px" height="25px" viewBox="0 0 48 25" enable-background="new 0 0 48 25" xml:space="preserve">
<path fill="#808080" d="M17.89,23.65H11.2v-0.8c0.59-0.04,1.08-0.12,1.47-0.23c0.39-0.12,0.58-0.25,0.58-0.42
  c0-0.07-0.01-0.15-0.02-0.25c-0.02-0.1-0.04-0.18-0.07-0.26l-1.33-3.6H6.19c-0.21,0.53-0.38,0.99-0.52,1.38
  c-0.13,0.39-0.25,0.76-0.36,1.09c-0.1,0.33-0.17,0.59-0.2,0.79c-0.04,0.2-0.06,0.37-0.06,0.5c0,0.3,0.24,0.54,0.71,0.7
  c0.48,0.17,1.01,0.26,1.61,0.3v0.8H1.32v-0.8c0.2-0.02,0.44-0.06,0.74-0.13c0.29-0.07,0.54-0.17,0.73-0.29
  c0.3-0.21,0.54-0.42,0.7-0.64c0.17-0.22,0.33-0.53,0.49-0.92c0.81-2.02,1.7-4.28,2.68-6.8c0.97-2.51,1.84-4.75,2.61-6.72h0.91
  l5.36,13.87c0.11,0.29,0.24,0.53,0.39,0.71c0.14,0.18,0.34,0.36,0.6,0.53c0.17,0.11,0.4,0.19,0.68,0.27
  c0.28,0.07,0.51,0.11,0.7,0.12V23.65z M11.42,17.08l-2.44-6.24l-2.4,6.24H11.42z"/>
<path fill="#808080" d="M46.4,23.65h-9.09v-1.09c0.8-0.05,1.47-0.15,2-0.31c0.53-0.15,0.79-0.34,0.79-0.57
  c0-0.09-0.01-0.21-0.03-0.34c-0.02-0.13-0.05-0.25-0.09-0.36l-1.81-4.9h-7.67c-0.29,0.72-0.52,1.35-0.7,1.88
  c-0.18,0.54-0.34,1.03-0.49,1.48c-0.13,0.44-0.22,0.8-0.28,1.08c-0.05,0.28-0.08,0.5-0.08,0.68c0,0.41,0.32,0.73,0.97,0.96
  c0.65,0.23,1.38,0.36,2.19,0.4v1.09h-8.23v-1.09c0.27-0.02,0.6-0.08,1-0.18c0.4-0.1,0.73-0.23,0.99-0.39
  c0.41-0.28,0.73-0.57,0.95-0.87c0.23-0.3,0.45-0.72,0.66-1.26c1.1-2.74,2.31-5.82,3.64-9.24s2.51-6.47,3.54-9.14h1.23l7.29,18.86
  c0.15,0.4,0.33,0.72,0.52,0.97s0.47,0.49,0.82,0.72c0.24,0.14,0.54,0.26,0.92,0.36c0.38,0.1,0.7,0.15,0.96,0.16V23.65z M37.6,14.71
  l-3.31-8.48l-3.26,8.48H37.6z"/>
</svg>
