<?xml version="1.0" encoding="utf-8"?>
<!DOCTYPE svg PUBLIC "-//W3C//DTD SVG 1.1//EN" "http://www.w3.org/Graphics/SVG/1.1/DTD/svg11.dtd">
<svg version="1.1" id="Layer_1" xmlns="http://www.w3.org/2000/svg" xmlns:xlink="http://www.w3.org/1999/xlink" x="0px" y="0px"
	 width="49.833px" height="30px" viewBox="-19.833 2.5 49.833 30" enable-background="new -19.833 2.5 49.833 30"
	 xml:space="preserve">
<path fill="#939598" d="M4.751,28.119c1.787-0.674,1.571-1.287,10.724-20.653c0.276-0.613,0.432-0.705,0.924-0.705
	c0.646,0,0.246,0.062,2.218,4.934c1.448,3.555,5.793,13.575,6.04,14.065c1.541,3.096,3.421,1.686,3.421,2.789
	c0,0.153-0.062,0.46-0.832,0.46c-0.709,0-1.911-0.185-2.772-0.185c-1.109,0-1.974,0.123-2.865,0.123
	c-1.295,0-1.479-0.062-1.479-0.43c0-0.675,1.541-0.275,1.541-1.44c0-0.979-1.417-4.657-2.063-5.821
	c-0.125-0.245-0.248-0.521-1.265-0.521c-0.647,0-1.726,0.062-3.729,0.062h-1.633c-1.911,0-2.034,0.153-2.373,0.889
	c-1.109,2.33-1.972,3.922-1.972,4.78c0,2.114,2.28,1.134,2.28,2.084c0,0.245-0.031,0.429-0.524,0.429
	c-0.493,0-1.479-0.029-2.557-0.029c-1.202,0-1.972,0.121-2.65,0.121c-0.555,0-0.894-0.061-0.894-0.366S4.474,28.212,4.751,28.119z
	 M13.594,19.172h0.956c1.356,0,2.927-0.031,2.927-0.031c0.801,0,1.203-0.152,1.203-0.49c0-0.366-2.836-7.169-3.421-7.169
	c-0.399,0-3.235,6.742-3.235,7.109C12.023,19.141,12.3,19.172,13.594,19.172z"/>
<path fill="#939598" d="M-17.449,28.38c1.3-0.49,1.144-0.937,7.801-15.021c0.201-0.446,0.313-0.513,0.672-0.513
	c0.471,0,0.179,0.043,1.613,3.588c1.053,2.586,4.213,9.873,4.393,10.229c1.121,2.25,2.488,1.227,2.488,2.027
	c0,0.111-0.045,0.334-0.604,0.334c-0.517,0-1.392-0.133-2.019-0.133c-0.808,0-1.435,0.088-2.084,0.088
	c-0.941,0-1.076-0.045-1.076-0.312c0-0.489,1.121-0.2,1.121-1.047c0-0.714-1.03-3.388-1.5-4.233c-0.09-0.18-0.181-0.379-0.92-0.379
	c-0.471,0-1.254,0.043-2.711,0.043h-1.188c-1.39,0-1.479,0.112-1.726,0.646c-0.807,1.693-1.435,2.854-1.435,3.477
	c0,1.539,1.659,0.825,1.659,1.517c0,0.178-0.023,0.312-0.381,0.312c-0.359,0-1.076-0.021-1.86-0.021
	c-0.874,0-1.434,0.089-1.928,0.089c-0.403,0-0.649-0.045-0.649-0.269C-17.784,28.579-17.65,28.446-17.449,28.38z M-11.016,21.873
	h0.693c0.987,0,2.129-0.022,2.129-0.022c0.584,0,0.875-0.111,0.875-0.356c0-0.267-2.062-5.214-2.488-5.214
	c-0.291,0-2.354,4.902-2.354,5.17C-12.159,21.849-11.958,21.873-11.016,21.873z"/>
</svg>