<?xml version="1.0" encoding="utf-8"?>
<!DOCTYPE svg PUBLIC "-//W3C//DTD SVG 1.1//EN" "http://www.w3.org/Graphics/SVG/1.1/DTD/svg11.dtd">
<svg version="1.1"
	 xmlns="http://www.w3.org/2000/svg" xmlns:xlink="http://www.w3.org/1999/xlink" xmlns:a="http://ns.adobe.com/AdobeSVGViewerExtensions/3.0/"
	 x="0px" y="0px" width="19px" height="18px" viewBox="4.125 12 19 18" enable-background="new 4.125 12 19 18"
	 xml:space="preserve">
<path fill="#939598" d="M5.385,28.345c1.3-0.489,1.144-0.936,7.8-15.02c0.202-0.446,0.314-0.513,0.672-0.513
	c0.471,0,0.179,0.044,1.613,3.588c1.053,2.586,4.214,9.873,4.393,10.229c1.121,2.25,2.488,1.226,2.488,2.027
	c0,0.111-0.045,0.334-0.604,0.334c-0.517,0-1.391-0.133-2.018-0.133c-0.808,0-1.435,0.089-2.085,0.089
	c-0.941,0-1.075-0.045-1.075-0.312c0-0.49,1.121-0.2,1.121-1.047c0-0.714-1.031-3.388-1.501-4.234
	c-0.09-0.179-0.18-0.379-0.919-0.379c-0.471,0-1.255,0.044-2.712,0.044H11.37c-1.39,0-1.479,0.112-1.726,0.646
	c-0.807,1.694-1.435,2.853-1.435,3.477c0,1.538,1.659,0.825,1.659,1.516c0,0.178-0.023,0.312-0.381,0.312
	c-0.359,0-1.076-0.022-1.86-0.022c-0.874,0-1.434,0.089-1.928,0.089c-0.403,0-0.649-0.045-0.649-0.268S5.184,28.412,5.385,28.345z
	 M11.818,21.839h0.694c0.987,0,2.129-0.023,2.129-0.023c0.583,0,0.874-0.111,0.874-0.356c0-0.267-2.062-5.214-2.488-5.214
	c-0.291,0-2.353,4.903-2.353,5.17C10.675,21.815,10.876,21.839,11.818,21.839z"/>
</svg>
