<?xml version="1.0" standalone="no"?>
<!DOCTYPE svg PUBLIC "-//W3C//DTD SVG 1.1//EN" "http://www.w3.org/Graphics/SVG/1.1/DTD/svg11.dtd" >
<svg xmlns="http://www.w3.org/2000/svg">
<metadata></metadata>
<defs>
<font id="HelveticaLTStdItalic" horiz-adv-x="1138" >
<font-face units-per-em="2048" ascent="1470" descent="-578" />
<missing-glyph horiz-adv-x="569" />
<glyph horiz-adv-x="0" />
<glyph horiz-adv-x="2048" />
<glyph unicode=" "  horiz-adv-x="569" />
<glyph unicode="&#x09;" horiz-adv-x="569" />
<glyph unicode="&#xa0;" horiz-adv-x="569" />
<glyph unicode="!" horiz-adv-x="569" d="M57 0l47 221h205l-47 -221h-205zM170 373l176 1097h221l-286 -1097h-111z" />
<glyph unicode="&#x22;" horiz-adv-x="909" d="M322 954v516h172v-516h-172zM639 954v516h172v-516h-172z" />
<glyph unicode="#" d="M49 416l31 147h201l57 279h-199l33 147h199l88 416h159l-88 -416h230l88 416h160l-88 -416h198l-33 -147h-198l-58 -279h199l-33 -147h-198l-88 -416h-160l88 416h-229l-89 -416h-159l88 416h-199zM440 563h230l57 279h-229z" />
<glyph unicode="$" d="M39 358v56h172q0 -115 40.5 -183t143.5 -102l115 528q-309 119 -309 347q0 130 61.5 231t157.5 152t207 51h57l29 143h96l-29 -147q141 -21 223 -119t82 -238v-30h-172v32q0 69 -44.5 128.5t-125.5 72.5l-102 -483h1l1 -1h1l1 -1h1l1 -1h1l1 -1h1l1 -1h1 q145 -67 202 -110q117 -89 126 -236q1 -14 1 -28q0 -197 -130.5 -324t-336.5 -127q-9 0 -26.5 1t-26.5 1l-41 -184h-98l43 195q-149 25 -237.5 127.5t-88.5 250.5zM385 1024q0 -40 12.5 -70.5t40.5 -53t48.5 -34t60.5 -30.5l102 454q-118 -3 -191 -76.5t-73 -189.5zM492 119 q20 -4 34 -4q51 0 97.5 16.5t86 49t63.5 89t24 129.5q0 87 -52 138t-143 88z" />
<glyph unicode="%" horiz-adv-x="1820" d="M193 1008q0 56 14 115t43 115.5t68.5 101t96.5 71.5t122 27q125 0 192.5 -71.5t67.5 -180.5q0 -61 -14 -123t-43 -120t-69 -103t-97 -72t-123 -27q-110 0 -184 71t-74 196zM340 1014q0 -66 31.5 -101.5t85.5 -35.5q57 0 102.5 47.5t67.5 112t22 126.5q0 68 -31.5 104 t-85.5 36q-57 0 -102.5 -48t-67.5 -113t-22 -128zM449 -37l800 1464h121l-803 -1464h-118zM1026 233q0 56 14 115.5t43 116t68.5 101t96.5 71.5t122 27q125 0 192.5 -71.5t67.5 -180.5q0 -61 -14 -123t-43 -120t-69 -103t-97 -72t-123 -27q-110 0 -184 70.5t-74 195.5z M1174 240q0 -66 31 -102t85 -36q57 0 103 47.5t68 112.5t22 127q0 67 -31.5 103t-85.5 36q-57 0 -102.5 -47.5t-67.5 -112.5t-22 -128z" />
<glyph unicode="&#x26;" horiz-adv-x="1366" d="M70 371q0 267 290 428l113 57q-3 6 -18.5 35t-20 37.5t-17.5 34.5t-17.5 38.5t-13 35.5t-12 39t-6.5 37t-3 40q0 142 95.5 229.5t250.5 87.5q140 0 225.5 -78.5t85.5 -213.5q0 -69 -24.5 -127.5t-72.5 -105t-94.5 -78.5t-113.5 -68l241 -408q48 70 67.5 120t43.5 148h172 q-36 -217 -201 -407l150 -252h-209l-72 123q-69 -72 -184.5 -114t-222.5 -42q-194 0 -313 107.5t-119 296.5zM254 381q0 -117 74 -191.5t188 -74.5q79 0 168.5 36t149.5 93l-279 475q-57 -25 -105.5 -55.5t-95 -72.5t-73.5 -96t-27 -114zM537 1178q0 -49 47 -146l51 -94 q39 17 74 39t68 52t53 69.5t20 81.5q0 65 -44 104t-108 39t-112.5 -41.5t-48.5 -103.5z" />
<glyph unicode="'" horiz-adv-x="569" d="M193 954v516h184v-516h-184z" />
<glyph unicode="(" horiz-adv-x="681" d="M80 342q0 598 547 1149h135q-125 -148 -214.5 -285t-158.5 -289.5t-103 -319.5t-34 -351q0 -185 25.5 -336.5t84.5 -331.5h-104q-91 214 -134.5 384t-43.5 380z" />
<glyph unicode=")" horiz-adv-x="681" d="M-121 -422q125 148 214.5 285t158.5 289.5t103 319.5t34 351q0 185 -25.5 336.5t-84.5 331.5h104q91 -214 134.5 -384t43.5 -380q0 -598 -547 -1149h-135z" />
<glyph unicode="*" horiz-adv-x="796" d="M180 1231l41 110l232 -106l34 235l117 -12l-33 -223l215 72l33 -107l-244 -78l132 -196l-101 -58l-133 203l-178 -184l-94 71l192 179z" />
<glyph unicode="+" horiz-adv-x="1228" d="M96 432v172h432v432h172v-432h433v-172h-433v-432h-172v432h-432z" />
<glyph unicode="," horiz-adv-x="569" d="M-14 -315l18 100q29 8 52 25.5t37.5 36t27 48t18.5 50.5t15 55h-111l49 221h221l-45 -217q-32 -131 -96.5 -211.5t-185.5 -107.5z" />
<glyph unicode="-" horiz-adv-x="681" d="M55 479l39 185h504l-39 -185h-504z" />
<glyph unicode="." horiz-adv-x="569" d="M43 0l49 221h221l-49 -221h-221z" />
<glyph unicode="/" horiz-adv-x="569" d="M-41 -37l522 1544h135l-522 -1544h-135z" />
<glyph unicode="0" d="M57 473q0 77 10 162.5t32.5 180t56 182.5t84 169t111.5 140.5t144 95t177 35.5q111 0 191.5 -37t127 -105.5t68.5 -156.5t22 -199q0 -89 -15 -191t-44.5 -213t-79.5 -211.5t-114 -181t-154 -128.5t-193 -48t-180.5 29t-123 75t-73.5 114t-37.5 136t-9.5 152zM242 469 q0 -105 18.5 -177.5t53.5 -109.5t74.5 -52t92.5 -15q93 0 174.5 85t132.5 212.5t80 268.5t29 261q0 56 -4 99.5t-18 92.5t-37.5 81t-66 53.5t-101.5 21.5q-84 0 -157 -61.5t-121.5 -155t-83.5 -206.5t-50.5 -215.5t-15.5 -182.5z" />
<glyph unicode="1" d="M229 1063l27 135q85 2 149.5 12t129 35t115.5 73t89 120h148l-316 -1438h-184l234 1098q-73 -30 -392 -35z" />
<glyph unicode="2" d="M10 0q10 102 45.5 189t87 150t115.5 117t132.5 97t136 83.5t128 82.5t107 87.5t73.5 105.5t27 130q0 112 -66 174t-178 62q-127 0 -200 -88.5t-92 -224.5h-185q22 225 152 349t336 124q194 0 306 -108t112 -279q0 -106 -38 -193.5t-101 -149.5t-140 -115t-160.5 -100 t-157.5 -94t-135.5 -108t-89.5 -131h727l-37 -160h-905z" />
<glyph unicode="3" d="M41 344q0 33 8 111h172q-8 -66 -8 -101q0 -55 18.5 -98.5t46.5 -69t65 -42.5t69.5 -23t64.5 -6q66 0 122 22t92.5 57t62 79t36.5 88t11 85q0 108 -69.5 163t-182.5 55q-59 0 -84 -7l33 160q54 -6 86 -6q133 0 207.5 68t74.5 188q0 107 -66 159t-163 52q-62 0 -113 -20 t-83.5 -50.5t-55.5 -72t-34 -79.5t-15 -77h-184q24 223 156 341t343 118q171 0 285.5 -92.5t114.5 -249.5q0 -129 -57.5 -224t-174.5 -135q166 -84 166 -284q0 -136 -63 -246t-180.5 -175t-268.5 -65q-194 0 -313 95t-119 282z" />
<glyph unicode="4" d="M10 375l33 162l821 901h160l-197 -916h207l-30 -147h-209l-80 -375h-172l80 375h-613zM219 522h436l133 623h-4z" />
<glyph unicode="5" d="M55 348v55h172v-49q0 -98 68 -168.5t190 -70.5q106 0 187.5 60.5t121.5 151t40 191.5q0 67 -16.5 118.5t-42 81.5t-60.5 49t-66.5 25.5t-64.5 6.5q-91 0 -170 -40t-125 -108l-168 8l219 746h731l-33 -160h-577l-119 -381h4q35 42 113.5 68t152.5 26q187 0 296.5 -109.5 t109.5 -309.5q0 -115 -39.5 -219t-109 -182t-172 -124.5t-220.5 -46.5q-91 0 -165 24.5t-121 63.5t-78.5 90t-44.5 101.5t-13 101.5z" />
<glyph unicode="6" d="M72 446q0 111 16.5 224t48.5 225t85.5 209t122 172.5t163 118.5t203.5 43q43 0 88 -8t97.5 -32.5t92.5 -63t67 -105t27 -152.5v-30h-184q7 231 -201 231q-69 0 -129 -30.5t-101.5 -77t-76 -111.5t-55 -123.5t-37.5 -124.5h4q117 135 309 135q172 0 285 -110t113 -297 q0 -110 -34 -211.5t-98 -182.5t-166.5 -129.5t-228.5 -48.5q-88 0 -159.5 27.5t-117.5 73.5t-77 109t-44 129.5t-13 139.5zM256 408q0 -139 70.5 -216t187.5 -77q133 0 222 115.5t89 287.5q0 139 -65 210t-168 71q-104 0 -184 -60.5t-117.5 -148.5t-34.5 -182z" />
<glyph unicode="7" d="M133 1233l39 172h958l-34 -160q-124 -118 -239.5 -262.5t-215.5 -305.5t-170.5 -337.5t-95.5 -339.5h-207q33 174 101.5 343.5t166.5 325t204 289t239 275.5h-746z" />
<glyph unicode="8" d="M51 332q0 155 79 264.5t214 171.5q-75 56 -111 122t-36 152q0 164 127.5 280t326.5 116q92 0 165 -23.5t118 -61t75 -86.5t42 -96t12 -94q0 -113 -66.5 -202t-167.5 -127q76 -42 119 -118.5t43 -174.5q0 -68 -18 -135t-58.5 -131.5t-99.5 -113t-148 -78.5t-196 -30 q-98 0 -175 26t-122 65.5t-74 90.5t-39 95.5t-10 87.5zM236 348q0 -114 67.5 -173.5t183.5 -59.5q97 0 171.5 46.5t111.5 120t37 158.5q0 116 -72.5 178t-195.5 62q-135 0 -219 -97t-84 -235zM381 1028q0 -80 59.5 -140.5t171.5 -60.5q114 0 190.5 67.5t76.5 176.5 q0 102 -65.5 160.5t-164.5 58.5q-113 0 -190.5 -69t-77.5 -193z" />
<glyph unicode="9" d="M49 322h172q1 -104 57.5 -155.5t147.5 -51.5q69 0 130 31.5t103 80t76.5 114t55 124.5t34.5 121h-4q-108 -148 -319 -148q-45 0 -94 12t-103.5 43.5t-96.5 77.5t-69.5 122.5t-27.5 170.5q0 159 64 290.5t177 207.5t250 76q96 0 171.5 -26.5t126 -72.5t83.5 -111.5 t47 -140t14 -161.5q0 -108 -15.5 -216.5t-46 -217.5t-81.5 -202.5t-117.5 -166.5t-159 -114.5t-200.5 -41.5q-52 0 -98.5 7t-99 30.5t-89.5 60.5t-62 103t-26 154zM295 850q0 -37 8.5 -73.5t28.5 -71t48 -61t71 -42.5t94 -16q68 0 123.5 27t90.5 69.5t58.5 97t33 105.5 t9.5 100q0 145 -70.5 219t-185.5 74q-36 0 -74.5 -12t-81 -43t-76 -77.5t-55.5 -123.5t-22 -172z" />
<glyph unicode=":" horiz-adv-x="569" d="M43 0l49 221h221l-49 -221h-221zM217 831l49 222h221l-49 -222h-221z" />
<glyph unicode=";" horiz-adv-x="569" d="M-14 -315l18 100q29 8 52 25.5t37.5 36t27 48t18.5 50.5t15 55h-111l49 221h221l-45 -217q-32 -131 -96.5 -211.5t-185.5 -107.5zM217 831l49 222h221l-49 -222h-221z" />
<glyph unicode="&#x3c;" horiz-adv-x="1228" d="M96 438v160l1037 455v-185l-805 -350l805 -350v-184z" />
<glyph unicode="=" horiz-adv-x="1228" d="M96 217v172h1037v-172h-1037zM96 647v172h1037v-172h-1037z" />
<glyph unicode="&#x3e;" horiz-adv-x="1228" d="M96 -16v184l805 350l-805 350v185l1037 -455v-160z" />
<glyph unicode="?" d="M162 1022q15 223 147 346t355 123q77 0 149 -25.5t128.5 -73t91 -121t34.5 -161.5q0 -140 -62.5 -229.5t-199.5 -180.5q-15 -9 -41.5 -26t-40 -25.5t-35.5 -24t-33.5 -25.5t-29 -26t-26.5 -29.5t-20.5 -32.5t-17.5 -38.5t-11 -44t-7 -51.5h-172q4 83 28 148t72.5 118 t96 89t126.5 85q87 55 138 123.5t51 171.5q0 95 -65 157t-183 62q-134 0 -205 -85t-84 -224h-184zM291 0l47 221h205l-47 -221h-205z" />
<glyph unicode="@" horiz-adv-x="1638" d="M94 737q0 213 101.5 389.5t280.5 278.5t396 102q140 0 269.5 -46.5t227.5 -128t157 -201t59 -257.5q0 -98 -25.5 -185t-68 -150t-94 -113.5t-106 -80.5t-102 -46t-83.5 -16q-141 0 -152 114h-4q-40 -54 -92.5 -84t-138.5 -30q-140 0 -228 97.5t-88 240.5 q0 135 55.5 256.5t162.5 200.5t241 79q162 0 240 -147l35 118h159l-143 -546q-14 -54 -14 -99t47 -45q90 0 171 122t81 282q0 121 -44.5 220.5t-122.5 163.5t-181 99t-222 35q-176 0 -314 -83t-213 -226t-75 -320q0 -180 80.5 -322t222 -220t318.5 -78q138 0 261.5 51 t209.5 145h160q-104 -163 -272 -253.5t-363 -90.5q-227 0 -406.5 97t-281 274t-101.5 403zM600 643q0 -87 46 -140.5t122 -53.5q75 0 139.5 56t98.5 136t34 158q0 79 -47 132.5t-116 53.5q-77 0 -142.5 -54t-100 -132t-34.5 -156z" />
<glyph unicode="A" horiz-adv-x="1366" d="M-70 0l801 1470h250l242 -1470h-197l-63 424h-596l-215 -424h-222zM455 584h481l-109 702h-2z" />
<glyph unicode="B" horiz-adv-x="1478" d="M76 0l311 1470h543q133 0 223 -23t140 -70.5t70.5 -108.5t20.5 -148q0 -121 -66 -215t-188 -139v-4q82 -18 137.5 -105.5t55.5 -187.5q0 -212 -164.5 -340.5t-445.5 -128.5h-637zM307 172h406q211 0 312 80.5t101 216.5q0 48 -15 86t-40 61.5t-60.5 39t-74 22t-82.5 6.5 h-438zM451 844h387q87 0 153 19.5t102.5 47t59 65.5t29 68.5t6.5 61.5q0 110 -65.5 151t-245.5 41h-330z" />
<glyph unicode="C" horiz-adv-x="1478" d="M123 569q0 143 30.5 278.5t93.5 255t151.5 209.5t213 142.5t269.5 52.5q252 0 393.5 -141.5t159.5 -370.5h-197q-12 167 -109.5 253.5t-257.5 86.5q-111 0 -204.5 -47.5t-156 -124.5t-106.5 -177t-64 -203t-20 -205q0 -94 21.5 -172.5t65 -140t115.5 -96t167 -34.5 q177 0 295.5 109t173.5 286h203q-33 -123 -92.5 -225.5t-143 -179t-195 -119.5t-239.5 -43q-266 0 -416.5 163.5t-150.5 442.5z" />
<glyph unicode="D" horiz-adv-x="1478" d="M66 0l321 1470h442q59 0 106.5 -4t104 -17t102 -34.5t91.5 -60t82 -90.5q104 -148 104 -402q0 -67 -11 -140.5t-38 -158.5t-68 -163.5t-106.5 -152t-147 -128t-195.5 -87t-247 -32.5h-540zM297 168h293q186 0 302.5 59.5t215.5 221.5q49 84 80 199.5t31 221.5 q0 77 -10 137t-38 116.5t-73.5 93.5t-120 59t-174.5 22h-260z" />
<glyph unicode="E" horiz-adv-x="1251" d="M57 0l312 1470h942l-37 -172h-746l-96 -454h723l-37 -172h-723l-104 -500h796l-36 -172h-994z" />
<glyph unicode="F" horiz-adv-x="1251" d="M86 0l322 1470h892l-34 -176h-703l-98 -460h684l-35 -170h-688l-143 -664h-197z" />
<glyph unicode="G" horiz-adv-x="1593" d="M133 590q0 140 34 273.5t102 249t162 202.5t222 136.5t275 49.5q153 0 280.5 -61t180.5 -156q42 -59 64 -143.5t22 -143.5h-185q-9 149 -110.5 242.5t-284.5 93.5q-104 0 -196 -45t-157.5 -120.5t-113 -172.5t-71 -202.5t-23.5 -208.5q0 -222 104 -339.5t316 -117.5 q85 0 161.5 29t132.5 76.5t99.5 110t69.5 127.5t36 130h-465l41 164h641l-159 -764h-146l21 180q-85 -105 -201 -161t-287 -56q-81 0 -157.5 18.5t-152 64.5t-131 115t-90 179.5t-34.5 249.5z" />
<glyph unicode="H" horiz-adv-x="1478" d="M57 0l312 1470h196l-129 -606h713l129 606h197l-312 -1470h-196l147 692h-713l-147 -692h-197z" />
<glyph unicode="I" horiz-adv-x="569" d="M57 0l312 1470h196l-311 -1470h-197z" />
<glyph unicode="J" horiz-adv-x="1024" d="M-10 266q0 84 39 244h190q-45 -181 -45 -256q0 -56 40.5 -93.5t139.5 -37.5q134 0 191 113q26 51 55 184l223 1050h197l-227 -1091q-18 -86 -39.5 -146t-56 -114.5t-82.5 -86.5t-118 -50.5t-163 -18.5q-164 0 -254 76.5t-90 226.5z" />
<glyph unicode="K" horiz-adv-x="1366" d="M86 0l317 1470h193l-160 -727l764 727h260l-645 -602l440 -868h-211l-370 733l-297 -268l-101 -465h-190z" />
<glyph unicode="L" d="M61 0l318 1470h203l-283 -1294h772l-37 -176h-973z" />
<glyph unicode="M" horiz-adv-x="1820" d="M76 0l311 1470h279l155 -1249h4l670 1249h303l-311 -1470h-197l295 1286h-4l-684 -1286h-221l-152 1262h-4l-248 -1262h-196z" />
<glyph unicode="N" horiz-adv-x="1478" d="M61 0l324 1470h213l375 -1001l69 -201q18 98 38 204.5t38.5 198.5t41.5 202.5t41 196.5t42 202t41 198h195l-316 -1470h-205l-309 801l-143 401q-36 -197 -78 -401l-168 -801h-199z" />
<glyph unicode="O" horiz-adv-x="1593" d="M123 600q0 142 33.5 275t101.5 247.5t162.5 200.5t225 135t280.5 49q277 0 431 -164.5t154 -437.5q0 -151 -35 -292t-103.5 -258.5t-162.5 -205.5t-220 -137t-269 -49q-275 0 -436.5 163.5t-161.5 473.5zM319 592q0 -122 31.5 -212t89.5 -142.5t131.5 -77.5t165.5 -25 q97 0 182.5 35.5t147 95.5t110.5 136t78.5 160.5t44.5 166t15 154.5q0 212 -101 332t-319 120q-107 0 -200 -40t-161 -110t-117 -163.5t-73.5 -203t-24.5 -226.5z" />
<glyph unicode="P" horiz-adv-x="1366" d="M76 0l311 1470h506q216 0 328 -96.5t112 -275.5q0 -75 -17 -145t-53.5 -133t-90 -109.5t-131 -73.5t-171.5 -27h-469l-129 -610h-196zM438 782h404q69 0 123 21t85.5 52.5t52 72t27.5 75t7 66.5q0 113 -61 171t-199 58h-330z" />
<glyph unicode="Q" horiz-adv-x="1593" d="M123 600q0 142 33.5 275t101.5 247.5t162.5 200.5t225 135t280.5 49q277 0 431 -164.5t154 -437.5q0 -262 -102 -481.5t-285 -339.5l160 -176l-121 -101l-184 201q-121 -45 -258 -45q-275 0 -436.5 163.5t-161.5 473.5zM319 592q0 -122 31.5 -212t89.5 -142.5 t131.5 -77.5t165.5 -25q57 0 113 15l-117 126l125 103l146 -162q102 69 175 190t104.5 242.5t31.5 233.5q0 212 -101 332t-319 120q-107 0 -200 -40t-161 -110t-117 -163.5t-73.5 -203t-24.5 -226.5z" />
<glyph unicode="R" horiz-adv-x="1478" d="M76 0l309 1470h580q94 0 171.5 -19t142 -60.5t100.5 -116t36 -176.5q0 -146 -79 -255t-195 -151q72 -37 92 -89t20 -148q0 -27 -7 -157t-7 -132q0 -66 8.5 -95.5t36.5 -35.5v-35h-231q-15 51 -15 90q0 26 9.5 163t9.5 159q0 45 -7 78.5t-17.5 57t-31 39.5t-39.5 24.5 t-52 13t-59 5.5t-69 1h-379l-135 -631h-192zM436 797h441q72 0 131.5 15.5t108 47.5t75.5 88t27 131q0 55 -16 95.5t-41.5 64t-66 37t-80 18t-91.5 4.5h-379z" />
<glyph unicode="S" horiz-adv-x="1366" d="M94 412q0 30 6 77h197q-1 -7 -2.5 -19t-2.5 -21.5t-1 -18.5q0 -72 31 -129.5t83 -93t116 -54t134 -18.5q94 0 173 27t131.5 87.5t52.5 145.5q0 52 -25 93.5t-68 71t-98.5 54.5t-116.5 48.5t-122 48.5t-116.5 58.5t-98.5 74.5t-68 100.5t-25 132.5q0 58 15 115t53.5 115 t96 101.5t150 71t208.5 27.5q249 0 386 -117.5t138 -349.5h-197q-1 47 -9.5 86t-32 79t-61 67.5t-100.5 45t-147 17.5q-52 0 -102.5 -13t-97 -39.5t-75 -75t-28.5 -111.5q0 -125 164 -193l254 -104q71 -29 123 -59.5t99 -74t72 -102.5t25 -131q0 -97 -31 -176t-83.5 -133 t-125 -90.5t-153 -53t-168.5 -16.5q-246 0 -399.5 120.5t-153.5 328.5z" />
<glyph unicode="T" d="M164 1298l37 172h1056l-36 -172h-402l-287 -1298h-196l287 1298h-459z" />
<glyph unicode="U" horiz-adv-x="1478" d="M156 375q0 28 5.5 66t11 66.5t18 83.5t18.5 83l172 796h199l-193 -872q-2 -9 -7.5 -33.5t-7 -31.5t-5.5 -26.5t-5.5 -25.5t-4 -21t-3.5 -21.5t-2.5 -19t-2 -21t-1 -19t-0.5 -21.5q0 -53 22.5 -94.5t57.5 -66t81.5 -40t88 -21t84.5 -5.5q77 0 137.5 21.5t100 56.5t70.5 90 t49 110t34 130l205 931h199l-205 -940q-19 -86 -42 -155t-57 -135.5t-79 -115t-104.5 -86t-138.5 -56.5t-175 -19q-78 0 -150.5 13.5t-140.5 44.5t-118 77.5t-80.5 117.5t-30.5 159z" />
<glyph unicode="V" horiz-adv-x="1251" d="M176 1470h205l149 -987l33 -245q86 184 186 391t219.5 452.5t188.5 388.5h211l-739 -1470h-207z" />
<glyph unicode="W" horiz-adv-x="1820" d="M195 1470h194l51 -940l6 -165v-109l93 246l413 968h211l84 -1079l4 -135q66 184 147 388t179.5 445t153.5 381h200l-612 -1470h-207l-86 983l-12 236q-15 -48 -48.5 -132.5t-41.5 -107.5l-418 -979h-207z" />
<glyph unicode="X" horiz-adv-x="1251" d="M0 0l573 756l-331 714h221l246 -555l407 555h238l-553 -729l344 -741h-221l-258 588l-433 -588h-233z" />
<glyph unicode="Y" horiz-adv-x="1251" d="M176 1470h217l264 -714l482 714h227l-633 -909l-125 -561h-196l125 569z" />
<glyph unicode="Z" horiz-adv-x="1251" d="M14 0l15 164l1005 1128h-794l41 178h1046l-35 -159l-1003 -1133h835l-39 -178h-1071z" />
<glyph unicode="[" horiz-adv-x="681" d="M-8 -401l395 1871h352l-28 -135h-183l-342 -1601h191l-27 -135h-358z" />
<glyph unicode="\" horiz-adv-x="569" d="M-88 1507h135l522 -1544h-135z" />
<glyph unicode="]" horiz-adv-x="681" d="M-102 -401l28 135h183l342 1601h-191l27 135h358l-395 -1871h-352z" />
<glyph unicode="^" horiz-adv-x="1228" d="M82 578l405 827h172l406 -827h-184l-308 643l-307 -643h-184z" />
<glyph unicode="_" horiz-adv-x="1024" d="M0 -154h1024v-102h-1024v102z" />
<glyph unicode="`" horiz-adv-x="454" d="M100 1507h205l137 -295h-141z" />
<glyph unicode="a" d="M37 279q0 87 29 154.5t80.5 109t116.5 64.5t143 28l249 16q99 7 135.5 45.5t36.5 110.5q0 81 -57 115t-174 34q-114 0 -181 -48.5t-79 -145.5h-178q25 173 151 257.5t309 84.5q57 0 107 -6t104 -23t92 -44.5t62.5 -74.5t24.5 -108q0 -58 -35 -207l-78 -358 q-16 -75 -16 -97q0 -29 19.5 -47t55.5 -18q15 0 43 4l-26 -131q-66 -8 -101 -8q-143 0 -163 135h-5q-6 -17 -29.5 -41t-62.5 -50.5t-102 -44.5t-135 -18q-71 0 -129 19t-96 50.5t-63.5 73t-36.5 83.5t-11 86zM221 287q0 -85 53 -128.5t136 -43.5q161 0 247 110.5t117 313.5 q-11 -5 -26 -9.5t-36 -8t-38.5 -6t-47 -5.5t-48.5 -4.5t-56 -4.5t-57 -5q-114 -11 -179 -66t-65 -143z" />
<glyph unicode="b" horiz-adv-x="1251" d="M27 0l321 1470h178l-114 -522q53 65 138 107.5t181 42.5q103 0 181 -36t120 -86t68 -115.5t33.5 -112t7.5 -86.5q0 -60 -16.5 -147t-59.5 -193.5t-102 -169.5q-25 -28 -42.5 -45.5t-56 -47t-76.5 -47t-96 -31.5t-123 -14q-101 0 -175 36.5t-128 119.5q-7 9 -14.5 27.5 t-11.5 25.5l-35 -176h-178zM307 426q0 -82 17 -132.5t55 -96.5q72 -78 190 -78q81 0 148 40t109 100t71 134t41 139.5t12 118.5q0 65 -15 116t-39.5 83.5t-57.5 54t-67.5 30.5t-72.5 9q-80 0 -147.5 -36t-111 -91.5t-74.5 -126t-44.5 -137.5t-13.5 -127z" />
<glyph unicode="c" d="M37 412q0 135 39.5 258.5t112.5 220.5t188.5 155t255.5 58q180 0 289.5 -99.5t119.5 -293.5h-184q0 103 -66.5 168t-177.5 65q-64 0 -121 -24.5t-99 -66t-76 -95t-54.5 -114t-31.5 -120.5t-11 -116q0 -119 64 -200t186 -81q120 0 203 77.5t117 190.5h184 q-23 -88 -68 -164.5t-109 -136t-152.5 -93.5t-188.5 -34q-65 0 -124 14.5t-114 47.5t-94.5 83.5t-63.5 127t-24 172.5z" />
<glyph unicode="d" horiz-adv-x="1251" d="M70 401q0 183 71 342t201 256t289 97q115 0 191.5 -51.5t101.5 -110.5q4 -7 12 -24.5t12 -24.5l125 585h174l-311 -1470h-164l37 152q-1 -5 -14 -22.5t-42 -46t-67 -54t-97 -44t-124 -18.5q-186 0 -295 119q-35 39 -57.5 82t-30.5 89.5t-10 73.5t-2 70zM254 401 q0 -83 24 -146t82.5 -103.5t145.5 -40.5q83 0 156 49t122 126.5t77 172.5t28 188q0 70 -16.5 124t-41.5 85t-59.5 51t-66 26.5t-64.5 6.5q-77 0 -143.5 -36.5t-110 -94t-74.5 -130t-45 -143.5t-14 -135z" />
<glyph unicode="e" d="M51 424q0 106 24 206t71.5 185.5t113.5 150t156 101.5t192 37q76 0 138.5 -18t104.5 -46.5t74 -68.5t49.5 -79.5t28.5 -85t14 -78.5t3 -66q0 -89 -8 -179h-781q-8 -31 -8 -71q0 -136 63 -210.5t193 -74.5q111 0 184.5 56.5t122.5 160.5h179q-128 -377 -500 -377 q-193 0 -303.5 124t-110.5 333zM260 618h588v50q0 144 -69.5 210t-176.5 66q-133 0 -220 -91.5t-122 -234.5z" />
<glyph unicode="f" horiz-adv-x="569" d="M29 0l194 920h-151l28 147h152l59 246q19 89 90.5 131.5t167.5 42.5q35 0 109 -12l-33 -160q-9 0 -33 1t-37 1q-31 0 -52 -7.5t-32 -23.5t-16 -29t-10 -34l-39 -156h186l-34 -147h-181l-196 -920h-172z" />
<glyph unicode="g" horiz-adv-x="1251" d="M16 -100h181q0 -85 63.5 -135t163.5 -50q72 0 124 16t89 46t65 84.5t47 119t39 162.5q-66 -83 -144.5 -116t-172.5 -33q-178 0 -299 141q-96 124 -96 318q0 125 41.5 243.5t113 208.5t175 144.5t219.5 54.5q203 0 293 -139q6 -10 11.5 -22t12 -26.5t10.5 -23.5l39 178 h174l-211 -967q-38 -183 -73.5 -270.5t-116.5 -161.5q-136 -106 -328 -106q-62 0 -119 9.5t-113 33.5t-96.5 61t-66 96t-25.5 134zM266 451q0 -65 13 -118.5t41 -97.5t77.5 -69t116.5 -25q71 0 132.5 32t104.5 85t74.5 121.5t46.5 142.5t15 146q0 135 -71.5 205.5 t-182.5 70.5q-104 0 -189.5 -69t-131.5 -181.5t-46 -242.5z" />
<glyph unicode="h" d="M0 0l317 1470h181l-131 -569q90 96 179.5 144.5t203.5 48.5q47 0 92.5 -12.5t87.5 -39t68 -75t26 -111.5q0 -65 -27 -197l-139 -659h-184l141 655q23 108 23 138q0 69 -39 104t-125 35q-126 0 -232.5 -104.5t-136.5 -241.5l-127 -586h-178z" />
<glyph unicode="i" horiz-adv-x="454" d="M-2 0l227 1071h185l-228 -1071h-184zM266 1262l45 208h185l-45 -208h-185z" />
<glyph unicode="j" horiz-adv-x="454" d="M-201 -424l29 154q14 -4 39 -4q43 0 62 22.5t36 99.5l260 1223h185l-267 -1249q-31 -141 -85.5 -198.5t-178.5 -57.5q-35 0 -80 10zM266 1262l45 208h185l-45 -208h-185z" />
<glyph unicode="k" horiz-adv-x="1024" d="M-2 0l313 1470h174l-190 -882l524 479h256l-457 -389l252 -678h-190l-203 555l-231 -195l-76 -360h-172z" />
<glyph unicode="l" horiz-adv-x="454" d="M-4 0l305 1470h184l-313 -1470h-176z" />
<glyph unicode="m" horiz-adv-x="1705" d="M-2 0l225 1071h164l-43 -186q43 75 145 142t213 67q114 0 183 -65t69 -132q43 69 152 134t225 65q115 0 188.5 -64.5t73.5 -165.5q0 -72 -28 -198l-144 -668h-184l143 672q21 99 21 149q0 113 -127 113q-63 0 -124 -31.5t-105 -79.5t-74.5 -101t-40.5 -99l-135 -623h-179 l142 664q20 94 20 139q0 64 -34 97.5t-97 33.5q-77 0 -153 -52.5t-123.5 -123t-61.5 -135.5l-137 -623h-174z" />
<glyph unicode="n" d="M0 0l227 1071h174l-34 -170q90 96 179.5 144.5t203.5 48.5q47 0 92.5 -12.5t87.5 -39t68 -75t26 -111.5q0 -65 -27 -197l-139 -659h-184l141 655q23 108 23 138q0 69 -39 104t-125 35q-126 0 -232.5 -104.5t-136.5 -241.5l-127 -586h-178z" />
<glyph unicode="o" d="M37 412q0 135 39.5 258.5t112.5 220.5t188.5 155t255.5 58q195 0 302 -126t107 -325q0 -45 -7.5 -99t-27 -121t-48.5 -131t-76 -125.5t-105.5 -107.5t-141.5 -74t-179 -28q-65 0 -124 14.5t-114 47.5t-94.5 83.5t-63.5 127t-24 172.5zM221 408q0 -128 63.5 -210.5 t186.5 -82.5q68 0 127 27.5t100 73.5t73 102.5t50.5 119t27.5 119t9 105.5q0 149 -70 221.5t-174 72.5q-77 0 -143 -35t-111 -91.5t-77 -129t-47 -147t-15 -145.5z" />
<glyph unicode="p" horiz-adv-x="1251" d="M-66 -422l318 1493h172l-31 -141h4q72 85 151.5 126.5t188.5 41.5q89 0 159.5 -28.5t114 -73t72 -103t39.5 -114t11 -111.5q0 -62 -12.5 -132.5t-38 -151.5t-71 -153.5t-105.5 -132.5t-148.5 -95.5t-192.5 -35.5q-240 0 -315 211h-4l-127 -600h-185zM301 412 q0 -135 73 -216t191 -81q81 0 148.5 39.5t110 99.5t71.5 134.5t41 142t12 124.5q0 144 -67 219.5t-185 75.5q-95 0 -173 -52t-125 -134t-72 -173.5t-25 -178.5z" />
<glyph unicode="q" horiz-adv-x="1251" d="M61 403q0 94 24 191t73.5 186.5t116 160t159.5 113t197 42.5q72 0 132 -21t95 -50.5t60 -62.5t34 -55t9 -30l36 194h179l-332 -1493h-180l124 545q-40 -62 -125.5 -107t-199.5 -45q-191 0 -296.5 120.5t-105.5 311.5zM248 418q0 -146 73 -224.5t187 -78.5q79 0 145 34 t108.5 88t72.5 122.5t42.5 135t12.5 128.5q0 313 -242 313q-85 0 -155 -38.5t-114 -96.5t-74.5 -130t-43 -136t-12.5 -117z" />
<glyph unicode="r" horiz-adv-x="681" d="M0 0l227 1069h168l-45 -215q0 -1 18.5 23t40 52.5t27.5 35.5q110 125 246 125l51 -5l-37 -196q-9 0 -29 2t-30 2q-59 0 -112 -25t-90.5 -63t-68 -86t-47.5 -93t-24 -85l-117 -541h-178z" />
<glyph unicode="s" horiz-adv-x="1024" d="M4 375h172q0 -141 59.5 -200.5t217.5 -59.5q94 0 160.5 42.5t66.5 118.5q0 55 -28.5 86.5t-82.5 57.5l-192 84q-45 20 -75.5 37t-63.5 42.5t-52.5 53.5t-32 68.5t-12.5 89.5q0 45 21 95t63 99.5t118.5 82t174.5 32.5q198 0 304 -93.5t106 -281.5h-172q0 113 -60.5 170 t-169.5 57q-36 0 -71 -8t-68 -24.5t-53.5 -47.5t-20.5 -73q0 -28 11.5 -50.5t36 -40.5t43 -28t50.5 -25l7 -3.5t6 -2.5l205 -88q78 -33 129 -97t51 -146q0 -92 -35 -162t-95 -111t-132.5 -61.5t-155.5 -20.5q-210 0 -320 98.5t-110 309.5z" />
<glyph unicode="t" horiz-adv-x="569" d="M59 160q0 27 7 67l145 693h-148l31 147h148l69 287h172l-63 -287h194l-24 -147h-203l-129 -617q-16 -91 -16 -104q0 -64 82 -64q55 0 110 10l-31 -145q-77 -14 -120 -14q-105 0 -164.5 43t-59.5 131z" />
<glyph unicode="u" d="M37 215q0 70 26 197l140 659h184l-141 -655q-23 -108 -23 -137q0 -140 164 -140q126 0 232.5 104.5t136.5 241.5l127 586h178l-227 -1071h-175l35 170q-90 -96 -179.5 -144.5t-203.5 -48.5q-47 0 -92.5 12.5t-87.5 39t-68 75t-26 111.5z" />
<glyph unicode="v" horiz-adv-x="1024" d="M102 1071h185l106 -893l459 893h203l-588 -1071h-209z" />
<glyph unicode="w" horiz-adv-x="1593" d="M111 1069h186l51 -569l23 -283q28 70 59.5 146t60 141.5t63 143.5t62 139t64.5 142t63 140h203l27 -471l12 -375q47 102 105.5 220.5t101 201.5t113.5 219t106 205h199l-576 -1069h-182l-37 537l-12 297q-54 -129 -111.5 -256.5t-150.5 -327t-117 -250.5h-184z" />
<glyph unicode="x" horiz-adv-x="1024" d="M-59 0l460 557l-256 514h207l174 -383l312 383h221l-447 -534l260 -537h-204l-185 401l-321 -401h-221z" />
<glyph unicode="y" horiz-adv-x="1024" d="M-25 -422l35 154q38 -6 74 -6q27 0 48.5 9.5t40 33t24.5 33.5t21 39q4 6 5 9l53 105l-124 1116h184l74 -889h4l452 889h197l-668 -1253q-63 -114 -94 -152q-81 -100 -211 -100q-56 0 -115 12z" />
<glyph unicode="z" horiz-adv-x="1024" d="M-37 0l29 141l715 768h-584l37 158h835l-22 -123l-735 -788h626l-33 -156h-868z" />
<glyph unicode="{" horiz-adv-x="681" d="M49 461l17 147q82 6 145.5 69t79.5 144l80 385q25 115 98.5 189.5t187.5 74.5h166l-30 -147h-117q-57 0 -89.5 -45.5t-45.5 -110.5l-80 -379q-18 -92 -80.5 -163t-151.5 -88v-5q67 -13 100 -62.5t33 -117.5q0 -34 -18 -129l-59 -278q-17 -87 -17 -115q0 -34 18.5 -59 t59.5 -25h117l-31 -147h-129q-94 0 -147.5 54t-53.5 134q0 58 19 145l53 254q21 107 21 142q0 55 -40 94.5t-106 38.5z" />
<glyph unicode="|" horiz-adv-x="454" d="M141 -438v2048h172v-2048h-172z" />
<glyph unicode="}" horiz-adv-x="681" d="M-184 -401l30 147h117q57 0 89.5 45.5t45.5 110.5l80 379q18 92 80.5 163t151.5 88v5q-67 13 -100.5 62.5t-33.5 117.5q0 28 19 129l59 278q17 87 17 115q0 34 -18.5 59t-59.5 25h-117l31 147h129q94 0 147.5 -54t53.5 -134q0 -58 -19 -145l-53 -254q-21 -107 -21 -142 q0 -55 40 -94.5t106 -38.5l-17 -147q-82 -6 -145.5 -69t-79.5 -144l-80 -385q-25 -115 -98.5 -189.5t-187.5 -74.5h-166z" />
<glyph unicode="~" horiz-adv-x="1228" d="M141 498q94 178 256 178q90 0 238 -72t199 -72q30 0 56.5 12.5t52 41t36.5 44t35 52.5l73 -143q-31 -43 -52 -68t-53.5 -54.5t-69.5 -43t-81 -13.5q-38 0 -79 11.5t-66.5 24t-69.5 36.5q-42 23 -70.5 36t-72 24.5t-86.5 11.5q-61 0 -101.5 -41.5t-70.5 -108.5z" />
<glyph unicode="&#xa1;" horiz-adv-x="681" d="M158 -399l102 485l184 635h101l-86 -635l-103 -485h-198zM424 862l45 209h199l-45 -209h-199z" />
<glyph unicode="&#xa2;" d="M37 412q0 135 39.5 258.5t112.5 220.5t188.5 155t255.5 58q56 0 108 -10l78 188h86l-88 -213q101 -39 159.5 -129.5t65.5 -228.5h-184q0 135 -108 198l-324 -776q18 -6 45 -6q120 0 203 77.5t117 190.5h184q-23 -88 -68 -164.5t-109 -136t-152.5 -93.5t-188.5 -34 q-58 0 -97 10l-90 -217h-86l101 238q-113 41 -180.5 144t-67.5 270zM221 408q0 -84 32 -151t97 -101l326 780q-24 8 -62 8q-64 0 -121 -24.5t-99 -66t-76 -95t-54.5 -114t-31.5 -120.5t-11 -116z" />
<glyph unicode="&#xa3;" d="M43 143q104 67 159.5 165.5t55.5 221.5q0 57 -8 111h-184l26 94h146q-2 14 -9 53.5t-10.5 60.5t-6.5 56.5t-3 67.5q0 203 136 334t351 131q181 0 284 -86.5t103 -261.5q0 -90 -8 -123h-176q8 40 8 112q0 93 -51 151t-143 58q-75 0 -133 -22.5t-91.5 -56t-55 -79t-29 -86 t-7.5 -81.5q0 -111 23 -228h364l-22 -94h-330q4 -40 4 -88q0 -215 -246 -428q63 36 114 49.5t132 13.5q77 0 180 -30q12 -3 40.5 -10.5t42.5 -10.5t35 -6.5t38 -3.5q49 0 91 11.5t98 45.5l18 -6l-51 -182q-14 -2 -61 -15.5t-87 -13.5q-75 0 -223.5 38t-224.5 38 q-74 0 -142.5 -25t-111.5 -51z" />
<glyph unicode="&#xa4;" d="M57 1137l99 98l116 -115q58 50 136 77.5t161 27.5t161 -27.5t136 -77.5l117 115l98 -98l-112 -111q102 -117 102 -307q0 -184 -102 -309l110 -115l-92 -92l-113 119q-122 -113 -305 -113t-305 113l-112 -119l-93 92l111 115q-102 125 -102 309q0 190 102 307zM217 719 q0 -149 103 -258t249 -109t249.5 109t103.5 258q0 146 -104 254t-249 108t-248.5 -108t-103.5 -254z" />
<glyph unicode="&#xa5;" d="M102 354l25 117h348l21 98l-31 76h-299l24 117h228l-262 643h217l243 -643h5l456 643h228l-467 -643h235l-24 -117h-295l-62 -84l-20 -90h338l-25 -117h-340l-78 -354h-196l78 354h-347z" />
<glyph unicode="&#xa6;" horiz-adv-x="454" d="M141 -182v512h172v-512h-172zM141 842v512h172v-512h-172z" />
<glyph unicode="&#xa7;" d="M57 -12h172v-41q0 -221 191 -221q98 0 154.5 55.5t56.5 140.5q0 14 -1.5 27t-6.5 26.5t-7 22t-12 22t-12.5 18.5t-16 20t-15.5 17.5t-18.5 19.5t-17.5 18l-282 272q-154 149 -154 289q0 125 68.5 217t187.5 129q-45 82 -45 154q0 46 12.5 90.5t42 89t73 78t111 54.5 t150.5 21q139 0 235.5 -81t96.5 -216v-100h-172v70q0 33 -9.5 63t-29.5 57.5t-58 43.5t-89 16q-81 0 -136 -44t-55 -124q0 -83 98 -176l273 -254q81 -75 129.5 -152.5t48.5 -169.5q0 -121 -60.5 -209t-203.5 -139q27 -42 37 -76t10 -84q0 -71 -26 -134.5t-73.5 -112.5 t-122 -78t-165.5 -29q-95 0 -175.5 37t-132 112.5t-51.5 176.5v84zM260 713q0 -54 19 -92.5t61 -81.5l352 -342q78 37 117 84t39 125q0 99 -146 237l-292 272q-150 -73 -150 -202z" />
<glyph unicode="&#xa8;" horiz-adv-x="454" d="M57 1262l45 208h185l-45 -208h-185zM391 1262l45 208h185l-46 -208h-184z" />
<glyph unicode="&#xa9;" horiz-adv-x="1509" d="M-16 735q0 157 61 300t164.5 246.5t246.5 164.5t300 61t300 -61t246.5 -164.5t164.5 -246.5t61 -300t-61 -300t-164.5 -246.5t-246.5 -164.5t-300 -61t-300 61t-246.5 164.5t-164.5 246.5t-61 300zM127 735q0 -136 49 -256t133.5 -204.5t201 -133.5t247.5 -49 q129 0 245 49t199.5 133.5t132.5 204.5t49 256q0 135 -49 255t-132.5 204.5t-199.5 134t-245 49.5q-175 0 -319.5 -83.5t-228 -231.5t-83.5 -328zM350 723q0 104 24.5 186.5t64.5 135.5t94.5 88.5t111 50t117.5 14.5q87 0 157 -26.5t112 -69.5t65.5 -91.5t27.5 -97.5h-116 q-22 85 -86.5 133t-155.5 48q-135 0 -216 -97.5t-81 -261.5q0 -165 80 -262.5t211 -97.5q106 0 174.5 69.5t81.5 163.5h114q-6 -60 -32.5 -118t-70.5 -108t-113.5 -81t-153.5 -31q-53 0 -105 11.5t-108.5 43.5t-99 80.5t-70 130.5t-27.5 187z" />
<glyph unicode="&#xaa;" horiz-adv-x="757" d="M264 1016q42 182 275 209l184 20q25 4 41 19.5t24 58.5q8 35 -25 57.5t-112 22.5q-49 0 -85 -11.5t-55.5 -32t-27 -33.5t-14.5 -32h-111q54 215 336 215q23 0 48 -2.5t62.5 -13.5t64 -29t41.5 -53t5 -82l-77 -364q-4 -21 2.5 -30t25.5 -9q11 0 39 4l-18 -90 q-55 -11 -68 -11q-70 0 -88.5 27t-11.5 78q-128 -105 -275 -105q-96 0 -146.5 52t-33.5 135zM399 1038q-23 -102 97 -102q84 0 156.5 42t84.5 103l19 86q-24 -20 -197 -41q-144 -15 -160 -88z" />
<glyph unicode="&#xab;" horiz-adv-x="1024" d="M106 510l35 158l377 243l-29 -172l-262 -166l195 -190l-31 -156zM516 510l35 158l377 243l-29 -172l-262 -166l194 -190l-30 -156z" />
<glyph unicode="&#xac;" horiz-adv-x="1228" d="M96 647v172h1037v-602h-172v430h-865z" />
<glyph unicode="&#xad;" horiz-adv-x="681" d="M55 479l39 185h504l-39 -185h-504z" />
<glyph unicode="&#xae;" horiz-adv-x="1003" d="M117 1122q0 160 113.5 272.5t273.5 112.5t272.5 -112.5t112.5 -272.5t-112.5 -273.5t-272.5 -113.5t-273.5 113.5t-113.5 273.5zM188 1122q0 -137 91.5 -229t224.5 -92t223 92t90 229q0 135 -90.5 227.5t-222.5 92.5t-224 -92.5t-92 -227.5zM360 932v368h170 q121 0 121 -98q0 -64 -51 -88q47 -20 47 -70v-55q0 -43 19 -49v-8h-60q-10 29 -10 92q0 30 -13 48t-53 18h-118v-158h-52zM412 1133h114q74 0 74 63q0 61 -65 61h-123v-124z" />
<glyph unicode="&#xaf;" horiz-adv-x="454" d="M39 1307l24 118h627l-22 -118h-629z" />
<glyph unicode="&#xb0;" horiz-adv-x="819" d="M111 1139q0 125 87.5 212t211.5 87t211.5 -87t87.5 -212t-87.5 -212t-211.5 -87t-211.5 87t-87.5 212zM199 1139q0 -88 61.5 -149.5t149.5 -61.5t149.5 61.5t61.5 149.5t-61.5 149.5t-149.5 61.5t-149.5 -61.5t-61.5 -149.5z" />
<glyph unicode="&#xb1;" horiz-adv-x="1228" d="M96 0v172h1037v-172h-1037zM96 569v172h432v295h172v-295h433v-172h-433v-319h-172v319h-432z" />
<glyph unicode="&#xb2;" horiz-adv-x="681" d="M131 575q32 127 104 208t181 135l137 67q5 2 15 7q32 15 47 22.5t39 21t36 23.5t28.5 25.5t25 31t16.5 36.5t12 46q11 50 -22.5 86.5t-122.5 36.5q-35 0 -66 -8.5t-51.5 -19.5t-39 -32t-28 -33.5t-20 -38t-13 -32t-8.5 -27.5h-122q12 58 35 105.5t50 79t61.5 55.5t66 37 t66.5 20.5t60 10t50 2.5q129 0 199 -70.5t46 -187.5q-10 -45 -31.5 -83.5t-47.5 -66.5t-66 -54.5t-75 -44.5t-87 -42l-100 -47q-75 -35 -117.5 -68.5t-77.5 -75.5h500l-27 -125h-653z" />
<glyph unicode="&#xb3;" horiz-adv-x="681" d="M188 840h140q-7 -27 -4 -56.5t13 -54.5t43.5 -41t88.5 -16q92 0 151 36t76 109q5 21 5 39t-4.5 32t-10.5 25t-17 18.5t-21 13.5t-25 9.5t-26.5 6t-28 3t-27 1t-25.5 0.5h-47l23 104h55q167 0 196 137q7 16 2.5 36t-15.5 37.5t-43.5 29.5t-82.5 12q-49 0 -86 -14.5 t-59 -41t-34.5 -51.5t-21.5 -57h-124q11 52 35 98.5t66 90t110.5 69t156.5 25.5q133 0 198 -64t44 -164q-17 -76 -63.5 -120.5t-96.5 -57.5v-4q147 -43 113 -199q-24 -117 -127.5 -197.5t-274.5 -80.5q-94 0 -164 39q-111 59 -88 248z" />
<glyph unicode="&#xb4;" horiz-adv-x="454" d="M223 1212l193 295h229l-274 -295h-148z" />
<glyph unicode="&#xb5;" horiz-adv-x="1251" d="M-63 -428l301 1413h176l-97 -446l-9 -46q-8 -46 -13.5 -89.5t-5.5 -73.5q0 -100 48 -151.5t140 -51.5q148 0 246 129q66 80 108 285l97 444h174l-209 -985h-160l29 139q-55 -72 -126 -115.5t-179 -43.5q-44 0 -80.5 9t-59 20t-43 31t-28.5 31t-21 31l-112 -530h-176z" />
<glyph unicode="&#xb6;" horiz-adv-x="1099" d="M115 1008q0 115 44.5 204.5t124.5 145t186.5 84t234.5 28.5h479l-379 -1824h-148l355 1702h-248l-354 -1702h-148l221 1059q-170 0 -269 84t-99 219z" />
<glyph unicode="&#xb7;" horiz-adv-x="569" d="M162 494l49 221h221l-49 -221h-221z" />
<glyph unicode="&#xb8;" horiz-adv-x="681" d="M4 -416l51 82q73 -31 127 -31q26 0 49.5 5t50 25.5t33.5 55.5q9 41 -20.5 60.5t-61.5 19.5q-21 0 -81 -16l-27 39l168 176h96l-121 -127q46 8 66 8q90 0 121 -46.5t18 -106.5q-18 -82 -95 -135.5t-188 -53.5q-90 0 -186 45z" />
<glyph unicode="&#xb9;" horiz-adv-x="681" d="M340 1182l18 94q66 4 102 10t73 22.5t62 48t50 83.5h115l-182 -865h-146l129 607h-221z" />
<glyph unicode="&#xba;" horiz-adv-x="747" d="M289.5 1031.5q-8.5 58.5 9.5 137.5q16 77 48.5 137.5t72 97.5t88 61.5t94.5 34t94 9.5q40 0 75.5 -6.5t69.5 -22.5t58 -41.5t41 -63t17.5 -89t-11.5 -117.5q-20 -95 -63 -164.5t-99.5 -106t-113.5 -53t-119 -16.5q-48 0 -89.5 10t-80.5 33t-61 62t-30.5 97.5zM428.5 1096 q-0.5 -34 9 -73.5t44 -63t91.5 -23.5t102 23.5t71.5 62.5t41 74.5t21.5 72.5q6 29 8.5 57t-2 61.5t-18.5 58t-45.5 41t-77.5 16.5q-57 0 -102 -23.5t-71.5 -63t-41.5 -74.5t-23 -73q-7 -39 -7.5 -73z" />
<glyph unicode="&#xbb;" horiz-adv-x="1024" d="M55 227l29 172l262 166l-194 191l30 155l285 -282l-35 -158zM465 227l29 172l262 166l-195 191l31 155l285 -282l-35 -158z" />
<glyph unicode="&#xbc;" horiz-adv-x="1708" d="M307 -39l1219 1479h116l-1218 -1479h-117zM401 1188l19 88q66 4 102 10t73 22.5t62 48t50 83.5h108l-182 -865h-139l129 613h-222zM899 193l27 122l538 549h131l-118 -553h137l-25 -118h-137l-41 -193h-131l41 193h-422zM1051 311h295l81 383h-4z" />
<glyph unicode="&#xbd;" horiz-adv-x="1708" d="M233 -39l1219 1479h117l-1219 -1479h-117zM340 1182l18 94q66 4 102 10t73 22.5t62 48t50 83.5h115l-182 -865h-146l129 607h-221zM930 0q33 127 104.5 207.5t179.5 134.5l140 68q107 52 137 75q62 46 78 125q17 55 -16 95t-128 40q-49 0 -88 -16t-60.5 -35.5t-39.5 -51 t-23 -47.5t-12 -40h-123q17 80 54.5 139.5t78.5 91t93.5 50.5t89 23.5t73.5 4.5q129 0 198.5 -70t45.5 -188q-12 -56 -39 -100.5t-71.5 -79t-86.5 -58t-108 -53.5l-102 -47q-127 -61 -195 -143h500l-27 -125h-653z" />
<glyph unicode="&#xbe;" horiz-adv-x="1708" d="M270 840h140q-7 -27 -4 -56.5t13 -54.5t43.5 -41t88.5 -16q92 0 151 36t76 109q5 21 5 39t-4.5 32t-10.5 25t-17 18.5t-21 13.5t-25 9.5t-26.5 6t-28 3t-27 1t-25.5 0.5h-47l22 104h56q167 0 196 137q7 16 2.5 36t-15.5 37.5t-43.5 29.5t-82.5 12q-49 0 -86 -14.5 t-59 -41t-34.5 -51.5t-21.5 -57h-125q9 41 25 78.5t46 75.5t69.5 66t98.5 45.5t130 17.5q133 0 198 -64t44 -164q-17 -76 -63.5 -120.5t-96.5 -57.5v-4q147 -43 113 -199q-24 -117 -127.5 -197.5t-274.5 -80.5q-94 0 -164 39q-111 59 -88 248zM428 -39l1219 1479h116 l-1218 -1479h-117zM1010 193l26 122l539 549h131l-119 -553h137l-24 -118h-137l-41 -193h-131l41 193h-422zM1161 311h295l82 383h-4z" />
<glyph unicode="&#xbf;" horiz-adv-x="1251" d="M184 -10q21 97 76 164.5t189 173.5q58 46 82.5 66.5t59 55.5t50 63.5t32.5 70.5t29 98l5 20h180q-15 -70 -33.5 -122t-37.5 -90t-55.5 -78t-68.5 -69t-94 -81q-131 -111 -168 -156t-55 -129q-3 -27 -5.5 -57.5t9.5 -61.5t32 -56.5t61.5 -41.5t98.5 -16q54 0 100.5 13.5 t79 34.5t59.5 52t43.5 59t29.5 62.5t19 56.5t11 46h181q-13 -54 -22 -84t-28.5 -77t-42.5 -80t-62 -72t-89 -72q-145 -95 -318 -95q-182 0 -284.5 107t-63.5 295zM727 866l45 209h199l-45 -209h-199z" />
<glyph unicode="&#xc0;" horiz-adv-x="1366" d="M29 0l866 1470h225l219 -1470h-217l-55 428h-590l-244 -428h-204zM578 604h456l-80 647h-4zM774 1903h221l121 -289h-137z" />
<glyph unicode="&#xc1;" horiz-adv-x="1366" d="M29 0l866 1470h225l219 -1470h-217l-55 428h-590l-244 -428h-204zM578 604h456l-80 647h-4zM934 1614l244 289h221l-328 -289h-137z" />
<glyph unicode="&#xc2;" horiz-adv-x="1366" d="M29 0l866 1470h225l219 -1470h-217l-55 428h-590l-244 -428h-204zM578 604h456l-80 647h-4zM727 1614l264 289h191l141 -289h-164l-94 190l-176 -190h-162z" />
<glyph unicode="&#xc3;" horiz-adv-x="1366" d="M29 0l866 1470h225l219 -1470h-217l-55 428h-590l-244 -428h-204zM578 604h456l-80 647h-4zM682 1640q78 220 260 220q57 0 133 -31l41 -19q57 -26 90 -26q29 0 51 8.5t36 25t21 29t15 31.5h103q-32 -97 -100 -160t-152 -63q-41 0 -115 26l-51 19q-82 31 -117 31 q-38 0 -65.5 -23.5t-51.5 -67.5h-98z" />
<glyph unicode="&#xc4;" horiz-adv-x="1366" d="M29 0l866 1470h225l219 -1470h-217l-55 428h-590l-244 -428h-204zM578 604h456l-80 647h-4zM772 1636l45 209h187l-46 -209h-186zM1104 1636l45 209h186l-45 -209h-186z" />
<glyph unicode="&#xc5;" horiz-adv-x="1366" d="M29 0l866 1470h225l219 -1470h-217l-55 428h-590l-244 -428h-204zM578 604h456l-80 647h-4zM860 1718q19 82 83.5 135.5t146.5 53.5t124 -53.5t23 -135.5q-17 -82 -81 -135t-146 -53t-124.5 53t-25.5 135zM942 1718q-9 -44 15.5 -75t68.5 -31t82 31t47 75t-15.5 75.5 t-68.5 31.5t-82 -31.5t-47 -75.5z" />
<glyph unicode="&#xc6;" horiz-adv-x="2048" d="M16 0l912 1470h1319l-39 -176h-799l-94 -450h729l-39 -176h-729l-105 -492h814l-37 -176h-1012l90 428h-543l-252 -428h-215zM594 604h471l145 690h-198z" />
<glyph unicode="&#xc7;" horiz-adv-x="1478" d="M220.5 453q-9.5 126 27.5 290q73 344 303 555t547 211q110 0 199.5 -26.5t148 -72t96 -107t51 -131t6.5 -144.5h-192q-1 74 -24 130.5t-58 88.5t-83.5 52.5t-92 27t-90.5 6.5q-101 0 -195.5 -37.5t-175 -108.5t-142 -183.5t-91.5 -253.5q-23 -107 -27 -197t15.5 -168 t63 -132t120.5 -85t184 -31q44 0 89 8.5t104.5 35.5t112 69.5t106.5 117.5t94 173h192q-36 -99 -85.5 -182.5t-101 -140.5t-111.5 -102t-113.5 -71t-111 -44.5t-99 -25.5t-82.5 -10l-86 -92q46 8 65 8q90 0 121.5 -46.5t18.5 -106.5q-18 -82 -95 -135.5t-188 -53.5 q-90 0 -186 45l51 82q73 -31 127 -31q26 0 49.5 5t50 25.5t33.5 55.5q9 41 -20.5 60.5t-61.5 19.5q-22 0 -82 -16l-27 39l134 141q-98 3 -181 32t-152 88.5t-107.5 150.5t-48 217z" />
<glyph unicode="&#xc8;" horiz-adv-x="1366" d="M176 0l313 1470h1072l-39 -176h-873l-94 -450h805l-39 -176h-805l-104 -492h886l-36 -176h-1086zM774 1903h221l121 -289h-137z" />
<glyph unicode="&#xc9;" horiz-adv-x="1366" d="M176 0l313 1470h1072l-39 -176h-873l-94 -450h805l-39 -176h-805l-104 -492h886l-36 -176h-1086zM934 1614l244 289h221l-328 -289h-137z" />
<glyph unicode="&#xca;" horiz-adv-x="1366" d="M176 0l313 1470h1072l-39 -176h-873l-94 -450h805l-39 -176h-805l-104 -492h886l-36 -176h-1086zM727 1614l264 289h191l141 -289h-164l-94 190l-176 -190h-162z" />
<glyph unicode="&#xcb;" horiz-adv-x="1366" d="M176 0l313 1470h1072l-39 -176h-873l-94 -450h805l-39 -176h-805l-104 -492h886l-36 -176h-1086zM772 1636l45 209h187l-46 -209h-186zM1104 1636l45 209h186l-45 -209h-186z" />
<glyph unicode="&#xcc;" horiz-adv-x="569" d="M186 0l314 1470h198l-313 -1470h-199zM377 1903h221l121 -289h-137z" />
<glyph unicode="&#xcd;" horiz-adv-x="569" d="M186 0l314 1470h198l-313 -1470h-199zM537 1614l243 289h221l-327 -289h-137z" />
<glyph unicode="&#xce;" horiz-adv-x="569" d="M186 0l314 1470h198l-313 -1470h-199zM330 1614l264 289h190l142 -289h-164l-94 190l-176 -190h-162z" />
<glyph unicode="&#xcf;" horiz-adv-x="569" d="M186 0l314 1470h198l-313 -1470h-199zM375 1636l45 209h186l-45 -209h-186zM707 1636l45 209h186l-45 -209h-186z" />
<glyph unicode="&#xd0;" horiz-adv-x="1478" d="M141 668l39 176h166l133 626h596q142 0 247 -52t163 -146t74.5 -225.5t-19.5 -290.5q-8 -39 -20.5 -82t-43 -121.5t-69 -147.5t-102.5 -146t-139 -132t-182.5 -91t-229.5 -36h-588l141 668h-166zM401 170h385q197 0 343 149.5t204 423.5q59 273 -27.5 415t-293.5 142 h-371l-96 -456h393l-39 -176h-393z" />
<glyph unicode="&#xd1;" horiz-adv-x="1478" d="M156 0l313 1470h236l481 -1187h4l254 1187h192l-313 -1470h-223l-496 1188h-4l-252 -1188h-192zM760 1640q78 220 260 220q57 0 133 -31l41 -19q57 -26 90 -26q29 0 51 8.5t36 25t21 29t15 31.5h102q-32 -97 -100 -160t-152 -63q-40 0 -114 26l-51 19q-82 31 -117 31 q-38 0 -65.5 -23.5t-51.5 -67.5h-98z" />
<glyph unicode="&#xd2;" horiz-adv-x="1593" d="M216 592q5 72 20 143q22 101 64.5 202.5t118 206.5t171 184.5t233 130t295.5 50.5q132 0 235.5 -35t167 -95.5t104 -137t54 -165.5t11 -173.5t-20.5 -167.5q-15 -71 -41 -143t-67.5 -149t-93.5 -146t-123 -131t-152.5 -107t-185.5 -71.5t-218 -26.5t-206.5 26.5 t-155 71.5t-107.5 107t-67.5 131t-31.5 146t-4 149zM424 495.5q14 -109.5 61 -189t135 -124.5t205 -45q235 0 408.5 167t230.5 431q30 130 16 239.5t-61 189t-135 124.5t-205 45q-235 0 -408.5 -167t-230.5 -431q-30 -130 -16 -239.5zM889 1903h221l121 -289h-137z" />
<glyph unicode="&#xd3;" horiz-adv-x="1593" d="M216 592q5 72 20 143q22 101 64.5 202.5t118 206.5t171 184.5t233 130t295.5 50.5q132 0 235.5 -35t167 -95.5t104 -137t54 -165.5t11 -173.5t-20.5 -167.5q-15 -71 -41 -143t-67.5 -149t-93.5 -146t-123 -131t-152.5 -107t-185.5 -71.5t-218 -26.5t-206.5 26.5 t-155 71.5t-107.5 107t-67.5 131t-31.5 146t-4 149zM424 495.5q14 -109.5 61 -189t135 -124.5t205 -45q235 0 408.5 167t230.5 431q30 130 16 239.5t-61 189t-135 124.5t-205 45q-235 0 -408.5 -167t-230.5 -431q-30 -130 -16 -239.5zM1049 1614l243 289h221l-327 -289h-137 z" />
<glyph unicode="&#xd4;" horiz-adv-x="1593" d="M216 592q5 72 20 143q22 101 64.5 202.5t118 206.5t171 184.5t233 130t295.5 50.5q132 0 235.5 -35t167 -95.5t104 -137t54 -165.5t11 -173.5t-20.5 -167.5q-15 -71 -41 -143t-67.5 -149t-93.5 -146t-123 -131t-152.5 -107t-185.5 -71.5t-218 -26.5t-206.5 26.5 t-155 71.5t-107.5 107t-67.5 131t-31.5 146t-4 149zM424 495.5q14 -109.5 61 -189t135 -124.5t205 -45q235 0 408.5 167t230.5 431q30 130 16 239.5t-61 189t-135 124.5t-205 45q-235 0 -408.5 -167t-230.5 -431q-30 -130 -16 -239.5zM842 1614l264 289h190l142 -289h-164 l-94 190l-176 -190h-162z" />
<glyph unicode="&#xd5;" horiz-adv-x="1593" d="M216 592q5 72 20 143q22 101 64.5 202.5t118 206.5t171 184.5t233 130t295.5 50.5q132 0 235.5 -35t167 -95.5t104 -137t54 -165.5t11 -173.5t-20.5 -167.5q-15 -71 -41 -143t-67.5 -149t-93.5 -146t-123 -131t-152.5 -107t-185.5 -71.5t-218 -26.5t-206.5 26.5 t-155 71.5t-107.5 107t-67.5 131t-31.5 146t-4 149zM424 495.5q14 -109.5 61 -189t135 -124.5t205 -45q235 0 408.5 167t230.5 431q30 130 16 239.5t-61 189t-135 124.5t-205 45q-235 0 -408.5 -167t-230.5 -431q-30 -130 -16 -239.5zM797 1640q78 220 260 220q57 0 133 -31 l41 -19q57 -26 90 -26q29 0 51 8.5t36 25t21 29t15 31.5h102q-32 -97 -100 -160t-152 -63q-40 0 -114 26l-52 19q-82 31 -116 31q-38 0 -65.5 -23.5t-51.5 -67.5h-98z" />
<glyph unicode="&#xd6;" horiz-adv-x="1593" d="M216 592q5 72 20 143q22 101 64.5 202.5t118 206.5t171 184.5t233 130t295.5 50.5q132 0 235.5 -35t167 -95.5t104 -137t54 -165.5t11 -173.5t-20.5 -167.5q-15 -71 -41 -143t-67.5 -149t-93.5 -146t-123 -131t-152.5 -107t-185.5 -71.5t-218 -26.5t-206.5 26.5 t-155 71.5t-107.5 107t-67.5 131t-31.5 146t-4 149zM424 495.5q14 -109.5 61 -189t135 -124.5t205 -45q235 0 408.5 167t230.5 431q30 130 16 239.5t-61 189t-135 124.5t-205 45q-235 0 -408.5 -167t-230.5 -431q-30 -130 -16 -239.5zM887 1636l45 209h186l-45 -209h-186z M1219 1636l45 209h186l-45 -209h-186z" />
<glyph unicode="&#xd7;" horiz-adv-x="1196" d="M102 104l502 414l-325 414l129 104l323 -411l502 411l82 -104l-500 -414l324 -414l-127 -104l-326 412l-502 -412z" />
<glyph unicode="&#xd8;" horiz-adv-x="1593" d="M88 18l209 185q-45 75 -65 170.5t-17.5 184t21.5 177.5q22 101 64.5 202.5t118 206.5t171 184.5t233 130t295.5 50.5q307 0 451 -182l205 182l49 -61l-209 -186q43 -76 62 -170t15.5 -182t-22.5 -175q-15 -71 -41 -143t-67.5 -149t-93.5 -146t-123 -131t-152.5 -107 t-185.5 -71.5t-218 -26.5q-298 0 -446 178l-201 -178zM440 735q-46 -225 23 -385l944 834q-105 149 -328 149q-235 0 -408.5 -167t-230.5 -431zM504 283q108 -146 321 -146q235 0 408.5 167t230.5 431q50 224 -20 377z" />
<glyph unicode="&#xd9;" horiz-adv-x="1478" d="M251.5 354.5q-2.5 65.5 14.5 134.5l209 981h199l-197 -925q-15 -80 -15.5 -141t18.5 -106.5t46.5 -76t67 -49.5t80.5 -27t88 -8q58 0 112.5 11t112.5 39.5t104.5 73t85 116.5t58.5 164l199 929h198l-202 -954q-25 -115 -83 -214t-145.5 -176t-211.5 -121t-271 -44 q-96 0 -174.5 20t-131.5 56t-90.5 85.5t-53 108t-18 124zM831 1903h222l121 -289h-138z" />
<glyph unicode="&#xda;" horiz-adv-x="1478" d="M251.5 354.5q-2.5 65.5 14.5 134.5l209 981h199l-197 -925q-15 -80 -15.5 -141t18.5 -106.5t46.5 -76t67 -49.5t80.5 -27t88 -8q58 0 112.5 11t112.5 39.5t104.5 73t85 116.5t58.5 164l199 929h198l-202 -954q-25 -115 -83 -214t-145.5 -176t-211.5 -121t-271 -44 q-96 0 -174.5 20t-131.5 56t-90.5 85.5t-53 108t-18 124zM991 1614l244 289h221l-328 -289h-137z" />
<glyph unicode="&#xdb;" horiz-adv-x="1478" d="M251.5 354.5q-2.5 65.5 14.5 134.5l209 981h199l-197 -925q-15 -80 -15.5 -141t18.5 -106.5t46.5 -76t67 -49.5t80.5 -27t88 -8q58 0 112.5 11t112.5 39.5t104.5 73t85 116.5t58.5 164l199 929h198l-202 -954q-25 -115 -83 -214t-145.5 -176t-211.5 -121t-271 -44 q-96 0 -174.5 20t-131.5 56t-90.5 85.5t-53 108t-18 124zM784 1614l265 289h190l141 -289h-163l-95 190l-176 -190h-162z" />
<glyph unicode="&#xdc;" horiz-adv-x="1478" d="M251.5 354.5q-2.5 65.5 14.5 134.5l209 981h199l-197 -925q-15 -80 -15.5 -141t18.5 -106.5t46.5 -76t67 -49.5t80.5 -27t88 -8q58 0 112.5 11t112.5 39.5t104.5 73t85 116.5t58.5 164l199 929h198l-202 -954q-25 -115 -83 -214t-145.5 -176t-211.5 -121t-271 -44 q-96 0 -174.5 20t-131.5 56t-90.5 85.5t-53 108t-18 124zM829 1636l45 209h187l-45 -209h-187zM1161 1636l45 209h187l-45 -209h-187z" />
<glyph unicode="&#xdd;" horiz-adv-x="1366" d="M342 1470h231l271 -706l573 706h234l-744 -878l-125 -592h-198l125 592zM934 1614l244 289h221l-328 -289h-137z" />
<glyph unicode="&#xde;" horiz-adv-x="1366" d="M176 0l313 1470h199l-53 -243h463q200 0 293.5 -116t54.5 -298q-13 -64 -40.5 -124.5t-72.5 -117.5t-103 -99.5t-139 -68.5t-173 -26h-463l-80 -377h-199zM492 547h395q300 0 354 264q54 246 -237 246h-404z" />
<glyph unicode="&#xdf;" horiz-adv-x="1251" d="M137 0l232 1090q39 182 186.5 291.5t372.5 109.5q226 0 336 -100.5t73 -268.5q-8 -41 -23.5 -78t-30 -63t-39 -52.5t-37.5 -39.5t-40 -31.5t-32.5 -22t-28.5 -16.5q100 -29 144.5 -130.5t23.5 -201.5q-29 -132 -89.5 -233t-144 -162.5t-182.5 -92t-211 -30.5q-27 0 -44 2 t-38.5 7.5t-23.5 5.5l32 153q47 -6 91 -6q169 0 274 77t137 230q34 153 -43 220t-244 67q-45 0 -81 -8l34 162q45 -5 47 -5q315 0 367 232q21 102 -45.5 165.5t-216.5 63.5q-163 0 -243.5 -74.5t-110.5 -216.5l-222 -1044h-180z" />
<glyph unicode="&#xe0;" d="M133 279q7 34 18.5 66.5t41 79t70 82t110.5 66t157 41.5l306 37q42 4 73.5 30t46.5 97q17 86 -36 130t-179 44q-59 0 -106 -14.5t-75.5 -34t-52 -51t-34 -53.5t-22.5 -54h-166q88 357 518 357q15 0 32 -1t41.5 -4t47.5 -8t50.5 -13.5t49.5 -20.5t45.5 -28.5t37.5 -38 t26 -49t11.5 -61.5t-7.5 -75l-131 -617q-11 -63 47 -63q15 0 61 8l-29 -131q-6 -2 -29 -8.5t-38.5 -9t-34.5 -2.5q-57 0 -93.5 14t-49 37t-16.5 52t3 60q-39 -35 -75 -60.5t-89 -54t-119.5 -44t-140.5 -15.5q-148 0 -223.5 86t-46.5 224zM326 305q-40 -186 153 -186 q84 0 167 32.5t143.5 91.5t74.5 128l39 176q-29 -19 -90 -33.5t-221 -34.5q-35 -5 -61 -10t-63 -17.5t-63 -30t-48.5 -47.5t-30.5 -69zM578 1503h221l121 -289h-138z" />
<glyph unicode="&#xe1;" d="M133 279q7 34 18.5 66.5t41 79t70 82t110.5 66t157 41.5l306 37q42 4 73.5 30t46.5 97q17 86 -36 130t-179 44q-59 0 -106 -14.5t-75.5 -34t-52 -51t-34 -53.5t-22.5 -54h-166q88 357 518 357q15 0 32 -1t41.5 -4t47.5 -8t50.5 -13.5t49.5 -20.5t45.5 -28.5t37.5 -38 t26 -49t11.5 -61.5t-7.5 -75l-131 -617q-11 -63 47 -63q15 0 61 8l-29 -131q-6 -2 -29 -8.5t-38.5 -9t-34.5 -2.5q-57 0 -93.5 14t-49 37t-16.5 52t3 60q-39 -35 -75 -60.5t-89 -54t-119.5 -44t-140.5 -15.5q-148 0 -223.5 86t-46.5 224zM326 305q-40 -186 153 -186 q84 0 167 32.5t143.5 91.5t74.5 128l39 176q-29 -19 -90 -33.5t-221 -34.5q-35 -5 -61 -10t-63 -17.5t-63 -30t-48.5 -47.5t-30.5 -69zM737 1214l244 289h221l-328 -289h-137z" />
<glyph unicode="&#xe2;" d="M133 279q7 34 18.5 66.5t41 79t70 82t110.5 66t157 41.5l306 37q42 4 73.5 30t46.5 97q17 86 -36 130t-179 44q-59 0 -106 -14.5t-75.5 -34t-52 -51t-34 -53.5t-22.5 -54h-166q88 357 518 357q15 0 32 -1t41.5 -4t47.5 -8t50.5 -13.5t49.5 -20.5t45.5 -28.5t37.5 -38 t26 -49t11.5 -61.5t-7.5 -75l-131 -617q-11 -63 47 -63q15 0 61 8l-29 -131q-6 -2 -29 -8.5t-38.5 -9t-34.5 -2.5q-57 0 -93.5 14t-49 37t-16.5 52t3 60q-39 -35 -75 -60.5t-89 -54t-119.5 -44t-140.5 -15.5q-148 0 -223.5 86t-46.5 224zM326 305q-40 -186 153 -186 q84 0 167 32.5t143.5 91.5t74.5 128l39 176q-29 -19 -90 -33.5t-221 -34.5q-35 -5 -61 -10t-63 -17.5t-63 -30t-48.5 -47.5t-30.5 -69zM530 1214l265 289h190l141 -289h-163l-95 191l-176 -191h-162z" />
<glyph unicode="&#xe3;" d="M133 279q7 34 18.5 66.5t41 79t70 82t110.5 66t157 41.5l306 37q42 4 73.5 30t46.5 97q17 86 -36 130t-179 44q-59 0 -106 -14.5t-75.5 -34t-52 -51t-34 -53.5t-22.5 -54h-166q88 357 518 357q15 0 32 -1t41.5 -4t47.5 -8t50.5 -13.5t49.5 -20.5t45.5 -28.5t37.5 -38 t26 -49t11.5 -61.5t-7.5 -75l-131 -617q-11 -63 47 -63q15 0 61 8l-29 -131q-6 -2 -29 -8.5t-38.5 -9t-34.5 -2.5q-57 0 -93.5 14t-49 37t-16.5 52t3 60q-39 -35 -75 -60.5t-89 -54t-119.5 -44t-140.5 -15.5q-148 0 -223.5 86t-46.5 224zM326 305q-40 -186 153 -186 q84 0 167 32.5t143.5 91.5t74.5 128l39 176q-29 -19 -90 -33.5t-221 -34.5q-35 -5 -61 -10t-63 -17.5t-63 -30t-48.5 -47.5t-30.5 -69zM465 1241q33 99 98 159t162 60q58 0 131 -30l41 -19q62 -27 92 -27q29 0 50.5 8.5t35.5 25.5t20.5 28.5t14.5 32.5h102 q-31 -96 -98.5 -160t-152.5 -64q-39 0 -115 27l-49 18q-82 31 -119 31q-69 0 -115 -90h-98z" />
<glyph unicode="&#xe4;" d="M133 279q7 34 18.5 66.5t41 79t70 82t110.5 66t157 41.5l306 37q42 4 73.5 30t46.5 97q17 86 -36 130t-179 44q-59 0 -106 -14.5t-75.5 -34t-52 -51t-34 -53.5t-22.5 -54h-166q88 357 518 357q15 0 32 -1t41.5 -4t47.5 -8t50.5 -13.5t49.5 -20.5t45.5 -28.5t37.5 -38 t26 -49t11.5 -61.5t-7.5 -75l-131 -617q-11 -63 47 -63q15 0 61 8l-29 -131q-6 -2 -29 -8.5t-38.5 -9t-34.5 -2.5q-57 0 -93.5 14t-49 37t-16.5 52t3 60q-39 -35 -75 -60.5t-89 -54t-119.5 -44t-140.5 -15.5q-148 0 -223.5 86t-46.5 224zM326 305q-40 -186 153 -186 q84 0 167 32.5t143.5 91.5t74.5 128l39 176q-29 -19 -90 -33.5t-221 -34.5q-35 -5 -61 -10t-63 -17.5t-63 -30t-48.5 -47.5t-30.5 -69zM573 1237l45 209h187l-45 -209h-187zM905 1237l45 209h187l-45 -209h-187z" />
<glyph unicode="&#xe5;" d="M133 279q7 34 18.5 66.5t41 79t70 82t110.5 66t157 41.5l306 37q42 4 73.5 30t46.5 97q17 86 -36 130t-179 44q-59 0 -106 -14.5t-75.5 -34t-52 -51t-34 -53.5t-22.5 -54h-166q88 357 518 357q15 0 32 -1t41.5 -4t47.5 -8t50.5 -13.5t49.5 -20.5t45.5 -28.5t37.5 -38 t26 -49t11.5 -61.5t-7.5 -75l-131 -617q-11 -63 47 -63q15 0 61 8l-29 -131q-6 -2 -29 -8.5t-38.5 -9t-34.5 -2.5q-57 0 -93.5 14t-49 37t-16.5 52t3 60q-39 -35 -75 -60.5t-89 -54t-119.5 -44t-140.5 -15.5q-148 0 -223.5 86t-46.5 224zM326 305q-40 -186 153 -186 q84 0 167 32.5t143.5 91.5t74.5 128l39 176q-29 -19 -90 -33.5t-221 -34.5q-35 -5 -61 -10t-63 -17.5t-63 -30t-48.5 -47.5t-30.5 -69zM672 1360q17 82 82 135t147 53t123.5 -53t24.5 -135t-81.5 -135.5t-146.5 -53.5t-124 53.5t-25 135.5zM754 1360q-9 -44 15.5 -75.5 t68.5 -31.5t82 31.5t47 75.5t-15.5 75t-68.5 31t-82 -31t-47 -75z" />
<glyph unicode="&#xe6;" horiz-adv-x="1820" d="M133 279q7 34 18.5 66.5t41 79t70 82t110.5 66t157 41.5l306 37q42 4 73.5 30t46.5 97q17 86 -36 130t-179 44q-59 0 -106 -14.5t-75.5 -34t-52 -51t-34 -53.5t-22.5 -54h-166q88 357 518 357q59 0 106.5 -9t76.5 -20.5t56.5 -35.5t41 -39.5t36.5 -47.5q1 1 24.5 19.5 t29.5 23t30 21.5t37 23t39 19.5t48 19t51 13t61 10.5t67 3q152 0 241 -78t108 -216.5t-19 -330.5h-782q-37 -169 22 -260.5t213 -91.5q79 0 152 37t115.5 84t54.5 90h180q-18 -57 -85 -145.5t-169 -147.5q-36 -21 -66.5 -34.5t-94.5 -26.5t-144 -13q-73 0 -132 17t-93.5 40 t-61.5 57t-38 57.5t-21 52.5q-101 -117 -219 -170.5t-265 -53.5q-148 0 -223.5 86t-46.5 224zM326 305q-40 -186 153 -186q84 0 167 32.5t143.5 91.5t74.5 128l39 176q-29 -19 -90 -33.5t-221 -34.5q-35 -5 -61 -10t-63 -17.5t-63 -30t-48.5 -47.5t-30.5 -69zM1083 621h596 q13 62 6.5 119.5t-28.5 102t-75 71t-132 26.5q-122 0 -230.5 -96t-136.5 -223z" />
<glyph unicode="&#xe7;" horiz-adv-x="1024" d="M170 506q27 127 80.5 233.5t132 188.5t188 128t238.5 46q68 0 123 -16t90.5 -44t61 -66t35.5 -81t13.5 -90.5t-4.5 -93.5h-174q13 229 -204 229q-65 0 -121.5 -24t-98 -63t-74.5 -92t-54 -108.5t-33 -115.5q-87 -412 204 -412q93 0 177.5 67t132.5 187h174 q-20 -66 -56 -128.5t-91.5 -124t-138.5 -102.5t-181 -49l-96 -102q46 8 65 8q90 0 121 -46.5t18 -106.5q-18 -82 -94.5 -135.5t-187.5 -53.5q-91 0 -187 45l52 82q73 -31 127 -31q26 0 49.5 5t50 25.5t33.5 55.5q9 41 -20.5 60.5t-61.5 19.5q-22 0 -82 -16l-27 39l142 149 q-200 15 -285 162t-37 371z" />
<glyph unicode="&#xe8;" d="M176 291.5q-14 98.5 14 214.5q27 127 80.5 233.5t132 188.5t188 128t238.5 46q152 0 241 -78t108 -216.5t-19 -330.5h-782q-37 -169 22 -260.5t213 -91.5q79 0 152 37t115.5 84t54.5 90h180q-18 -57 -85 -145.5t-169 -147.5q-36 -21 -66.5 -34.5t-94.5 -26.5t-144 -13 q-111 0 -193.5 40.5t-127 112t-58.5 170zM406 621h595q13 62 6.5 119.5t-28.5 102t-75 71t-132 26.5q-122 0 -230 -96t-136 -223zM578 1503h221l121 -289h-138z" />
<glyph unicode="&#xe9;" d="M176 291.5q-14 98.5 14 214.5q27 127 80.5 233.5t132 188.5t188 128t238.5 46q152 0 241 -78t108 -216.5t-19 -330.5h-782q-37 -169 22 -260.5t213 -91.5q79 0 152 37t115.5 84t54.5 90h180q-18 -57 -85 -145.5t-169 -147.5q-36 -21 -66.5 -34.5t-94.5 -26.5t-144 -13 q-111 0 -193.5 40.5t-127 112t-58.5 170zM406 621h595q13 62 6.5 119.5t-28.5 102t-75 71t-132 26.5q-122 0 -230 -96t-136 -223zM737 1214l244 289h221l-328 -289h-137z" />
<glyph unicode="&#xea;" d="M176 291.5q-14 98.5 14 214.5q27 127 80.5 233.5t132 188.5t188 128t238.5 46q152 0 241 -78t108 -216.5t-19 -330.5h-782q-37 -169 22 -260.5t213 -91.5q79 0 152 37t115.5 84t54.5 90h180q-18 -57 -85 -145.5t-169 -147.5q-36 -21 -66.5 -34.5t-94.5 -26.5t-144 -13 q-111 0 -193.5 40.5t-127 112t-58.5 170zM406 621h595q13 62 6.5 119.5t-28.5 102t-75 71t-132 26.5q-122 0 -230 -96t-136 -223zM530 1214l265 289h190l141 -289h-163l-95 191l-176 -191h-162z" />
<glyph unicode="&#xeb;" d="M176 291.5q-14 98.5 14 214.5q27 127 80.5 233.5t132 188.5t188 128t238.5 46q152 0 241 -78t108 -216.5t-19 -330.5h-782q-37 -169 22 -260.5t213 -91.5q79 0 152 37t115.5 84t54.5 90h180q-18 -57 -85 -145.5t-169 -147.5q-36 -21 -66.5 -34.5t-94.5 -26.5t-144 -13 q-111 0 -193.5 40.5t-127 112t-58.5 170zM406 621h595q13 62 6.5 119.5t-28.5 102t-75 71t-132 26.5q-122 0 -230 -96t-136 -223zM573 1237l45 209h187l-45 -209h-187zM905 1237l45 209h187l-45 -209h-187z" />
<glyph unicode="&#xec;" horiz-adv-x="569" d="M195 0l227 1071h180l-227 -1071h-180zM293 1503h221l121 -289h-137z" />
<glyph unicode="&#xed;" horiz-adv-x="569" d="M195 0l227 1071h180l-227 -1071h-180zM453 1214l243 289h222l-328 -289h-137z" />
<glyph unicode="&#xee;" horiz-adv-x="569" d="M195 0l227 1071h180l-227 -1071h-180zM246 1214l264 289h190l142 -289h-164l-94 191l-176 -191h-162z" />
<glyph unicode="&#xef;" horiz-adv-x="569" d="M195 0l227 1071h180l-227 -1071h-180zM289 1237l45 209h186l-45 -209h-186zM621 1237l45 209h186l-45 -209h-186z" />
<glyph unicode="&#xf0;" d="M167 385q0 66 15 135q22 103 73.5 200.5t125.5 176t175.5 126.5t211.5 48q168 0 248 -113l6 5q-31 159 -166 290l-281 -127l-67 86l266 117q-71 65 -160 107l168 73q97 -43 164 -104l240 104l78 -82l-242 -104q126 -145 172.5 -331t3.5 -382q-30 -142 -84 -255 t-117.5 -183.5t-138 -117.5t-143 -66t-135.5 -19q-87 0 -157.5 22t-117.5 61t-79 91t-45.5 114t-13.5 128zM357 435.5q-3 -45.5 6 -102.5t32 -102t75 -75.5t126 -30.5t139 31t106.5 75t74.5 101.5t49.5 102.5t25.5 85q9 39 12 84.5t-6 102.5t-32 102t-75 75.5t-126 30.5 t-139 -31t-106.5 -75t-74.5 -101.5t-49.5 -102.5t-25.5 -85q-9 -39 -12 -84.5z" />
<glyph unicode="&#xf1;" d="M133 0l227 1071h170l-32 -151h4q163 182 362 182q45 0 84 -6.5t80.5 -22.5t70 -43t50.5 -68.5t23.5 -99t-11.5 -133.5l-155 -729h-181l140 659q32 145 -4 213t-164 68q-34 0 -71 -8.5t-82 -33.5t-83 -63t-72 -103t-51 -148l-125 -584h-180zM465 1241q33 99 98 159t162 60 q58 0 131 -30l41 -19q62 -27 92 -27q29 0 50.5 8.5t35.5 25.5t20.5 28.5t14.5 32.5h102q-31 -96 -98.5 -160t-152.5 -64q-39 0 -115 27l-49 18q-82 31 -119 31q-69 0 -115 -90h-98z" />
<glyph unicode="&#xf2;" d="M170 399q1 68 16 138q22 107 73.5 205.5t127.5 180t184.5 130.5t231.5 49q83 0 150.5 -22.5t112.5 -62.5t76 -93.5t43.5 -117.5t11.5 -131.5t-15 -137.5q-23 -107 -74.5 -205.5t-128 -180.5t-185 -131t-231.5 -49q-83 0 -150.5 22.5t-112.5 63t-75.5 94t-43 117 t-11.5 131.5zM359.5 439q-3.5 -50 5 -107.5t32 -101.5t74.5 -73.5t125 -29.5t137.5 29.5t106 73t76 101.5t51 108t28.5 98q10 48 13.5 98t-5.5 107.5t-33 101t-75 73t-125 29.5t-137.5 -29.5t-105.5 -73t-75 -101.5t-50.5 -107t-28.5 -98q-10 -48 -13.5 -98zM578 1503h221 l121 -289h-138z" />
<glyph unicode="&#xf3;" d="M170 399q1 68 16 138q22 107 73.5 205.5t127.5 180t184.5 130.5t231.5 49q83 0 150.5 -22.5t112.5 -62.5t76 -93.5t43.5 -117.5t11.5 -131.5t-15 -137.5q-23 -107 -74.5 -205.5t-128 -180.5t-185 -131t-231.5 -49q-83 0 -150.5 22.5t-112.5 63t-75.5 94t-43 117 t-11.5 131.5zM359.5 439q-3.5 -50 5 -107.5t32 -101.5t74.5 -73.5t125 -29.5t137.5 29.5t106 73t76 101.5t51 108t28.5 98q10 48 13.5 98t-5.5 107.5t-33 101t-75 73t-125 29.5t-137.5 -29.5t-105.5 -73t-75 -101.5t-50.5 -107t-28.5 -98q-10 -48 -13.5 -98zM737 1214 l244 289h221l-328 -289h-137z" />
<glyph unicode="&#xf4;" d="M170 399q1 68 16 138q22 107 73.5 205.5t127.5 180t184.5 130.5t231.5 49q83 0 150.5 -22.5t112.5 -62.5t76 -93.5t43.5 -117.5t11.5 -131.5t-15 -137.5q-23 -107 -74.5 -205.5t-128 -180.5t-185 -131t-231.5 -49q-83 0 -150.5 22.5t-112.5 63t-75.5 94t-43 117 t-11.5 131.5zM359.5 439q-3.5 -50 5 -107.5t32 -101.5t74.5 -73.5t125 -29.5t137.5 29.5t106 73t76 101.5t51 108t28.5 98q10 48 13.5 98t-5.5 107.5t-33 101t-75 73t-125 29.5t-137.5 -29.5t-105.5 -73t-75 -101.5t-50.5 -107t-28.5 -98q-10 -48 -13.5 -98zM530 1214 l265 289h190l141 -289h-163l-95 191l-176 -191h-162z" />
<glyph unicode="&#xf5;" d="M170 399q1 68 16 138q22 107 73.5 205.5t127.5 180t184.5 130.5t231.5 49q83 0 150.5 -22.5t112.5 -62.5t76 -93.5t43.5 -117.5t11.5 -131.5t-15 -137.5q-23 -107 -74.5 -205.5t-128 -180.5t-185 -131t-231.5 -49q-83 0 -150.5 22.5t-112.5 63t-75.5 94t-43 117 t-11.5 131.5zM359.5 439q-3.5 -50 5 -107.5t32 -101.5t74.5 -73.5t125 -29.5t137.5 29.5t106 73t76 101.5t51 108t28.5 98q10 48 13.5 98t-5.5 107.5t-33 101t-75 73t-125 29.5t-137.5 -29.5t-105.5 -73t-75 -101.5t-50.5 -107t-28.5 -98q-10 -48 -13.5 -98zM485 1241 q33 99 98 159t162 60q59 0 132 -30l41 -19q62 -27 92 -27q29 0 50.5 8.5t35 25.5t19.5 28.5t15 32.5h103q-31 -96 -99 -160t-153 -64q-39 0 -115 27l-49 18q-82 31 -119 31q-39 0 -65.5 -23t-48.5 -67h-99z" />
<glyph unicode="&#xf6;" d="M170 399q1 68 16 138q22 107 73.5 205.5t127.5 180t184.5 130.5t231.5 49q83 0 150.5 -22.5t112.5 -62.5t76 -93.5t43.5 -117.5t11.5 -131.5t-15 -137.5q-23 -107 -74.5 -205.5t-128 -180.5t-185 -131t-231.5 -49q-83 0 -150.5 22.5t-112.5 63t-75.5 94t-43 117 t-11.5 131.5zM359.5 439q-3.5 -50 5 -107.5t32 -101.5t74.5 -73.5t125 -29.5t137.5 29.5t106 73t76 101.5t51 108t28.5 98q10 48 13.5 98t-5.5 107.5t-33 101t-75 73t-125 29.5t-137.5 -29.5t-105.5 -73t-75 -101.5t-50.5 -107t-28.5 -98q-10 -48 -13.5 -98zM573 1237 l45 209h187l-45 -209h-187zM905 1237l45 209h187l-45 -209h-187z" />
<glyph unicode="&#xf7;" horiz-adv-x="1228" d="M96 432v172h1037v-172h-1037zM510 0v221h209v-221h-209zM510 815v221h209v-221h-209z" />
<glyph unicode="&#xf8;" horiz-adv-x="1251" d="M59 8l162 148q-41 77 -50 178t15 203q22 107 73.5 205.5t127.5 180t184.5 130.5t231.5 49q207 0 309 -133l162 147l51 -53l-174 -160q75 -151 31 -366q-23 -107 -74.5 -205.5t-128 -180.5t-185 -131t-231.5 -49q-200 0 -299 123l-153 -139zM371 293l600 547 q-57 106 -201 106q-74 0 -137.5 -29.5t-105.5 -73t-75 -101.5t-50.5 -107t-28.5 -98q-28 -137 -2 -244zM403 221q56 -94 193 -94q74 0 137.5 29.5t106 73t76 101.5t51 108t28.5 98q25 130 2 227z" />
<glyph unicode="&#xf9;" d="M194.5 187.5q-2.5 49.5 8.5 113.5l164 770h180l-152 -711q-49 -235 158 -235q81 0 148 33t111 87.5t71.5 113.5t40.5 122l125 590h180l-228 -1071h-170l33 156l-2 4q-80 -98 -168.5 -144.5t-212.5 -46.5q-41 0 -79 7t-75 22.5t-64 40.5t-46.5 62t-22 86.5zM578 1503h221 l121 -289h-138z" />
<glyph unicode="&#xfa;" d="M194.5 187.5q-2.5 49.5 8.5 113.5l164 770h180l-152 -711q-49 -235 158 -235q81 0 148 33t111 87.5t71.5 113.5t40.5 122l125 590h180l-228 -1071h-170l33 156l-2 4q-80 -98 -168.5 -144.5t-212.5 -46.5q-41 0 -79 7t-75 22.5t-64 40.5t-46.5 62t-22 86.5zM737 1214 l244 289h221l-328 -289h-137z" />
<glyph unicode="&#xfb;" d="M194.5 187.5q-2.5 49.5 8.5 113.5l164 770h180l-152 -711q-49 -235 158 -235q81 0 148 33t111 87.5t71.5 113.5t40.5 122l125 590h180l-228 -1071h-170l33 156l-2 4q-80 -98 -168.5 -144.5t-212.5 -46.5q-41 0 -79 7t-75 22.5t-64 40.5t-46.5 62t-22 86.5zM530 1214 l265 289h190l141 -289h-163l-95 191l-176 -191h-162z" />
<glyph unicode="&#xfc;" d="M194.5 187.5q-2.5 49.5 8.5 113.5l164 770h180l-152 -711q-49 -235 158 -235q81 0 148 33t111 87.5t71.5 113.5t40.5 122l125 590h180l-228 -1071h-170l33 156l-2 4q-80 -98 -168.5 -144.5t-212.5 -46.5q-41 0 -79 7t-75 22.5t-64 40.5t-46.5 62t-22 86.5zM573 1237 l45 209h187l-45 -209h-187zM905 1237l45 209h187l-45 -209h-187z" />
<glyph unicode="&#xfd;" horiz-adv-x="1024" d="M31 -422l35 164q45 -18 104 -18q69 0 105 38t139 209l-164 1100h205l100 -872h4l471 872h199q-425 -747 -608 -1051q-56 -93 -88 -145t-71 -109t-59 -82.5t-52 -54t-51.5 -37.5t-54 -18.5t-63.5 -10.5t-78 -1q-19 0 -73 16zM680 1214l244 289h221l-328 -289h-137z" />
<glyph unicode="&#xfe;" d="M29 -424l403 1894h180l-116 -546h4q23 26 37 41.5t49 45t68.5 46.5t85 31t106.5 14q104 0 181 -41.5t116.5 -113.5t51 -169.5t-14.5 -210.5q-18 -82 -48 -161t-81.5 -159.5t-116 -141t-156 -98.5t-196.5 -38q-100 0 -164 40.5t-90 103.5h-4l-115 -537h-180zM380.5 359.5 q0.5 -54.5 17 -94.5t39 -67t53 -43t60 -23t60.5 -7q142 0 239.5 114t137.5 300q8 37 12.5 66t7.5 73t-1 77t-18.5 69.5t-39.5 60.5t-67.5 39.5t-100.5 15.5q-290 0 -387 -455q-13 -71 -12.5 -125.5z" />
<glyph unicode="&#xff;" horiz-adv-x="1024" d="M31 -422l35 164q45 -18 104 -18q69 0 105 38t139 209l-164 1100h205l100 -872h4l471 872h199q-425 -747 -608 -1051q-56 -93 -88 -145t-71 -109t-59 -82.5t-52 -54t-51.5 -37.5t-54 -18.5t-63.5 -10.5t-78 -1q-19 0 -73 16zM516 1237l45 209h187l-46 -209h-186zM848 1237 l45 209h186l-45 -209h-186z" />
<glyph unicode="&#x152;" horiz-adv-x="2048" d="M202.5 421.5q-12.5 140.5 24.5 305.5q14 66 36 134t59 146.5t82.5 148.5t109.5 135.5t137.5 113t170 76t202.5 28.5q250 0 324 -188h4l32 149h902l-39 -176h-715l-94 -450h682l-39 -176h-682l-105 -492h719l-37 -176h-907l33 154h-4q-36 -37 -55.5 -55t-62 -49.5t-82 -47 t-100.5 -28.5t-132 -13q-142 0 -244.5 58t-154.5 160t-64.5 242.5zM412 387q27 -133 104.5 -194.5t243.5 -61.5q53 0 111.5 19t117 57t105 107t65.5 157l115 537q32 152 -47.5 241.5t-237.5 89.5q-82 0 -153.5 -26t-123.5 -66.5t-97 -99.5t-74 -115t-53.5 -124t-37.5 -115 t-24 -99q-37 -178 -14 -307z" />
<glyph unicode="&#x153;" horiz-adv-x="1933" d="M170 399q1 68 16 138q22 107 73.5 205.5t127.5 180t184.5 130.5t231.5 49q130 -2 222 -56t134 -161q99 114 209.5 165.5t251.5 51.5q152 0 241 -78t108 -216.5t-19 -330.5h-785q-37 -169 23.5 -260.5t214.5 -91.5q60 0 118 21.5t98.5 54t68 68.5t36.5 67h181 q-18 -57 -85 -145.5t-169 -147.5q-36 -21 -66.5 -34.5t-94.5 -26.5t-144 -13q-256 0 -355 207q-47 -64 -107 -108t-120 -63.5t-104 -26.5t-85 -7h-12q-83 0 -150.5 22.5t-112.5 63t-75.5 94t-43 117t-11.5 131.5zM359.5 439q-3.5 -50 5 -107.5t32 -101.5t74.5 -73.5 t125 -29.5t137.5 29.5t106 73t76 101.5t51 108t28.5 98q10 48 13.5 98t-5.5 107.5t-33 101t-75 73t-125 29.5t-137.5 -29.5t-105.5 -73t-75 -101.5t-50.5 -107t-28.5 -98q-10 -48 -13.5 -98zM1194 621h598q13 62 6.5 119.5t-28.5 102t-75 71t-132 26.5q-123 0 -232 -96 t-137 -223z" />
<glyph unicode="&#x178;" horiz-adv-x="1366" d="M342 1470h231l271 -706l573 706h234l-744 -878l-125 -592h-198l125 592zM772 1636l45 209h187l-46 -209h-186zM1104 1636l45 209h186l-45 -209h-186z" />
<glyph unicode="&#x2c6;" horiz-adv-x="681" d="M301 1214l264 289h191l141 -289h-164l-94 191l-176 -191h-162z" />
<glyph unicode="&#x2dc;" horiz-adv-x="681" d="M256 1241q33 99 98 159t162 60q58 0 131 -30l41 -19q62 -27 92 -27q29 0 50.5 8.5t35.5 25.5t20.5 28.5t14.5 32.5h103q-31 -96 -99 -160t-153 -64q-38 0 -115 27l-49 18q-82 31 -119 31q-69 0 -115 -90h-98z" />
<glyph unicode="&#x2000;" horiz-adv-x="953" />
<glyph unicode="&#x2001;" horiz-adv-x="1907" />
<glyph unicode="&#x2002;" horiz-adv-x="953" />
<glyph unicode="&#x2003;" horiz-adv-x="1907" />
<glyph unicode="&#x2004;" horiz-adv-x="635" />
<glyph unicode="&#x2005;" horiz-adv-x="476" />
<glyph unicode="&#x2006;" horiz-adv-x="317" />
<glyph unicode="&#x2007;" horiz-adv-x="317" />
<glyph unicode="&#x2008;" horiz-adv-x="238" />
<glyph unicode="&#x2009;" horiz-adv-x="381" />
<glyph unicode="&#x200a;" horiz-adv-x="105" />
<glyph unicode="&#x2010;" horiz-adv-x="681" d="M55 479l39 185h504l-39 -185h-504z" />
<glyph unicode="&#x2011;" horiz-adv-x="681" d="M55 479l39 185h504l-39 -185h-504z" />
<glyph unicode="&#x2012;" horiz-adv-x="681" d="M55 479l39 185h504l-39 -185h-504z" />
<glyph unicode="&#x2013;" horiz-adv-x="1024" d="M-16 494l32 151h1024l-32 -151h-1024z" />
<glyph unicode="&#x2014;" horiz-adv-x="2048" d="M250 494l33 151h1515l-33 -151h-1515z" />
<glyph unicode="&#x2018;" horiz-adv-x="569" d="M233 954q34 176 49 230q59 199 188 260q38 18 83 26l-14 -90q-105 -30 -154 -204h111l-52 -222h-211z" />
<glyph unicode="&#x2019;" horiz-adv-x="569" d="M233 954l15 90q104 29 153 205h-110l51 221h211q-34 -176 -49 -230q-59 -199 -188 -260q-38 -18 -83 -26z" />
<glyph unicode="&#x201a;" horiz-adv-x="569" d="M-14 -295l14 90q105 30 154 205h-111l51 221h211q-33 -176 -48 -227q-57 -198 -183 -261q-40 -20 -88 -28z" />
<glyph unicode="&#x201c;" horiz-adv-x="909" d="M201 954q33 176 48 227q57 198 183 261q40 20 88 28l-14 -90q-105 -30 -154 -204h111l-51 -222h-211zM606 954q34 176 49 230q59 199 188 260q38 18 83 26l-15 -90q-104 -30 -153 -204h110l-51 -222h-211z" />
<glyph unicode="&#x201d;" horiz-adv-x="909" d="M201 954l14 90q105 30 154 205h-111l51 221h211q-33 -176 -48 -227q-57 -198 -183 -261q-40 -20 -88 -28zM606 954l15 90q104 29 153 205h-110l51 221h211q-34 -176 -49 -230q-59 -199 -188 -260q-38 -18 -83 -26z" />
<glyph unicode="&#x201e;" horiz-adv-x="909" d="M33 -295l14 90q105 30 154 205h-111l51 221h211q-33 -176 -48 -227q-57 -198 -183 -261q-40 -20 -88 -28zM438 -295l15 90q104 29 153 205h-110l51 221h211q-34 -176 -49 -230q-59 -199 -188 -260q-38 -18 -83 -26z" />
<glyph unicode="&#x2022;" horiz-adv-x="1024" d="M145 735q0 152 107.5 259.5t259.5 107.5t260.5 -107.5t108.5 -259.5t-108.5 -260t-260.5 -108t-259.5 108t-107.5 260z" />
<glyph unicode="&#x2026;" horiz-adv-x="2048" d="M117 0l49 221h221l-49 -221h-221zM799 0l49 221h221l-49 -221h-221zM1481 0l49 221h221l-49 -221h-221z" />
<glyph unicode="&#x202f;" horiz-adv-x="381" />
<glyph unicode="&#x2039;" horiz-adv-x="681" d="M147 510l35 158l377 243l-29 -172l-262 -166l195 -190l-31 -156z" />
<glyph unicode="&#x203a;" horiz-adv-x="681" d="M84 227l29 172l262 166l-195 191l31 155l285 -282l-35 -158z" />
<glyph unicode="&#x205f;" horiz-adv-x="476" />
<glyph unicode="&#x20ac;" d="M150 469l81 147h99l30 146h-147l82 147h104q79 255 239.5 393t391.5 138q129 0 222 -43.5t130 -110.5l-106 -192q-26 82 -97.5 133t-193.5 51q-76 0 -142.5 -32t-115 -86.5t-82.5 -117.5t-55 -133h584l-80 -147h-541l-31 -146h490l-80 -147h-428q-23 -154 41.5 -250 t183.5 -96q104 0 217 49t154 96l-43 -202q-20 -14 -60.5 -34.5t-125 -45.5t-162.5 -25q-217 0 -318.5 129.5t-79.5 378.5h-161z" />
<glyph unicode="&#x2122;" horiz-adv-x="2048" d="M176 1384v86h598v-86h-250v-649h-98v649h-250zM926 735v735h141l209 -618h2l207 618h141v-735h-92v619h-2l-207 -619h-98l-207 619h-2v-619h-92z" />
<glyph unicode="&#xe000;" horiz-adv-x="1075" d="M0 0v1075h1075v-1075h-1075z" />
<glyph unicode="&#xfb01;" horiz-adv-x="1024" d="M176 0l197 922h-148l31 149h147l39 184q51 236 330 236q26 0 80 -4l-33 -162q-46 4 -74 4q-58 0 -88.5 -29.5t-44.5 -95.5l-28 -133h180l-31 -149h-180l-197 -922h-180zM709 0l227 1071h180l-227 -1071h-180zM977 1266l45 204h180l-45 -204h-180z" />
<glyph unicode="&#xfb02;" horiz-adv-x="1024" d="M176 0l197 922h-148l31 149h147l39 184q51 236 330 236q26 0 80 -4l-33 -162q-46 4 -74 4q-58 0 -88.5 -29.5t-44.5 -95.5l-28 -133h180l-31 -149h-180l-197 -922h-180zM705 0l313 1470h180l-313 -1470h-180z" />
</font>
</defs>
</svg>
