<?xml version="1.0" encoding="utf-8"?>
<!-- Generator: Adobe Illustrator 16.0.0, SVG Export Plug-In . SVG Version: 6.00 Build 0)  -->
<!DOCTYPE svg PUBLIC "-//W3C//DTD SVG 1.1//EN" "http://www.w3.org/Graphics/SVG/1.1/DTD/svg11.dtd">
<svg version="1.1" id="Layer_1" xmlns="http://www.w3.org/2000/svg" xmlns:xlink="http://www.w3.org/1999/xlink" x="0px" y="0px"
	 width="32px" height="32px" viewBox="0 0 32 32" enable-background="new 0 0 32 32" xml:space="preserve">
<g>
	<defs>
		<rect id="SVGID_1_" width="32" height="32"/>
	</defs>
	<clipPath id="SVGID_2_">
		<use xlink:href="#SVGID_1_"  overflow="visible"/>
	</clipPath>
	<g clip-path="url(#SVGID_2_)">
		<defs>
			<rect id="SVGID_3_" width="32" height="32"/>
		</defs>
		<clipPath id="SVGID_4_">
			<use xlink:href="#SVGID_3_"  overflow="visible"/>
		</clipPath>
		<path clip-path="url(#SVGID_4_)" fill="#231F20" d="M15.001,25.001V3.936C13.646,2.704,11.038,2,8.001,2
			c-2.344,0-4.523,0.56-6,1.448v21.064c1.477-0.889,3.656-1.448,6-1.448C11.038,23.064,13.646,23.769,15.001,25.001 M16.931,27.001
			h-1.86c-1.334-1.273-3.978-2-7.07-2c-2.344,0-4.523,0.559-6,1.446v3c1.477-0.888,3.656-1.446,6-1.446
			c3.043,0,5.648,0.708,7.002,1.943v0.057h2v-0.059c1.354-1.235,3.957-1.941,6.998-1.941c2.344,0,4.525,0.559,6,1.446v-3
			c-1.475-0.888-3.656-1.446-6-1.446C20.911,25.001,18.267,25.728,16.931,27.001 M24.001,2c-3.037,0-5.643,0.703-7,1.935v21.065
			c1.357-1.232,3.963-1.937,7-1.937c2.344,0,4.525,0.56,6,1.448V3.449C28.526,2.561,26.345,2,24.001,2"/>
	</g>
</g>
</svg>
