<?xml version="1.0" standalone="no"?>
<!DOCTYPE svg PUBLIC "-//W3C//DTD SVG 1.1//EN" "http://www.w3.org/Graphics/SVG/1.1/DTD/svg11.dtd" >
<svg xmlns="http://www.w3.org/2000/svg">
<metadata></metadata>
<defs>
<font id="HelveticaLTStdBoldItalic" horiz-adv-x="1138" >
<font-face units-per-em="2048" ascent="1470" descent="-578" />
<missing-glyph horiz-adv-x="569" />
<glyph horiz-adv-x="0" />
<glyph horiz-adv-x="2048" />
<glyph unicode=" "  horiz-adv-x="569" />
<glyph unicode="&#x09;" horiz-adv-x="569" />
<glyph unicode="&#xa0;" horiz-adv-x="569" />
<glyph unicode="!" horiz-adv-x="681" d="M51 0l55 283h302l-56 -283h-301zM195 440l110 1030h307l-264 -1030h-153z" />
<glyph unicode="&#x22;" horiz-adv-x="909" d="M195 907v563h213v-563h-213zM604 907v563h213v-563h-213z" />
<glyph unicode="#" d="M41 389l27 201h202l35 250h-194l26 200h197l53 390h205l-53 -390h198l54 390h204l-53 -390h193l-27 -200h-195l-34 -250h186l-27 -201h-188l-53 -389h-205l53 389h-199l-53 -389h-205l54 389h-201zM475 590h199l35 250h-199z" />
<glyph unicode="$" d="M45 395v27h254v-25q0 -171 145 -213l78 437q-186 81 -270 180t-84 250q0 63 15 121t49.5 111.5t86 92.5t129 62.5t173.5 23.5h51l24 144h113l-27 -156q91 -8 158 -45t105.5 -96t56.5 -131t18 -160h-241q-1 60 -9 99.5t-27 64t-40.5 37t-57.5 24.5l-73 -401 q111 -57 177 -99t115 -92.5t68 -107t19 -133.5q0 -92 -30.5 -171.5t-89 -140.5t-150.5 -96t-208 -35h-55l-35 -200h-112l37 208q-363 67 -363 420zM410 1075q0 -53 23.5 -92t44.5 -53t73 -41l4.5 -3t4.5 -2.5l5 -2.5l70 376h-33q-88 0 -140 -48t-52 -134zM555 172 q30 0 58.5 4t63.5 18t60 36.5t42.5 63.5t17.5 95q0 57 -41.5 102.5t-126.5 90.5z" />
<glyph unicode="%" horiz-adv-x="1820" d="M121 971q0 77 15.5 147.5t49 133.5t82.5 109.5t121 73.5t158 27q143 0 216 -81t73 -201q0 -100 -25 -187.5t-74 -158.5t-131.5 -112.5t-187.5 -41.5q-145 0 -221 78t-76 213zM350 956q0 -60 19.5 -88t68.5 -28q68 0 100 54t56 177q12 65 12 115q0 60 -19.5 88.5 t-68.5 28.5q-68 0 -100 -54t-56 -178q-12 -65 -12 -115zM434 -33l811 1495h164l-809 -1495h-166zM1010 258q0 77 15.5 147.5t49 133.5t82.5 109.5t121 74t158 27.5q143 0 215.5 -81.5t72.5 -201.5q0 -100 -25 -187.5t-74 -158.5t-131 -112.5t-187 -41.5q-145 0 -221 78 t-76 213zM1239 244q0 -60 19.5 -88.5t68.5 -28.5q68 0 100 54t56 177q12 65 12 115q0 60 -19.5 88.5t-68.5 28.5q-68 0 -100 -54t-56 -178q-12 -64 -12 -114z" />
<glyph unicode="&#x26;" horiz-adv-x="1366" d="M49 389q0 82 30.5 155.5t85 129t117 97t136.5 73.5q-119 161 -119 295q0 144 103 246t278 102q69 0 132.5 -22t115 -63t82 -106.5t30.5 -146.5q0 -248 -282 -381l164 -272q68 76 102 211h242q-14 -124 -74 -240t-137 -188l168 -279h-303l-62 102q-182 -135 -389 -135 q-195 0 -307.5 118.5t-112.5 303.5zM319 406q0 -88 54 -148.5t137 -60.5q119 0 229 98l-211 352q-92 -41 -150.5 -101.5t-58.5 -139.5zM553 1151q0 -41 20 -87t62 -112q164 82 164 207q0 55 -35.5 85t-85.5 30q-47 0 -86 -33t-39 -90z" />
<glyph unicode="'" horiz-adv-x="569" d="M170 907v563h229v-563h-229z" />
<glyph unicode="(" horiz-adv-x="796" d="M137 426q0 153 41.5 307.5t113 287.5t151 242t171.5 207h226q-223 -327 -321.5 -597.5t-98.5 -589.5q0 -345 125 -639h-205q-100 205 -151.5 392.5t-51.5 389.5z" />
<glyph unicode=")" horiz-adv-x="796" d="M-68 -356q223 327 321.5 597.5t98.5 589.5q0 345 -125 639h205q100 -205 151.5 -392.5t51.5 -389.5q0 -153 -41.5 -307.5t-113 -287.5t-151 -242t-171.5 -207h-226z" />
<glyph unicode="*" horiz-adv-x="796" d="M111 1147l51 158l211 -76v241h159v-241l211 76l52 -158l-217 -68l147 -196l-125 -88l-147 188l-148 -188l-125 88l148 196z" />
<glyph unicode="+" horiz-adv-x="1228" d="M96 403v230h404v403h229v-403h404v-230h-404v-403h-229v403h-404z" />
<glyph unicode="," horiz-adv-x="569" d="M-20 -326l18 103q142 25 186 160l21 63h-174l59 307h309l-57 -287q-15 -76 -45 -137t-66.5 -99.5t-80.5 -63.5t-85.5 -35.5t-84.5 -10.5z" />
<glyph unicode="-" horiz-adv-x="681" d="M47 440l39 267h502l-37 -267h-504z" />
<glyph unicode="." horiz-adv-x="569" d="M31 0l59 307h309l-59 -307h-309z" />
<glyph unicode="/" horiz-adv-x="569" d="M-39 -37l467 1544h221l-467 -1544h-221z" />
<glyph unicode="0" d="M72 457q0 94 8.5 188.5t29 195t51.5 189.5t78.5 169t107 137.5t141 91.5t176.5 34q110 0 194 -39.5t134.5 -108.5t76 -157.5t25.5 -193.5q0 -92 -8.5 -185t-29 -192.5t-51.5 -188t-78.5 -168t-107 -137t-141 -91.5t-176.5 -34q-214 0 -322 133.5t-108 356.5zM342 391 q0 -97 42 -145.5t118 -48.5q44 0 79 17.5t59 50.5t40 66.5t31 80.5q40 128 70 322.5t30 291.5q0 88 -38.5 147.5t-121.5 59.5q-44 0 -79 -17.5t-59 -50.5t-40 -66.5t-31 -80.5q-40 -129 -70 -325.5t-30 -301.5z" />
<glyph unicode="1" d="M184 1020l37 188q133 0 262.5 69.5t190.5 184.5h233l-256 -1462h-286l186 1069q-111 -31 -169.5 -38.5t-197.5 -10.5z" />
<glyph unicode="2" d="M16 0q5 300 271 516l389 315q117 92 117 230q0 77 -50 124.5t-125 47.5q-101 0 -156.5 -71t-55.5 -181h-283q2 94 33 178t91.5 153t161.5 109.5t230 40.5q64 0 125 -14.5t118 -47.5t99.5 -81t68 -120.5t25.5 -160.5q0 -111 -51 -215.5t-164 -185.5l-366 -262 q-58 -40 -83.5 -70t-31.5 -63h625l-50 -242h-938z" />
<glyph unicode="3" d="M39 440h283v-39q0 -99 52.5 -151.5t151.5 -52.5q88 0 155 60.5t67 174.5q0 102 -52.5 152.5t-148.5 50.5h-62l33 201q52 0 93 5.5t81 21t66.5 40.5t42.5 68t16 100q0 78 -52 120t-118 42q-98 0 -145 -55t-60 -158h-282q21 202 153 322t346 120q110 0 197 -33.5 t138.5 -89.5t78.5 -123t27 -139q0 -135 -75 -226t-183 -118v-6q188 -93 188 -309q0 -93 -32 -173t-94.5 -143t-163.5 -99t-230 -36q-244 0 -357.5 117.5t-113.5 355.5z" />
<glyph unicode="4" d="M-2 332l41 276l715 834h346l-156 -881h152l-41 -229h-152l-59 -332h-275l60 332h-631zM264 561h406l108 604l-4 4z" />
<glyph unicode="5" d="M47 365v28h270v-26q0 -74 48 -122t129 -48q258 0 258 311q0 66 -18.5 115t-50 75.5t-65.5 39t-71 12.5q-69 0 -116.5 -33t-68.5 -80l-258 8l179 785h809l-56 -242h-575l-64 -281q63 32 115.5 44t118.5 12q94 0 168 -27t119.5 -70.5t75.5 -102.5t41.5 -118t11.5 -123 q0 -115 -35.5 -214.5t-103 -176t-174.5 -120.5t-242 -44q-207 0 -326 104t-119 294z" />
<glyph unicode="6" d="M72 522q0 267 68.5 477.5t207 336.5t326.5 126q57 0 109 -8.5t111 -34t101.5 -67t70.5 -114t28 -167.5h-271q0 71 -38 116.5t-115 45.5q-103 0 -172 -96t-95 -281q59 47 115 69.5t131 22.5q176 0 292 -121.5t116 -324.5q0 -76 -18 -150.5t-58 -144.5t-97.5 -123 t-142.5 -85t-186 -32q-75 0 -142 16t-130.5 56.5t-109.5 102t-73.5 159t-27.5 221.5zM354 420q0 -42 8.5 -77.5t28.5 -70.5t62 -55t102 -20q59 0 103.5 27.5t68.5 73.5t35.5 96.5t11.5 105.5q0 100 -50.5 159.5t-154.5 59.5q-41 0 -78 -16.5t-68.5 -50.5t-50 -93.5 t-18.5 -138.5z" />
<glyph unicode="7" d="M141 1188l43 242h957l-39 -218q-143 -183 -238.5 -321t-175 -286t-125.5 -294.5t-67 -310.5h-291q10 130 51 267t94.5 250t135.5 242.5t149.5 221t159.5 207.5h-654z" />
<glyph unicode="8" d="M49 387q0 82 23.5 150.5t65 116t88.5 80t102 52.5q-79 48 -117.5 116.5t-38.5 146.5q0 79 28 151.5t82 131.5t145.5 94.5t207.5 35.5q214 0 334.5 -109.5t120.5 -273.5q0 -133 -61 -216t-185 -134q82 -54 130 -128t48 -185q0 -31 -5 -65.5t-19 -79.5t-36.5 -86t-62 -81.5 t-90.5 -70t-126 -48t-165 -18.5q-212 0 -340.5 118t-128.5 302zM332 389q0 -73 48.5 -132.5t147.5 -59.5q97 0 153 70t58 171q0 36 -10 70t-31.5 65.5t-62 50.5t-94.5 19q-93 0 -151 -69t-58 -185zM442 1028q0 -76 46.5 -130t140.5 -54q90 0 140 65.5t50 155.5 q0 70 -49.5 119t-130.5 49q-83 0 -140 -55.5t-57 -149.5z" />
<glyph unicode="9" d="M72 358h270q0 -71 38.5 -116t115.5 -45q103 0 171.5 95.5t94.5 280.5q-59 -47 -115 -69.5t-131 -22.5q-176 0 -291.5 122t-115.5 325q0 76 18 150.5t58 144.5t97 122.5t142 84.5t186 32q75 0 142 -16t131 -56.5t109.5 -102t73.5 -159t28 -221.5q0 -267 -68.5 -477.5 t-207 -336.5t-326.5 -126q-57 0 -109 8.5t-111 34t-101.5 67t-70.5 114t-28 167.5zM391 930q0 -100 50.5 -159.5t154.5 -59.5q41 0 78 16.5t68.5 50.5t50 93.5t18.5 138.5q0 42 -8.5 77.5t-28.5 70.5t-62 55t-102 20q-59 0 -103.5 -27.5t-68.5 -73.5t-35.5 -96.5 t-11.5 -105.5z" />
<glyph unicode=":" horiz-adv-x="681" d="M31 0l59 307h309l-59 -307h-309zM170 739l59 308h310l-60 -308h-309z" />
<glyph unicode=";" horiz-adv-x="681" d="M-20 -326l18 103q142 25 186 160l21 63h-174l59 307h309l-57 -287q-15 -76 -45 -137t-66.5 -99.5t-80.5 -63.5t-85.5 -35.5t-84.5 -10.5zM170 739l59 308h310l-60 -308h-309z" />
<glyph unicode="&#x3c;" horiz-adv-x="1228" d="M96 426v184l1037 443v-222l-742 -313l742 -313v-221z" />
<glyph unicode="=" horiz-adv-x="1228" d="M96 178v230h1037v-230h-1037zM96 629v229h1037v-229h-1037z" />
<glyph unicode="&#x3e;" horiz-adv-x="1228" d="M96 -16v221l742 313l-742 313v222l1037 -443v-184z" />
<glyph unicode="?" d="M88 1038q6 99 38 179t81 133t113.5 89t134 52t143.5 16q109 0 199 -35t147 -93t88 -130.5t31 -150.5q0 -120 -54 -202t-188 -173l-153 -102q-41 -28 -62 -66.5t-22 -103.5h-265q18 145 60 219t176 170l125 88q88 64 88 174q0 69 -51 116.5t-137 47.5q-192 0 -222 -228 h-270zM227 0l56 283h301l-56 -283h-301z" />
<glyph unicode="@" horiz-adv-x="1638" d="M78 733q0 161 63 305t169.5 246.5t253 162.5t308.5 60q138 0 267.5 -45t230.5 -125t162 -200t61 -260q0 -94 -22.5 -176t-59 -141t-84 -108t-96.5 -80t-97.5 -52t-86 -30t-62.5 -9q-122 0 -131 108h-4q-72 -108 -223 -108q-128 0 -227 110.5t-99 276.5q0 115 53 221 t154 176t226 70q166 0 249 -127l25 102h186l-110 -506q-8 -40 -8 -69q0 -54 41 -54q76 0 140 91.5t64 248.5q0 243 -154.5 378.5t-400.5 135.5q-172 0 -303.5 -78.5t-201.5 -214.5t-70 -309q0 -272 169 -435t439 -163q116 0 223 40.5t187 107.5h192q-109 -155 -268 -237.5 t-350 -82.5q-164 0 -312 58.5t-256.5 159.5t-172.5 245t-64 307zM643 672q0 -67 44.5 -114.5t109.5 -47.5q100 0 165.5 74t65.5 168q0 76 -46 123t-122 47q-92 0 -154.5 -77t-62.5 -173z" />
<glyph unicode="A" horiz-adv-x="1366" d="M-35 0l770 1470h359l186 -1470h-303l-27 289h-518l-141 -289h-326zM557 543h369l-60 620h-4z" />
<glyph unicode="B" horiz-adv-x="1478" d="M31 0l266 1470h575q270 0 390 -97.5t120 -285.5q0 -119 -60 -207t-181 -128q88 -47 133 -114t45 -171q0 -222 -142.5 -344.5t-406.5 -122.5h-739zM383 254h377q66 0 117 20.5t79 54t42 69.5t14 73q0 90 -58 134t-159 44h-340zM498 891h354q109 0 166 47.5t57 138.5 q0 77 -50 108.5t-140 31.5h-328z" />
<glyph unicode="C" horiz-adv-x="1478" d="M88 618q0 107 21.5 212t63 205t108 185t151 149.5t198 101t242.5 36.5q257 0 412.5 -138.5t155.5 -391.5h-307q0 127 -77 201.5t-194 74.5q-78 0 -144 -24t-113 -64t-84 -95t-60.5 -113.5t-38.5 -123t-21 -120.5t-6 -109q0 -80 19 -145.5t59 -118t109 -82t161 -29.5 q123 0 214 66t126 207h312q-63 -257 -232 -398t-432 -141q-141 0 -254 41.5t-184 107.5t-118.5 154t-67 175t-19.5 177z" />
<glyph unicode="D" horiz-adv-x="1478" d="M47 0l260 1470h496q317 0 463.5 -154t146.5 -476q0 -233 -107.5 -439t-277.5 -305q-70 -41 -177 -65t-157.5 -27.5t-77.5 -3.5h-569zM401 270h263q94 0 171.5 38t126.5 99t82.5 140.5t47.5 158.5t14 158q0 350 -305 350h-234z" />
<glyph unicode="E" horiz-adv-x="1251" d="M31 0l266 1470h977l-45 -253h-676l-57 -326h620l-45 -254h-618l-68 -383h709l-45 -254h-1018z" />
<glyph unicode="F" d="M25 0l270 1470h891l-45 -256h-586l-61 -342h536l-41 -254h-549l-110 -618h-305z" />
<glyph unicode="G" horiz-adv-x="1593" d="M102 602q0 145 31.5 278.5t96.5 248t157 198.5t220.5 132t279.5 48q128 0 235 -32.5t188 -96t126 -165t45 -232.5h-301q-15 141 -85.5 206.5t-215.5 65.5q-107 0 -192 -47t-135.5 -118t-84 -162t-45.5 -170t-12 -152q0 -178 88.5 -282.5t265.5 -104.5q61 0 115 16 t90.5 37.5t69.5 57.5t50 60t34 61.5t20 46.5l10 30h-381l43 242h672l-133 -768h-207l-6 162q-56 -72 -142 -119t-162 -63.5t-149 -16.5q-70 0 -143 16.5t-154.5 61.5t-144 114t-103.5 185t-41 262z" />
<glyph unicode="H" horiz-adv-x="1478" d="M31 0l268 1470h307l-102 -559h575l103 559h307l-268 -1470h-308l121 657h-575l-121 -657h-307z" />
<glyph unicode="I" horiz-adv-x="569" d="M18 0l267 1470h307l-266 -1470h-308z" />
<glyph unicode="J" horiz-adv-x="1024" d="M-10 299q0 69 22 223h277q-29 -135 -29 -194t34.5 -91t84.5 -32q75 0 108.5 54.5t57.5 186.5l182 1024h307l-176 -993q-13 -72 -21.5 -112t-27 -103t-39 -98.5t-55.5 -79.5t-79 -66.5t-107.5 -38.5t-141.5 -16q-185 0 -291 90.5t-106 245.5z" />
<glyph unicode="K" horiz-adv-x="1366" d="M51 0l266 1470h301l-112 -583l557 583h381l-613 -630l431 -840h-342l-302 618l-186 -186l-76 -432h-305z" />
<glyph unicode="L" d="M29 0l266 1470h305l-215 -1210h686l-45 -260h-997z" />
<glyph unicode="M" horiz-adv-x="1705" d="M31 0l258 1470h448l62 -1089h4l450 1089h463l-266 -1470h-287l244 1257h-4l-526 -1257h-273l-84 1257h-4l-199 -1257h-286z" />
<glyph unicode="N" horiz-adv-x="1478" d="M29 0l270 1470h319l365 -940l35 -96q23 157 51 325.5t66 389t55 321.5h297l-264 -1470h-318l-354 897l-53 145q-28 -211 -92 -602.5t-72 -439.5h-305z" />
<glyph unicode="O" horiz-adv-x="1593" d="M109 618q0 107 21.5 212t63 205t108 185t151 149.5t198 101t242.5 36.5q141 0 254 -41.5t184 -107.5t118.5 -154t67 -175t19.5 -177q0 -107 -21.5 -212t-63 -205t-108 -185t-151 -149.5t-198 -101t-242.5 -36.5q-141 0 -254 41.5t-184 107.5t-118.5 154t-67 175 t-19.5 177zM416 604q0 -98 28 -174t76.5 -121.5t109.5 -68.5t132 -23q78 0 144 24t113 64t84 95t60.5 113.5t38.5 123t21 120.5t6 109q0 98 -28 174t-76.5 121.5t-109.5 68.5t-132 23q-78 0 -144 -24t-113 -64t-84 -95t-60.5 -113.5t-38.5 -123t-21 -120.5t-6 -109z" />
<glyph unicode="P" horiz-adv-x="1366" d="M31 0l266 1470h506q111 0 200 -23t147.5 -61.5t97.5 -93t56 -115.5t17 -130q0 -253 -152 -394t-444 -141h-295l-92 -512h-307zM477 766h273q139 0 207.5 70t68.5 180q0 201 -209 201h-258z" />
<glyph unicode="Q" horiz-adv-x="1593" d="M109 618q0 107 21.5 212t63 205t108 185t151 149.5t198 101t242.5 36.5q141 0 254 -41.5t184 -107.5t118.5 -154t67 -175t19.5 -177q0 -202 -75.5 -393.5t-219.5 -317.5l150 -182l-170 -147l-170 211q-135 -60 -299 -60q-141 0 -254 41.5t-184 107.5t-118.5 154t-67 175 t-19.5 177zM416 604q0 -98 28 -174t76.5 -121.5t109.5 -68.5t132 -23q61 0 117 16l-140 170l176 136l152 -185q85 96 123.5 238t38.5 274q0 98 -28 174t-76.5 121.5t-109.5 68.5t-132 23q-78 0 -144 -24t-113 -64t-84 -95t-60.5 -113.5t-38.5 -123t-21 -120.5t-6 -109z" />
<glyph unicode="R" horiz-adv-x="1478" d="M51 0l262 1470h559q115 0 206 -23t161 -71.5t107.5 -132.5t37.5 -199q0 -148 -75 -245t-197 -131q20 -8 33 -15t33.5 -25t33 -40.5t22 -62t9.5 -89.5q0 -21 -9 -130t-9 -126q0 -72 11 -98.5t58 -42.5v-39h-356q-23 63 -23 104q0 49 8 137t9 119q0 40 -2.5 65.5 t-14.5 55.5t-34 47t-63 29t-99 12h-264l-97 -569h-307zM498 815h295q78 0 136 22t90 58t47 75.5t15 82.5q0 48 -18.5 82.5t-42 51t-60.5 25.5t-56 10t-48 1h-287z" />
<glyph unicode="S" horiz-adv-x="1251" d="M35 459h295q5 -242 262 -242q105 0 175.5 47t70.5 133q0 82 -56.5 129.5t-240.5 120.5q-71 28 -124 55.5t-101.5 64.5t-79 78.5t-48.5 97t-18 120.5q0 111 42 198t114.5 139.5t164.5 79.5t197 27q83 0 153 -13t120 -32.5t90.5 -50.5t66.5 -60t45.5 -69t28.5 -68t15.5 -67 t7.5 -57t2 -46h-295q0 42 -11 76.5t-37 65.5t-75.5 49t-118.5 18q-94 0 -154.5 -42.5t-60.5 -123.5q0 -43 17.5 -71t80 -64t189.5 -84q192 -73 286.5 -178t94.5 -264q0 -217 -143.5 -340t-409.5 -123q-252 0 -398.5 124.5t-146.5 371.5z" />
<glyph unicode="T" d="M123 1217l47 253h1042l-47 -253h-346l-221 -1217h-307l221 1217h-389z" />
<glyph unicode="U" horiz-adv-x="1478" d="M121 418q0 80 26 235l142 817h307l-150 -852q-20 -126 -20 -172q0 -55 17.5 -97.5t44 -66t62.5 -38.5t66.5 -20t61.5 -5q78 0 135.5 26.5t90.5 60.5t59.5 104.5t37 119t27.5 142.5l148 798h305l-162 -892q-30 -162 -75.5 -272t-123.5 -189.5t-193.5 -116.5t-279.5 -37 q-74 0 -147.5 17t-142 54t-121 89t-84 128.5t-31.5 166.5z" />
<glyph unicode="V" horiz-adv-x="1251" d="M150 1470h303l120 -1048l451 1048h328l-690 -1470h-291z" />
<glyph unicode="W" horiz-adv-x="1820" d="M186 1470h295l19 -1015l385 1015h309l20 -1007l381 1007h312l-631 -1470h-285l-14 1085l-414 -1085h-276z" />
<glyph unicode="X" horiz-adv-x="1251" d="M-43 0l522 774l-319 696h325l189 -432l289 432h352l-494 -727l342 -743h-329l-220 477l-309 -477h-348z" />
<glyph unicode="Y" horiz-adv-x="1251" d="M133 1470h328l211 -587l323 587h334l-532 -913l-95 -557h-307l99 569z" />
<glyph unicode="Z" horiz-adv-x="1251" d="M0 0l39 238l815 981h-664l46 251h1044l-31 -223l-813 -991h699l-41 -256h-1094z" />
<glyph unicode="[" horiz-adv-x="796" d="M14 -356l324 1826h491l-34 -200h-226l-252 -1426h218l-35 -200h-486z" />
<glyph unicode="\" horiz-adv-x="569" d="M-59 1507h221l467 -1544h-221z" />
<glyph unicode="]" horiz-adv-x="796" d="M-55 -356l35 200h225l252 1426h-217l34 200h486l-324 -1826h-491z" />
<glyph unicode="^" horiz-adv-x="1228" d="M164 702l368 768h205l369 -768h-223l-248 539l-248 -539h-223z" />
<glyph unicode="_" horiz-adv-x="1024" d="M0 -154h1024v-102h-1024v102z" />
<glyph unicode="`" horiz-adv-x="569" d="M41 1546h309l178 -295h-200z" />
<glyph unicode="a" d="M29 295q0 168 109 263.5t337 119.5l100 10q94 9 136.5 29.5t42.5 77.5q0 114 -170 114q-149 0 -168 -121h-281q22 155 150.5 244.5t324.5 89.5q200 0 313 -84.5t113 -228.5q0 -52 -14 -131l-86 -485q-8 -41 -8 -87q0 -55 33 -88v-18h-304v119h-4q-41 -69 -118.5 -110.5 t-176.5 -41.5q-145 0 -237 87t-92 241zM311 326q0 -64 37.5 -96.5t100.5 -32.5q105 0 178 79.5t80 231.5q-32 -8 -92.5 -15.5t-107.5 -15.5t-95 -24t-74.5 -47.5t-26.5 -79.5z" />
<glyph unicode="b" horiz-adv-x="1251" d="M25 0l266 1470h287l-105 -532q60 85 132.5 132.5t176.5 47.5q85 0 152.5 -27t111 -72t72.5 -107t41 -128.5t12 -140.5q0 -95 -21 -189.5t-64.5 -181.5t-104.5 -154t-148 -107t-188 -40q-131 0 -215 76t-96 191l-35 -238h-274zM393 459q0 -107 52.5 -175.5t154.5 -68.5 q69 0 122.5 39t82.5 93.5t48 121t24.5 112t5.5 76.5q0 102 -55 168t-152 66q-57 0 -104.5 -27t-77 -70.5t-50.5 -92.5t-31.5 -100t-15 -85.5t-4.5 -56.5z" />
<glyph unicode="c" d="M45 485q0 89 17.5 174.5t60.5 170.5t106.5 149t164.5 103.5t227 39.5t228 -46t166.5 -141t69.5 -226h-294q-13 184 -191 184q-124 0 -198 -120.5t-74 -315.5q0 -115 53 -187.5t151 -72.5q89 0 148.5 54t87.5 136h289q-33 -188 -170 -304t-340 -116q-245 0 -373.5 135 t-128.5 383z" />
<glyph unicode="d" horiz-adv-x="1251" d="M43 432q0 73 13.5 150.5t40 155.5t70 147t99 122.5t132 85t163.5 31.5q67 0 122 -21.5t87 -52.5t54.5 -66.5t31 -61t8.5 -39.5l109 587h289l-267 -1470h-260l45 207q-61 -116 -146 -177t-224 -61q-75 0 -137.5 26.5t-104.5 71.5t-70.5 105t-41.5 125.5t-13 134.5z M334 440q0 -59 14.5 -103.5t36 -70t50 -41.5t52.5 -21t48 -5q58 0 107 28t80.5 73.5t53.5 103.5t31.5 116.5t9.5 114.5q0 106 -47.5 174t-148.5 68q-67 0 -120 -35t-83.5 -86t-50 -114.5t-26.5 -113t-7 -88.5z" />
<glyph unicode="e" d="M35 496q0 85 21 171t67.5 168.5t112 146t162 102t210.5 38.5q76 0 144.5 -18t128.5 -58t103.5 -98.5t69 -144.5t25.5 -191q0 -96 -16 -168h-741q-5 -30 -5 -59q0 -77 52.5 -132.5t152.5 -55.5q65 0 117 32t78 80h317q-21 -67 -64 -126.5t-107 -108.5t-156 -78t-199 -29 q-223 0 -348 141t-125 388zM342 645h455v41q0 39 -11.5 74.5t-35.5 66t-65.5 48.5t-96.5 18q-104 0 -166.5 -72.5t-79.5 -175.5z" />
<glyph unicode="f" horiz-adv-x="681" d="M51 2l160 887h-154l37 201h156q25 145 49.5 217t77.5 118q94 82 258 82q33 0 121 -14l-35 -227q-44 14 -70 14q-50 0 -70.5 -24.5t-29.5 -71.5q-5 -18 -11 -51.5t-8 -42.5h160l-35 -201h-161l-160 -887h-285z" />
<glyph unicode="g" horiz-adv-x="1251" d="M-4 -102h295q14 -123 172 -123q82 0 132.5 36t86 125.5t61.5 253.5q-110 -190 -303 -190q-84 0 -151 25.5t-111.5 69.5t-74.5 105.5t-43 131t-13 149.5q0 86 20 174.5t62.5 172.5t101.5 149.5t143.5 105t182.5 39.5q50 0 92.5 -10t72 -24.5t55.5 -38.5t41 -43t29.5 -49 t20.5 -45.5t15 -41.5l30 220h277l-184 -1020q-15 -86 -33 -148.5t-46.5 -123.5t-68.5 -101.5t-96.5 -72.5t-134.5 -47t-178 -15q-82 0 -151 15t-114.5 38t-80.5 55t-54.5 63t-32 64.5t-16 57t-4.5 43.5zM336 477q0 -112 48 -179t157 -67q74 0 129.5 40.5t85.5 105.5 t44.5 133.5t14.5 136.5q0 108 -52.5 169t-148.5 61q-56 0 -103 -26t-78.5 -68t-54 -95.5t-32.5 -107t-10 -103.5z" />
<glyph unicode="h" horiz-adv-x="1251" d="M16 0l271 1470h288l-108 -530q48 76 141 127t213 51q61 0 115.5 -17.5t99.5 -52t72 -92.5t27 -133q0 -87 -21 -207l-115 -616h-288l114 608q17 93 17 129q0 74 -41.5 107t-91.5 33q-126 0 -201.5 -85.5t-101.5 -236.5l-101 -555h-289z" />
<glyph unicode="i" horiz-adv-x="569" d="M29 0l196 1090h287l-197 -1090h-286zM260 1251l47 254h287l-47 -254h-287z" />
<glyph unicode="j" horiz-adv-x="569" d="M-168 -424l33 227q32 -8 47 -8q43 0 66 28.5t36 102.5l211 1164h287l-197 -1088q-18 -98 -36 -162.5t-47.5 -121t-70 -87.5t-99.5 -48t-140 -17q-38 0 -90 10zM260 1251l47 254h287l-47 -254h-287z" />
<glyph unicode="k" d="M18 0l267 1470h282l-141 -772l383 389h371l-447 -438l236 -649h-297l-162 479l-148 -145l-57 -334h-287z" />
<glyph unicode="l" horiz-adv-x="569" d="M27 0l264 1470h291l-267 -1470h-288z" />
<glyph unicode="m" horiz-adv-x="1820" d="M27 0l196 1090h260l-41 -187q25 38 57 72t76.5 69.5t102 56.5t119.5 21q112 0 177.5 -52t100.5 -148q53 70 84 98q111 104 268 104q26 0 56.5 -5.5t73.5 -25.5t76 -52t57 -92t24 -138q0 -50 -18 -160l-119 -651h-285l117 645q16 84 16 123q0 48 -33 80.5t-85 32.5 t-95 -24t-70.5 -60t-49.5 -86.5t-33.5 -93.5t-20.5 -91l-94 -526h-287l119 645q17 89 17 123q0 48 -33 80.5t-82 32.5q-104 -1 -172 -89t-96 -229l-103 -563h-280z" />
<glyph unicode="n" horiz-adv-x="1251" d="M16 0l197 1090h266l-45 -197q149 225 387 225q61 0 115.5 -17.5t99.5 -52t72 -92.5t27 -133q0 -87 -21 -207l-115 -616h-288l114 608q17 93 17 129q0 74 -41.5 107t-91.5 33q-126 0 -201.5 -85.5t-101.5 -236.5l-101 -555h-289z" />
<glyph unicode="o" horiz-adv-x="1251" d="M45 477q0 61 14 128t42.5 141t79 140t117.5 119.5t164.5 85t213.5 31.5q108 0 198.5 -31.5t159 -93t106.5 -160t38 -225.5q0 -61 -14 -128t-42.5 -141t-79 -140t-117.5 -119.5t-164.5 -85t-213.5 -31.5q-104 0 -194.5 33.5t-159.5 96t-108.5 160.5t-39.5 220zM340 473 q0 -133 62.5 -204.5t164.5 -71.5q132 0 224 115.5t92 303.5q0 132 -63 204.5t-165 72.5q-132 0 -223.5 -116t-91.5 -304z" />
<glyph unicode="p" horiz-adv-x="1251" d="M-47 -434l274 1524h258l-47 -207l4 -4q61 123 149.5 183t217.5 60q44 0 89.5 -11.5t97 -44t91 -81.5t65.5 -132.5t26 -188.5q0 -65 -11 -136t-34 -151.5t-65 -152t-97.5 -130t-138.5 -93t-181 -34.5q-124 0 -198.5 69t-96.5 165h-4l-114 -635h-285zM399 457 q0 -126 55.5 -187t145.5 -61q62 0 113 29t84 75.5t56 107t32.5 121.5t9.5 122q0 102 -57.5 165.5t-143.5 63.5q-55 0 -100.5 -21t-75.5 -53t-52.5 -76t-35 -85t-20 -84.5t-9.5 -70t-2 -46.5z" />
<glyph unicode="q" horiz-adv-x="1251" d="M18 453q0 95 21 189.5t65 181.5t105 153.5t148 106.5t188 40q131 0 215 -76t96 -190l33 232h274l-274 -1512h-287l115 580q-60 -86 -134.5 -133.5t-185.5 -47.5q-82 0 -147.5 27t-108 72t-71 107.5t-40.5 129t-12 140.5zM307 438q0 -102 55 -167.5t152 -65.5 q57 0 104.5 27t77 70.5t50.5 92.5t31.5 100t15 85.5t4.5 56.5q0 107 -52.5 175.5t-154.5 68.5q-69 0 -122.5 -39t-82.5 -93.5t-48 -121.5t-24.5 -112.5t-5.5 -76.5z" />
<glyph unicode="r" horiz-adv-x="796" d="M20 0l197 1090h264l-53 -222q94 150 165 201t189 51l35 -2l-43 -299q-6 1 -19 5t-22 6t-23 4t-28 2q-50 0 -87.5 -12.5t-76 -47t-69 -105t-52.5 -177.5l-86 -494h-291z" />
<glyph unicode="s" horiz-adv-x="1024" d="M29 367h270q4 -42 13.5 -72t29.5 -58t58.5 -42.5t93.5 -14.5q75 0 124.5 28.5t49.5 84.5q0 42 -30 71.5t-78.5 47.5t-106.5 34.5t-116.5 40.5t-107 58.5t-78.5 95.5t-30 143q0 65 26.5 124.5t77.5 108t132.5 77t183.5 28.5q111 0 194.5 -24t131 -60t77 -87.5t39.5 -96.5 t12 -98h-274q-15 83 -50.5 118t-133.5 35q-75 0 -110.5 -28.5t-35.5 -67.5q0 -35 30 -60.5t78.5 -43.5t107 -36.5t116.5 -46t106.5 -64.5t78.5 -99t30 -144q0 -69 -27.5 -130.5t-81.5 -112t-143.5 -80t-204.5 -29.5q-75 0 -139.5 12.5t-123 42t-100 74.5t-65.5 114t-24 157z " />
<glyph unicode="t" horiz-adv-x="681" d="M59 889l41 201h154l59 313h283l-57 -313h155l-35 -201h-159l-90 -524q-11 -80 -11 -84q0 -56 66 -56q27 0 65 9t43 10l-32 -234q-95 -26 -174 -26q-51 0 -95.5 10t-84 32.5t-62.5 65t-23 101.5q0 26 19 135l94 561h-156z" />
<glyph unicode="u" horiz-adv-x="1251" d="M72 266q0 93 20 207l115 617h289l-115 -609q-16 -88 -16 -129q0 -74 41.5 -106.5t91.5 -32.5q126 0 201.5 85.5t101.5 236.5l100 555h289l-197 -1090h-266l45 197q-150 -226 -387 -226q-61 0 -115.5 17.5t-99.5 52t-71.5 92.5t-26.5 133z" />
<glyph unicode="v" horiz-adv-x="1024" d="M80 1090h282l58 -771l321 771h308l-523 -1090h-311z" />
<glyph unicode="w" horiz-adv-x="1593" d="M70 1090h278l47 -764l289 764h295l35 -758l299 758h303l-500 -1090h-297l-37 780l-303 -780h-295z" />
<glyph unicode="x" horiz-adv-x="1024" d="M-41 0l387 543l-270 547h309l137 -326l197 326h315l-372 -549l276 -541h-311l-135 315l-197 -315h-336z" />
<glyph unicode="y" horiz-adv-x="1024" d="M10 -418l27 232q6 0 36 -3.5t46 -3.5q67 0 100 38.5t33 103.5q0 43 -12 129l-142 1012h285l70 -791h4l319 791h303l-575 -1215q-40 -85 -72 -137.5t-75 -94.5t-96 -59.5t-124 -17.5q-53 0 -127 16z" />
<glyph unicode="z" horiz-adv-x="1024" d="M4 0l37 215l532 643h-456l39 232h811l-33 -222l-541 -637h520l-43 -231h-866z" />
<glyph unicode="{" horiz-adv-x="796" d="M-29 463l31 188q25 0 55.5 6.5t66 20.5t62 43.5t33.5 69.5l72 413q22 132 110.5 199t216.5 67h207l-28 -172h-113q-37 0 -63.5 -12t-41 -34t-21 -41.5t-11.5 -45.5l-70 -395q-31 -167 -250 -211v-4q21 0 41.5 -2.5t47.5 -12t46.5 -25.5t33.5 -45t14 -67q0 -35 -9 -81 l-63 -363q-6 -30 -6 -61q0 -35 24.5 -58.5t75.5 -23.5h107l-29 -172h-211q-105 0 -171.5 50.5t-66.5 141.5q0 46 13 113l61 340q4 23 4 51q0 34 -18.5 60t-46.5 38.5t-54 18.5t-49 6z" />
<glyph unicode="|" horiz-adv-x="573" d="M172 -438v2048h229v-2048h-229z" />
<glyph unicode="}" horiz-adv-x="796" d="M-51 -356l28 172h113q37 0 63.5 12t41 34t21 41.5t11.5 45.5l70 395q31 167 250 211v4q-27 0 -53.5 5.5t-58 19.5t-51 47t-19.5 80q0 41 8 82l63 362q6 30 6 62q0 35 -24.5 58t-75.5 23h-106l28 172h211q105 0 171.5 -50.5t66.5 -141.5q0 -46 -13 -113l-61 -340 q-4 -23 -4 -51q0 -34 18.5 -60t46.5 -38.5t54 -18.5t49 -6l-31 -188q-25 0 -55.5 -6.5t-66 -20.5t-62 -43t-33.5 -69l-72 -414q-22 -132 -110.5 -199t-216.5 -67h-207z" />
<glyph unicode="~" horiz-adv-x="1228" d="M141 526q92 176 256 176q83 0 228 -65q8 -3 44 -19t49 -21.5t39 -15t43.5 -13t33.5 -3.5q29 0 55 11.5t49 35.5t38.5 44.5t37.5 54.5l73 -199q-23 -32 -38.5 -52t-41 -46.5t-49.5 -41t-57 -25.5t-70 -11q-85 0 -208 67q-125 70 -236 70q-61 0 -101.5 -40.5t-70.5 -106.5z " />
<glyph unicode="&#xa1;" horiz-adv-x="681" d="M102 -381l80 375l230 688h151l-65 -688l-80 -375h-316zM362 801l62 289h299l-61 -289h-300z" />
<glyph unicode="&#xa2;" d="M45 485q0 89 17.5 174.5t60.5 170.5t106.5 149t164.5 103.5t227 39.5q21 0 61 -4l57 187h113l-64 -207q131 -40 211 -139.5t86 -249.5h-294q-6 105 -74 153l-205 -661q12 -4 39 -4q153 0 217 190h289q-33 -188 -170 -304t-340 -116q-61 0 -105 8l-65 -211h-117l74 238 q-142 51 -215.5 174t-73.5 309zM328 457q0 -156 80 -217l202 651q-2 2 -10 2q-124 0 -198 -120.5t-74 -315.5z" />
<glyph unicode="&#xa3;" d="M43 180q56 40 90 70.5t65.5 71.5t45.5 91t14 113q0 51 -12 105h-191l21 143h145q-24 94 -24 205q0 229 131.5 355t363.5 126q80 0 152.5 -22t133 -66t96.5 -118.5t36 -170.5q0 -43 -8 -98h-262q0 5 4 34t4 40q0 87 -42.5 136.5t-129.5 49.5q-100 0 -154.5 -71.5 t-54.5 -178.5q0 -43 14.5 -119t16.5 -102h313l-23 -143h-280q0 -123 -38 -211.5t-142 -192.5v-4q115 21 166 21q52 0 142 -23.5t134 -23.5q22 0 43.5 3t35 5.5t37 12t30.5 12.5t37 18l36 18l-37 -237q-107 -58 -209 -58q-75 0 -208.5 43t-208.5 43q-67 0 -142 -32t-108 -58z " />
<glyph unicode="&#xa4;" d="M25 291l200 201q-63 102 -63 239q0 65 18 129t45 107l-200 200l135 136l200 -201q108 67 240 67q139 0 240 -67l200 201l136 -136l-201 -200q67 -101 67 -236q0 -138 -67 -239l201 -201l-136 -135l-200 200q-101 -67 -240 -67q-132 0 -240 67l-200 -200zM391 731 q0 -99 58 -165t151 -66q94 0 153.5 66.5t59.5 164.5t-59.5 162.5t-153.5 64.5t-151.5 -64.5t-57.5 -162.5z" />
<glyph unicode="&#xa5;" d="M51 430l25 123h354l-49 154h-272l24 122h207l-193 601h308l170 -603l407 603h291l-432 -601h213l-25 -122h-276l-111 -154h355l-25 -123h-356l-91 -430h-260l91 430h-355z" />
<glyph unicode="&#xa6;" horiz-adv-x="573" d="M172 -182v512h229v-512h-229zM172 842v512h229v-512h-229z" />
<glyph unicode="&#xa7;" d="M63 6h254q19 -149 164 -149q69 0 112.5 35.5t43.5 101.5q0 30 -15.5 52.5t-56.5 55.5l-309 246q-156 124 -156 279q0 119 73 196t196 101q-105 105 -105 219q0 45 12.5 91.5t44 96.5t79 88t125 63t173.5 25q178 0 277.5 -91.5t99.5 -241.5v-41h-254v16q0 68 -38 106.5 t-107 38.5q-55 0 -98 -32t-43 -86t45 -93l327 -266q168 -135 168 -305q0 -210 -262 -295q94 -84 94 -213q0 -65 -31 -128.5t-86 -115.5t-140.5 -84t-186.5 -32q-110 0 -198.5 33.5t-145 108t-56.5 179.5v41zM371 670q0 -60 86 -125l241 -193q107 49 107 119q0 69 -78 133 l-240 197q-58 -24 -87 -53.5t-29 -77.5z" />
<glyph unicode="&#xa8;" horiz-adv-x="569" d="M31 1251l43 242h268l-43 -242h-268zM432 1251l43 242h268l-43 -242h-268z" />
<glyph unicode="&#xa9;" horiz-adv-x="1638" d="M68 735q0 157 61 300t164.5 246.5t246.5 164.5t300 61t300 -61t246.5 -164.5t164.5 -246.5t61 -300t-61 -300t-164.5 -246.5t-246.5 -164.5t-300 -61t-300 61t-246.5 164.5t-164.5 246.5t-61 300zM281 735q0 -174 75 -311t202 -211t282 -74q114 0 216 43.5t178 120.5 t120.5 189.5t44.5 242.5q0 131 -44.5 243.5t-120.5 189t-178 120t-216 43.5q-155 0 -282 -73.5t-202 -210.5t-75 -312zM444 743q0 118 34 209.5t91.5 145t127.5 81t149 27.5q82 0 149 -21.5t108.5 -54.5t70.5 -76t41.5 -82t15.5 -77h-184q-6 22 -11 36t-20 38.5t-35 39.5 t-55 26.5t-80 11.5q-24 0 -49 -6t-56.5 -26t-55 -51.5t-40 -88.5t-16.5 -132q0 -142 58 -222.5t159 -80.5q44 0 79 12.5t54.5 28.5t35.5 42.5t21.5 41.5t12.5 39h182q-28 -159 -130.5 -241t-248.5 -82q-194 0 -301 124t-107 338z" />
<glyph unicode="&#xaa;" horiz-adv-x="757" d="M260 1012q19 92 88 146t166 67l172 22q21 3 33.5 6t26 13.5t16.5 27.5q4 19 -1.5 33t-15.5 21t-28 11t-30.5 4.5t-31.5 0.5q-61 0 -90 -23.5t-43 -60.5h-178q23 72 62 120t91.5 70.5t101 30.5t110.5 8q34 0 67 -4t70 -16.5t62 -32.5t37.5 -55.5t2.5 -81.5l-76 -354 q-19 -90 23 -101l-6 -26h-201q-5 35 0 77q-34 -27 -60.5 -44t-78.5 -33.5t-111 -16.5q-89 0 -143.5 48.5t-34.5 142.5zM455 1022q-8 -39 13 -57.5t54 -18.5q65 0 123.5 36t71.5 93l16 82q-39 -23 -135 -35q-62 -9 -97.5 -30.5t-45.5 -69.5z" />
<glyph unicode="&#xab;" d="M100 473l41 203l410 289l-49 -242l-246 -172l178 -180l-45 -217zM539 473l41 203l409 289l-49 -242l-246 -172l178 -180l-45 -217z" />
<glyph unicode="&#xac;" horiz-adv-x="1228" d="M96 629v229h1037v-680h-230v451h-807z" />
<glyph unicode="&#xad;" horiz-adv-x="681" d="M47 440l39 267h502l-37 -267h-504z" />
<glyph unicode="&#xae;" horiz-adv-x="1003" d="M117 1120q0 160 112.5 273.5t272.5 113.5t273.5 -113.5t113.5 -273.5t-113.5 -272.5t-273.5 -112.5t-272.5 112.5t-112.5 272.5zM223 1120q0 -133 80 -216t199 -83q118 0 199 83.5t81 215.5q0 134 -81 217.5t-199 83.5q-119 0 -199 -83.5t-80 -217.5zM340 918v403h207 q39 0 66.5 -12t40 -31t17.5 -36t5 -34q0 -34 -16.5 -61t-45.5 -37q29 -12 40.5 -31t11.5 -71q0 -49 2.5 -62.5t15.5 -17.5v-10h-94q-10 23 -10 79q0 45 -11.5 60.5t-54.5 15.5h-88v-155h-86zM426 1143h98q35 0 50.5 12.5t15.5 42.5q0 53 -60 53h-104v-108z" />
<glyph unicode="&#xaf;" horiz-adv-x="569" d="M27 1296l22 152h694l-22 -152h-694z" />
<glyph unicode="&#xb0;" horiz-adv-x="819" d="M117 1169q0 121 85.5 207t207.5 86q121 0 206.5 -85.5t85.5 -207.5q0 -121 -85 -206.5t-207 -85.5t-207.5 85.5t-85.5 206.5zM231 1169q0 -73 52.5 -125.5t126.5 -52.5t126 52.5t52 125.5q0 74 -52.5 126.5t-125.5 52.5q-74 0 -126.5 -53t-52.5 -126z" />
<glyph unicode="&#xb1;" horiz-adv-x="1228" d="M96 0v229h1037v-229h-1037zM96 551v229h404v256h229v-256h404v-229h-404v-258h-229v258h-404z" />
<glyph unicode="&#xb2;" horiz-adv-x="681" d="M141 580q13 47 27.5 81t45 81t83.5 93t129 91q167 98 223 144t70 114q0 2 2 5.5t2 4.5q7 36 -19 67t-83 31q-37 0 -66.5 -11.5t-46 -26t-29 -38.5t-17 -38t-9.5 -35h-181q17 81 54.5 141.5t78.5 91.5t91.5 50t84 23.5t66.5 4.5q140 0 215.5 -74t48.5 -202 q-39 -178 -239 -285q-185 -100 -230 -145h381l-37 -168h-645z" />
<glyph unicode="&#xb3;" horiz-adv-x="681" d="M188.5 771.5q0.5 34.5 8.5 74.5h182q-29 -137 108 -137q132 0 158 127q7 34 -1.5 57.5t-24 35.5t-45.5 18.5t-51.5 7.5t-55.5 1l29 131h30q19 0 30.5 0.5t32.5 3.5t35.5 10t30.5 18.5t26.5 31t16.5 45.5q20 104 -88 104q-44 0 -76 -15.5t-47.5 -40t-21 -40t-8.5 -30.5 h-174q27 128 122.5 204t249.5 76q51 0 97 -13t85.5 -39.5t56.5 -76t3 -115.5q-14 -64 -57 -107.5t-92 -60.5v-4q10 -2 20.5 -7t25.5 -15.5t26 -25t21 -37t10.5 -51t-5.5 -66.5q-26 -123 -132.5 -202t-248.5 -79q-16 0 -31 1t-36.5 3t-41 7.5t-41 13t-39.5 19.5t-35 27 t-28.5 37t-18 48t-6 60.5z" />
<glyph unicode="&#xb4;" horiz-adv-x="569" d="M238 1251l208 295h326l-330 -295h-204z" />
<glyph unicode="&#xb5;" horiz-adv-x="1228" d="M-72 -432l303 1425h232l-94 -438q-31 -159 -31 -215q0 -166 166 -166q45 0 83.5 14t66 35t51 55.5t38.5 63.5t28.5 72.5t20 70t15.5 66.5l94 444h232l-213 -995h-201l29 129q-58 -72 -117 -109.5t-156 -37.5q-47 0 -83 9t-61 27.5t-37 32t-28 35.5l-108 -518h-230z" />
<glyph unicode="&#xb6;" horiz-adv-x="1251" d="M129 1102q17 85 55.5 149.5t90 105.5t122 67t144.5 36t164 10h620l-371 -1789h-229l336 1615h-207l-336 -1615h-229l221 1067q-216 0 -315.5 94t-65.5 260z" />
<glyph unicode="&#xb7;" horiz-adv-x="569" d="M100 451l60 307h309l-59 -307h-310z" />
<glyph unicode="&#xb8;" horiz-adv-x="681" d="M-76 -416l66 99q101 -33 151 -33q36 0 71 22t42 58q7 34 -12 53.5t-52 19.5q-28 0 -86 -16l-34 41l153 172h117l-102 -113q40 9 63 9q25 0 51 -7.5t52.5 -24t38.5 -50t3 -78.5q-20 -90 -102 -146.5t-194 -56.5q-58 0 -103 10t-123 41z" />
<glyph unicode="&#xb9;" horiz-adv-x="681" d="M303 1176l27 127h26q122 0 185 45t80 106h174l-187 -874h-207l127 596h-225z" />
<glyph unicode="&#xba;" horiz-adv-x="747" d="M252 1084.5q-2 40.5 8 80.5q13 62 46.5 121t85.5 110t131.5 82t172.5 31q63 0 114 -14.5t84 -39.5t56.5 -58.5t32 -72t10.5 -79.5t-8 -80q-13 -62 -46.5 -121t-85.5 -110t-131.5 -82t-172.5 -31q-63 0 -114 14.5t-84 39.5t-56.5 58.5t-32 72t-10.5 79zM461 1165 q-18 -83 14 -139.5t107 -56.5t129.5 56t72.5 140q18 83 -13.5 140t-106.5 57t-130 -56.5t-73 -140.5z" />
<glyph unicode="&#xbb;" d="M100 154l50 241l245 172l-178 181l45 217l289 -320l-41 -203zM539 154l49 241l246 172l-179 181l45 217l289 -320l-41 -203z" />
<glyph unicode="&#xbc;" horiz-adv-x="1708" d="M270 -39l1194 1493h160l-1192 -1493h-162zM303 1176l27 127h26q122 0 185 45t80 106h174l-187 -874h-207l127 596h-225zM936 184l33 152l461 532h221l-115 -542h102l-30 -142h-103l-39 -184h-194l39 184h-375zM1112 322h236q19 90 40 180t31.5 136.5t12.5 57.5h-5z" />
<glyph unicode="&#xbd;" horiz-adv-x="1708" d="M270 -39l1194 1493h160l-1192 -1493h-162zM303 1176l27 127h26q122 0 185 45t80 106h174l-187 -874h-207l127 596h-225zM981 0q13 47 27.5 81t45 81t83.5 93t129 91q167 98 223 144t70 114q0 2 2 5.5t2 4.5q7 36 -19.5 67.5t-83.5 31.5q-37 0 -66.5 -12t-45.5 -25.5 t-30 -39.5t-17.5 -37.5t-10.5 -35.5h-180q13 59 36 107t50.5 79.5t61.5 55.5t64.5 36.5t64 20.5t56 10t44.5 2q140 0 215.5 -74t48.5 -202q-39 -178 -240 -285q-179 -96 -231 -145h381l-35 -168h-645z" />
<glyph unicode="&#xbe;" horiz-adv-x="1708" d="M204.5 771.5q0.5 34.5 8.5 74.5h182q-4 -17 -5 -32.5t3 -35.5t15.5 -34.5t35.5 -24.5t60 -10q132 0 158 127q7 34 -1.5 57.5t-24.5 35.5t-46 18.5t-51.5 7.5t-55.5 1l29 131h31q19 0 30.5 0.5t32.5 3.5t35.5 10t30.5 18.5t26.5 31t16.5 45.5q20 104 -88 104 q-36 0 -64.5 -11.5t-43.5 -26t-26 -34.5t-14.5 -31.5t-5.5 -22.5h-174q27 128 122.5 204t250.5 76q51 0 97 -13t85 -39.5t56 -76t3 -115.5q-14 -64 -57 -107.5t-92 -60.5v-4q10 -2 20.5 -7t25.5 -15.5t26 -25t21 -37t10.5 -51t-5.5 -66.5q-26 -123 -132.5 -202t-248.5 -79 q-16 0 -31 1t-36.5 3t-41 7.5t-41 13t-39.5 19.5t-35 27t-28.5 37t-18 48t-6 60.5zM360 -39l1194 1493h160l-1192 -1493h-162zM1004 184l32 152l461 532h221l-114 -542h102l-31 -142h-102l-39 -184h-195l39 184h-374zM1180 326h229q18 89 38 177.5t30.5 133t11.5 51.5h-4z " />
<glyph unicode="&#xbf;" horiz-adv-x="1251" d="M121 37q25 117 102.5 201t225.5 176q83 51 119.5 98.5t58.5 151.5h270q-18 -82 -34.5 -130.5t-48.5 -100t-82.5 -93.5t-131.5 -92q-148 -89 -170 -203q-10 -60 -2.5 -99t35 -62.5t58 -32.5t65.5 -9q53 0 96 16t69.5 38.5t49 58t33 61.5t22.5 62v2h289 q-22 -103 -69.5 -186t-107.5 -136.5t-132.5 -90t-142.5 -51.5t-140 -15q-50 0 -102 6t-126.5 32.5t-125.5 70t-76.5 128.5t-1.5 199zM635 801l61 289h299l-61 -289h-299z" />
<glyph unicode="&#xc0;" horiz-adv-x="1478" d="M41 0l838 1470h354l205 -1470h-334l-31 303h-543l-165 -303h-324zM668 557h374l-59 582h-4zM760 1917h315l129 -299h-207z" />
<glyph unicode="&#xc1;" horiz-adv-x="1478" d="M41 0l838 1470h354l205 -1470h-334l-31 303h-543l-165 -303h-324zM668 557h374l-59 582h-4zM965 1618l256 299h315l-365 -299h-206z" />
<glyph unicode="&#xc2;" horiz-adv-x="1478" d="M41 0l838 1470h354l205 -1470h-334l-31 303h-543l-165 -303h-324zM668 557h374l-59 582h-4zM723 1618l297 299h256l170 -299h-232l-96 168l-164 -168h-231z" />
<glyph unicode="&#xc3;" horiz-adv-x="1478" d="M41 0l838 1470h354l205 -1470h-334l-31 303h-543l-165 -303h-324zM668 557h374l-59 582h-4zM711 1630q36 93 92 156q92 96 209 96q33 0 59 -8t80 -31q86 -35 121 -35q79 0 112 82h134q-9 -25 -21 -49.5t-37 -62.5t-53.5 -65t-72 -47.5t-91.5 -20.5q-56 0 -149 32 q-18 6 -51.5 18.5t-52 17.5t-34.5 5q-76 0 -114 -88h-131z" />
<glyph unicode="&#xc4;" horiz-adv-x="1478" d="M41 0l838 1470h354l205 -1470h-334l-31 303h-543l-165 -303h-324zM668 557h374l-59 582h-4zM760 1638l49 236h258l-49 -236h-258zM1159 1638l49 236h258l-49 -236h-258z" />
<glyph unicode="&#xc5;" horiz-adv-x="1478" d="M41 0l838 1470h354l205 -1470h-334l-31 303h-543l-165 -303h-324zM668 557h374l-59 582h-4zM893 1757q21 92 102.5 152.5t163.5 60.5q52 0 97 -25.5t69 -76t10 -111.5q-19 -92 -101.5 -152.5t-164.5 -60.5t-138.5 60.5t-37.5 152.5zM1008 1757q-9 -44 15.5 -75t68.5 -31 t82 31t47 75q10 44 -15 75.5t-69 31.5t-81 -31t-48 -76z" />
<glyph unicode="&#xc6;" horiz-adv-x="2048" d="M10 0l850 1470h1393l-55 -260h-760l-66 -309h684l-55 -260h-684l-82 -381h774l-55 -260h-1075l67 313h-440l-174 -313h-322zM637 555h360l140 655h-133z" />
<glyph unicode="&#xc7;" horiz-adv-x="1478" d="M237 331.5q-41 165.5 9 401.5q32 151 93 277.5t141 218t178.5 155t206.5 94.5t222 31q127 0 226 -33.5t158 -87t95 -123t45.5 -139t0.5 -137.5h-307q-2 26 -3.5 42.5t-8.5 46t-17.5 49t-31 43.5t-48 38.5t-70 24.5t-94.5 10q-48 0 -97.5 -13t-107 -48.5t-106.5 -91 t-93 -149t-69 -212.5q-18 -81 -20.5 -153.5t12 -137t46.5 -111t88 -73.5t132 -27q128 0 228 71.5t155 205.5h307q-98 -242 -280 -386.5t-436 -154.5l-70 -76q40 9 63 9q25 0 51 -7.5t53 -24t39 -50t3 -78.5q-20 -90 -102.5 -146.5t-194.5 -56.5q-58 0 -102.5 10t-122.5 41 l65 99q101 -33 152 -33q36 0 70.5 22t41.5 58q7 34 -11.5 53.5t-51.5 19.5q-28 0 -86 -16l-35 41l119 137q-172 18 -283 109.5t-152 257z" />
<glyph unicode="&#xc8;" horiz-adv-x="1366" d="M156 0l313 1470h1081l-55 -260h-780l-66 -309h717l-55 -260h-717l-82 -381h815l-55 -260h-1116zM702 1917h316l129 -299h-207z" />
<glyph unicode="&#xc9;" horiz-adv-x="1366" d="M156 0l313 1470h1081l-55 -260h-780l-66 -309h717l-55 -260h-717l-82 -381h815l-55 -260h-1116zM907 1618l256 299h316l-365 -299h-207z" />
<glyph unicode="&#xca;" horiz-adv-x="1366" d="M156 0l313 1470h1081l-55 -260h-780l-66 -309h717l-55 -260h-717l-82 -381h815l-55 -260h-1116zM666 1618l297 299h256l170 -299h-232l-96 168l-164 -168h-231z" />
<glyph unicode="&#xcb;" horiz-adv-x="1366" d="M156 0l313 1470h1081l-55 -260h-780l-66 -309h717l-55 -260h-717l-82 -381h815l-55 -260h-1116zM702 1638l50 236h258l-49 -236h-259zM1102 1638l49 236h258l-49 -236h-258z" />
<glyph unicode="&#xcc;" horiz-adv-x="569" d="M131 0l313 1470h308l-314 -1470h-307zM305 1917h316l129 -299h-207z" />
<glyph unicode="&#xcd;" horiz-adv-x="569" d="M131 0l313 1470h308l-314 -1470h-307zM510 1618l256 299h315l-364 -299h-207z" />
<glyph unicode="&#xce;" horiz-adv-x="569" d="M131 0l313 1470h308l-314 -1470h-307zM268 1618l297 299h256l170 -299h-231l-96 168l-164 -168h-232z" />
<glyph unicode="&#xcf;" horiz-adv-x="569" d="M131 0l313 1470h308l-314 -1470h-307zM305 1638l49 236h258l-49 -236h-258zM705 1638l49 236h258l-49 -236h-258z" />
<glyph unicode="&#xd0;" horiz-adv-x="1478" d="M127 647l55 254h166l121 569h649q103 0 184 -24.5t132.5 -65t86.5 -98.5t50.5 -119.5t18.5 -132.5t-3 -133.5t-20 -126.5q-15 -71 -38.5 -142t-60 -148.5t-81.5 -145.5t-107 -130t-133 -106.5t-162 -71t-192 -26.5h-637l137 647h-166zM510 254h299q90 0 166.5 42.5 t129 115t88.5 156.5t56 180q19 90 22 162.5t-6 120.5t-30.5 83.5t-46 54.5t-58 30.5t-60.5 14.5t-60 3h-295l-66 -316h340l-55 -254h-340z" />
<glyph unicode="&#xd1;" horiz-adv-x="1478" d="M141 0l314 1470h323l365 -1024h4l219 1024h287l-314 -1470h-307l-377 1049h-4l-223 -1049h-287zM711 1630q36 93 92 156q92 96 209 96q33 0 59 -8t80 -31q86 -35 121 -35q79 0 112 82h134q-9 -25 -21 -49.5t-37 -62.5t-53.5 -65t-72 -47.5t-91.5 -20.5q-56 0 -149 32 q-18 6 -51.5 18.5t-52 17.5t-34.5 5q-76 0 -114 -88h-131z" />
<glyph unicode="&#xd2;" horiz-adv-x="1593" d="M220.5 526.5q2.5 96.5 25.5 208.5q30 142 84.5 259.5t118 196t141.5 138.5t149 93t147 53.5t129.5 27t102.5 6.5q37 0 75 -3.5t88.5 -14.5t96.5 -29t94 -49t86.5 -71t69 -99.5t45.5 -131t12.5 -168t-26.5 -208.5q-30 -142 -84 -259.5t-117.5 -196t-141.5 -138.5t-149 -93 t-147 -53.5t-129.5 -27t-102.5 -6.5q-37 0 -75 3.5t-88.5 14.5t-96.5 29t-94 49t-86 71t-69 99.5t-46 131t-12.5 168zM533.5 577q-1.5 -72 10.5 -124t35.5 -93t53 -66.5t66 -42.5t72 -23.5t73.5 -6.5q54 0 108.5 13.5t117 49.5t114.5 91.5t97.5 148.5t70.5 211q18 86 20 158 t-9.5 124t-35 93t-53 66.5t-66 42.5t-72 23.5t-73.5 6.5q-54 0 -108.5 -13.5t-117 -49.5t-115 -91.5t-98.5 -148.5t-71 -211q-18 -86 -19.5 -158zM817 1917h316l129 -299h-207z" />
<glyph unicode="&#xd3;" horiz-adv-x="1593" d="M220.5 526.5q2.5 96.5 25.5 208.5q30 142 84.5 259.5t118 196t141.5 138.5t149 93t147 53.5t129.5 27t102.5 6.5q37 0 75 -3.5t88.5 -14.5t96.5 -29t94 -49t86.5 -71t69 -99.5t45.5 -131t12.5 -168t-26.5 -208.5q-30 -142 -84 -259.5t-117.5 -196t-141.5 -138.5t-149 -93 t-147 -53.5t-129.5 -27t-102.5 -6.5q-37 0 -75 3.5t-88.5 14.5t-96.5 29t-94 49t-86 71t-69 99.5t-46 131t-12.5 168zM533.5 577q-1.5 -72 10.5 -124t35.5 -93t53 -66.5t66 -42.5t72 -23.5t73.5 -6.5q54 0 108.5 13.5t117 49.5t114.5 91.5t97.5 148.5t70.5 211q18 86 20 158 t-9.5 124t-35 93t-53 66.5t-66 42.5t-72 23.5t-73.5 6.5q-54 0 -108.5 -13.5t-117 -49.5t-115 -91.5t-98.5 -148.5t-71 -211q-18 -86 -19.5 -158zM1022 1618l256 299h315l-364 -299h-207z" />
<glyph unicode="&#xd4;" horiz-adv-x="1593" d="M220.5 526.5q2.5 96.5 25.5 208.5q30 142 84.5 259.5t118 196t141.5 138.5t149 93t147 53.5t129.5 27t102.5 6.5q37 0 75 -3.5t88.5 -14.5t96.5 -29t94 -49t86.5 -71t69 -99.5t45.5 -131t12.5 -168t-26.5 -208.5q-30 -142 -84 -259.5t-117.5 -196t-141.5 -138.5t-149 -93 t-147 -53.5t-129.5 -27t-102.5 -6.5q-37 0 -75 3.5t-88.5 14.5t-96.5 29t-94 49t-86 71t-69 99.5t-46 131t-12.5 168zM533.5 577q-1.5 -72 10.5 -124t35.5 -93t53 -66.5t66 -42.5t72 -23.5t73.5 -6.5q54 0 108.5 13.5t117 49.5t114.5 91.5t97.5 148.5t70.5 211q18 86 20 158 t-9.5 124t-35 93t-53 66.5t-66 42.5t-72 23.5t-73.5 6.5q-54 0 -108.5 -13.5t-117 -49.5t-115 -91.5t-98.5 -148.5t-71 -211q-18 -86 -19.5 -158zM780 1618l297 299h256l170 -299h-231l-96 168l-164 -168h-232z" />
<glyph unicode="&#xd5;" horiz-adv-x="1593" d="M220.5 526.5q2.5 96.5 25.5 208.5q30 142 84.5 259.5t118 196t141.5 138.5t149 93t147 53.5t129.5 27t102.5 6.5q37 0 75 -3.5t88.5 -14.5t96.5 -29t94 -49t86.5 -71t69 -99.5t45.5 -131t12.5 -168t-26.5 -208.5q-30 -142 -84 -259.5t-117.5 -196t-141.5 -138.5t-149 -93 t-147 -53.5t-129.5 -27t-102.5 -6.5q-37 0 -75 3.5t-88.5 14.5t-96.5 29t-94 49t-86 71t-69 99.5t-46 131t-12.5 168zM533.5 577q-1.5 -72 10.5 -124t35.5 -93t53 -66.5t66 -42.5t72 -23.5t73.5 -6.5q54 0 108.5 13.5t117 49.5t114.5 91.5t97.5 148.5t70.5 211q18 86 20 158 t-9.5 124t-35 93t-53 66.5t-66 42.5t-72 23.5t-73.5 6.5q-54 0 -108.5 -13.5t-117 -49.5t-115 -91.5t-98.5 -148.5t-71 -211q-18 -86 -19.5 -158zM768 1630q36 93 92 156q92 96 209 96q33 0 59 -8t80 -31q86 -35 121 -35q80 0 113 82h133q-9 -25 -21 -49.5t-37 -62.5 t-53.5 -65t-72 -47.5t-91.5 -20.5q-56 0 -149 32q-19 6 -51.5 18.5t-51 17.5t-34.5 5q-77 0 -115 -88h-131z" />
<glyph unicode="&#xd6;" horiz-adv-x="1593" d="M220.5 526.5q2.5 96.5 25.5 208.5q30 142 84.5 259.5t118 196t141.5 138.5t149 93t147 53.5t129.5 27t102.5 6.5q37 0 75 -3.5t88.5 -14.5t96.5 -29t94 -49t86.5 -71t69 -99.5t45.5 -131t12.5 -168t-26.5 -208.5q-30 -142 -84 -259.5t-117.5 -196t-141.5 -138.5t-149 -93 t-147 -53.5t-129.5 -27t-102.5 -6.5q-37 0 -75 3.5t-88.5 14.5t-96.5 29t-94 49t-86 71t-69 99.5t-46 131t-12.5 168zM533.5 577q-1.5 -72 10.5 -124t35.5 -93t53 -66.5t66 -42.5t72 -23.5t73.5 -6.5q54 0 108.5 13.5t117 49.5t114.5 91.5t97.5 148.5t70.5 211q18 86 20 158 t-9.5 124t-35 93t-53 66.5t-66 42.5t-72 23.5t-73.5 6.5q-54 0 -108.5 -13.5t-117 -49.5t-115 -91.5t-98.5 -148.5t-71 -211q-18 -86 -19.5 -158zM817 1638l49 236h258l-49 -236h-258zM1217 1638l49 236h258l-49 -236h-258z" />
<glyph unicode="&#xd7;" horiz-adv-x="1196" d="M117 164l430 354l-279 354l195 162l280 -354l428 354l129 -162l-430 -354l281 -354l-199 -162l-278 354l-428 -354z" />
<glyph unicode="&#xd8;" horiz-adv-x="1593" d="M72 23l215 190q-110 197 -41 522q30 142 84.5 259.5t118 196t141.5 138.5t149 93t147 53.5t129.5 27t102.5 6.5q47 0 97 -7t111.5 -23.5t122 -51.5t107.5 -84l205 183l70 -78l-211 -188q109 -193 39 -525q-30 -142 -84 -259.5t-117.5 -196t-141.5 -138.5t-149 -93 t-147 -53.5t-129.5 -27t-102.5 -6.5q-48 0 -98 6.5t-111.5 23t-122.5 52t-108 86.5l-207 -184zM547 446l768 682q-83 121 -252 121q-54 0 -108.5 -13.5t-117 -49.5t-115 -91.5t-98.5 -148.5t-71 -211q-35 -173 -6 -289zM590 344q43 -64 111 -93.5t143 -29.5q54 0 108.5 13.5 t117 49.5t114.5 91.5t97.5 148.5t70.5 211q40 183 4 291z" />
<glyph unicode="&#xd9;" horiz-adv-x="1478" d="M252 496l209 974h313l-203 -954q-32 -146 26 -220.5t173 -74.5q298 0 356 281l207 968h314l-205 -956q-60 -282 -246.5 -417.5t-474.5 -135.5q-78 0 -150.5 13t-152.5 55t-127 110q-82 125 -39 357zM760 1917h315l129 -299h-207z" />
<glyph unicode="&#xda;" horiz-adv-x="1478" d="M252 496l209 974h313l-203 -954q-32 -146 26 -220.5t173 -74.5q298 0 356 281l207 968h314l-205 -956q-60 -282 -246.5 -417.5t-474.5 -135.5q-78 0 -150.5 13t-152.5 55t-127 110q-82 125 -39 357zM965 1618l256 299h315l-365 -299h-206z" />
<glyph unicode="&#xdb;" horiz-adv-x="1478" d="M252 496l209 974h313l-203 -954q-32 -146 26 -220.5t173 -74.5q298 0 356 281l207 968h314l-205 -956q-60 -282 -246.5 -417.5t-474.5 -135.5q-78 0 -150.5 13t-152.5 55t-127 110q-82 125 -39 357zM723 1618l297 299h256l170 -299h-232l-96 168l-164 -168h-231z" />
<glyph unicode="&#xdc;" horiz-adv-x="1478" d="M252 496l209 974h313l-203 -954q-32 -146 26 -220.5t173 -74.5q298 0 356 281l207 968h314l-205 -956q-60 -282 -246.5 -417.5t-474.5 -135.5q-78 0 -150.5 13t-152.5 55t-127 110q-82 125 -39 357zM760 1638l49 236h258l-49 -236h-258zM1159 1638l49 236h258l-49 -236 h-258z" />
<glyph unicode="&#xdd;" horiz-adv-x="1366" d="M344 1470h363l167 -639l429 639h348l-688 -919l-117 -551h-307l118 555zM907 1618l256 299h316l-365 -299h-207z" />
<glyph unicode="&#xde;" horiz-adv-x="1366" d="M156 0l313 1470h307l-43 -200h365q212 0 306 -128.5t48 -346.5q-6 -32 -19 -68t-36.5 -82.5t-54.5 -90t-77 -85.5t-99.5 -73.5t-126.5 -50.5t-154 -19h-353l-69 -326h-307zM586 580h284q65 0 115.5 18.5t77.5 42t47.5 60.5t26.5 57.5t12 50.5q23 108 -31 157.5t-196 49.5 h-244z" />
<glyph unicode="&#xdf;" horiz-adv-x="1251" d="M141 0l236 1104q17 79 60 148.5t111 125t168 87.5t220 32q24 0 47 -1t55 -4.5t60.5 -10.5t60.5 -17.5t58 -27t51 -38t41.5 -51.5t27 -66t10 -83.5t-11.5 -101.5q-19 -88 -76.5 -155.5t-128.5 -98.5q56 -28 93.5 -66t53.5 -74.5t20 -82.5t0.5 -78t-11.5 -72 q-16 -73 -46 -141.5t-81.5 -134.5t-118 -114.5t-160 -78t-202.5 -29.5q-35 0 -111 13l49 225q18 -2 58 -2q268 0 323 254q8 37 8 68.5t-5.5 54.5t-20 42t-28.5 31t-37.5 21.5t-41 15t-46 9.5t-45 5t-44.5 3l41 198q38 1 57.5 3t53 7t53.5 16.5t43 30.5t38 49.5t24 71.5 q6 26 6 48.5t-5 39.5t-12.5 30.5t-19.5 23t-23.5 16.5t-26.5 11t-26 7t-25 3.5t-20.5 1t-15.5 0.5q-31 0 -63 -9t-64.5 -29t-57.5 -57.5t-35 -87.5l-231 -1085h-287z" />
<glyph unicode="&#xe0;" d="M119.5 144.5q-13.5 60.5 1.5 144.5q32 153 137 240t254 108l266 39q105 13 119 86q7 20 4 36t-5 28.5t-12.5 22t-18.5 16t-23 11t-26 7.5t-27.5 4t-27.5 1.5t-26 0.5q-159 0 -207 -152h-276q25 81 61.5 144t82 103.5t94 68t107 41t109.5 19t113 5.5q53 0 103.5 -6.5 t108 -27.5t96 -54t57 -91.5t2.5 -135.5l-125 -590q-15 -62 -12 -98.5t11.5 -50.5t26.5 -21l-8 -43h-309q-7 59 0 129q-31 -27 -52.5 -43.5t-61 -41t-75.5 -38.5t-88 -24.5t-108 -10.5q-64 0 -117 18t-94 56.5t-54.5 99zM412 307q-11 -47 5 -78t42 -42t57 -11q101 0 191.5 60 t111.5 155l29 139q-52 -36 -207 -59q-38 -6 -64.5 -12.5t-56 -19t-49.5 -29t-36 -42.5t-23 -61zM508 1536h315l129 -299h-207z" />
<glyph unicode="&#xe1;" d="M119.5 144.5q-13.5 60.5 1.5 144.5q32 153 137 240t254 108l266 39q105 13 119 86q7 20 4 36t-5 28.5t-12.5 22t-18.5 16t-23 11t-26 7.5t-27.5 4t-27.5 1.5t-26 0.5q-159 0 -207 -152h-276q25 81 61.5 144t82 103.5t94 68t107 41t109.5 19t113 5.5q53 0 103.5 -6.5 t108 -27.5t96 -54t57 -91.5t2.5 -135.5l-125 -590q-15 -62 -12 -98.5t11.5 -50.5t26.5 -21l-8 -43h-309q-7 59 0 129q-31 -27 -52.5 -43.5t-61 -41t-75.5 -38.5t-88 -24.5t-108 -10.5q-64 0 -117 18t-94 56.5t-54.5 99zM412 307q-11 -47 5 -78t42 -42t57 -11q101 0 191.5 60 t111.5 155l29 139q-52 -36 -207 -59q-38 -6 -64.5 -12.5t-56 -19t-49.5 -29t-36 -42.5t-23 -61zM713 1237l256 299h315l-364 -299h-207z" />
<glyph unicode="&#xe2;" d="M119.5 144.5q-13.5 60.5 1.5 144.5q32 153 137 240t254 108l266 39q105 13 119 86q7 20 4 36t-5 28.5t-12.5 22t-18.5 16t-23 11t-26 7.5t-27.5 4t-27.5 1.5t-26 0.5q-159 0 -207 -152h-276q25 81 61.5 144t82 103.5t94 68t107 41t109.5 19t113 5.5q53 0 103.5 -6.5 t108 -27.5t96 -54t57 -91.5t2.5 -135.5l-125 -590q-15 -62 -12 -98.5t11.5 -50.5t26.5 -21l-8 -43h-309q-7 59 0 129q-31 -27 -52.5 -43.5t-61 -41t-75.5 -38.5t-88 -24.5t-108 -10.5q-64 0 -117 18t-94 56.5t-54.5 99zM412 307q-11 -47 5 -78t42 -42t57 -11q101 0 191.5 60 t111.5 155l29 139q-52 -36 -207 -59q-38 -6 -64.5 -12.5t-56 -19t-49.5 -29t-36 -42.5t-23 -61zM471 1237l297 299h256l170 -299h-231l-95 168l-166 -168h-231z" />
<glyph unicode="&#xe3;" d="M119.5 144.5q-13.5 60.5 1.5 144.5q32 153 137 240t254 108l266 39q105 13 119 86q7 20 4 36t-5 28.5t-12.5 22t-18.5 16t-23 11t-26 7.5t-27.5 4t-27.5 1.5t-26 0.5q-159 0 -207 -152h-276q25 81 61.5 144t82 103.5t94 68t107 41t109.5 19t113 5.5q53 0 103.5 -6.5 t108 -27.5t96 -54t57 -91.5t2.5 -135.5l-125 -590q-15 -62 -12 -98.5t11.5 -50.5t26.5 -21l-8 -43h-309q-7 59 0 129q-31 -27 -52.5 -43.5t-61 -41t-75.5 -38.5t-88 -24.5t-108 -10.5q-64 0 -117 18t-94 56.5t-54.5 99zM412 307q-11 -47 5 -78t42 -42t57 -11q101 0 191.5 60 t111.5 155l29 139q-52 -36 -207 -59q-38 -6 -64.5 -12.5t-56 -19t-49.5 -29t-36 -42.5t-23 -61zM461 1249q38 98 92 156q89 96 209 96q33 0 59 -8t80 -31q82 -35 119 -35q78 0 115 82h133q-11 -26 -22 -49.5t-37 -62t-54.5 -65.5t-72 -47.5t-91.5 -20.5q-59 0 -147 32 q-19 6 -51.5 18.5t-51 17.5t-34.5 5q-47 0 -76 -29.5t-39 -58.5h-131z" />
<glyph unicode="&#xe4;" d="M119.5 144.5q-13.5 60.5 1.5 144.5q32 153 137 240t254 108l266 39q105 13 119 86q7 20 4 36t-5 28.5t-12.5 22t-18.5 16t-23 11t-26 7.5t-27.5 4t-27.5 1.5t-26 0.5q-159 0 -207 -152h-276q25 81 61.5 144t82 103.5t94 68t107 41t109.5 19t113 5.5q53 0 103.5 -6.5 t108 -27.5t96 -54t57 -91.5t2.5 -135.5l-125 -590q-15 -62 -12 -98.5t11.5 -50.5t26.5 -21l-8 -43h-309q-7 59 0 129q-31 -27 -52.5 -43.5t-61 -41t-75.5 -38.5t-88 -24.5t-108 -10.5q-64 0 -117 18t-94 56.5t-54.5 99zM412 307q-11 -47 5 -78t42 -42t57 -11q101 0 191.5 60 t111.5 155l29 139q-52 -36 -207 -59q-38 -6 -64.5 -12.5t-56 -19t-49.5 -29t-36 -42.5t-23 -61zM510 1257l49 236h258l-49 -236h-258zM909 1257l49 236h259l-50 -236h-258z" />
<glyph unicode="&#xe5;" d="M119.5 144.5q-13.5 60.5 1.5 144.5q32 153 137 240t254 108l266 39q105 13 119 86q7 20 4 36t-5 28.5t-12.5 22t-18.5 16t-23 11t-26 7.5t-27.5 4t-27.5 1.5t-26 0.5q-159 0 -207 -152h-276q25 81 61.5 144t82 103.5t94 68t107 41t109.5 19t113 5.5q53 0 103.5 -6.5 t108 -27.5t96 -54t57 -91.5t2.5 -135.5l-125 -590q-15 -62 -12 -98.5t11.5 -50.5t26.5 -21l-8 -43h-309q-7 59 0 129q-31 -27 -52.5 -43.5t-61 -41t-75.5 -38.5t-88 -24.5t-108 -10.5q-64 0 -117 18t-94 56.5t-54.5 99zM412 307q-11 -47 5 -78t42 -42t57 -11q101 0 191.5 60 t111.5 155l29 139q-52 -36 -207 -59q-38 -6 -64.5 -12.5t-56 -19t-49.5 -29t-36 -42.5t-23 -61zM643 1376q19 92 101.5 152.5t164.5 60.5t138.5 -60.5t37.5 -152.5q-21 -92 -102.5 -152.5t-163.5 -60.5q-52 0 -97 25.5t-69 76t-10 111.5zM758 1376q-9 -44 15.5 -75t68.5 -31 t82 31t47 75t-15.5 75.5t-68.5 31.5t-82 -31.5t-47 -75.5z" />
<glyph unicode="&#xe6;" horiz-adv-x="1820" d="M114.5 208q1.5 43 10.5 97q23 112 106.5 198.5t235.5 112.5l278 46q102 17 130 35t40 71q3 15 3.5 23.5t-1 25.5t-12.5 27.5t-29.5 22t-53.5 17t-83 5.5q-55 0 -95.5 -16.5t-62 -43t-31.5 -48.5t-15 -46h-281q112 383 573 383q196 0 312 -121q54 36 87 55t106 41.5 t151 24.5q49 0 94.5 -7t93.5 -25t86.5 -47t70 -76t47.5 -108t15.5 -147.5t-22.5 -189.5l-13 -51h-747q-2 -22 -3 -31.5t-1.5 -35t1.5 -39.5t7.5 -38t15 -38.5t25 -32.5t37 -27.5t52 -16.5t67.5 -7q64 0 122.5 31t86.5 87h294q-47 -94 -114.5 -164t-142 -109t-148 -57 t-147.5 -18h-15q-73 0 -131 12t-92 27t-63 43t-40.5 45.5t-29.5 48.5q-68 -82 -189.5 -129t-259.5 -47q-32 0 -61.5 2.5t-63 9t-60.5 18.5t-54.5 29.5t-44.5 42.5t-30 58.5t-11.5 76.5zM410 303q-12 -62 24 -94.5t111 -32.5q87 0 175.5 62t106.5 147l29 137 q-26 -19 -69.5 -32t-155.5 -29q-50 -7 -81 -15t-62 -24.5t-49.5 -45.5t-28.5 -73zM1157 653h445q7 63 -5 109.5t-39 72t-59 37t-69 11.5q-99 0 -168 -60t-105 -170z" />
<glyph unicode="&#xe7;" d="M162.5 399q3.5 56 15.5 115q29 135 82.5 243.5t132.5 190t190 126t246 44.5q57 0 112 -10.5t113.5 -39.5t99.5 -73.5t61.5 -121t7.5 -173.5h-291q1 31 -4 58t-18.5 56t-43 46t-73.5 17h-15q-64 0 -117 -29.5t-87.5 -78.5t-56.5 -100.5t-34 -107.5q-7 -34 -11.5 -57.5 t-8.5 -64t-1.5 -68.5t11.5 -61.5t27.5 -54t51 -34.5t77.5 -14q51 0 96 22t73 54t45 62t21 52h291q-12 -39 -32.5 -82t-64 -102t-98 -106t-140.5 -85t-185 -47l-80 -88q41 9 63 9q25 0 51 -7.5t53 -24t39 -50t3 -78.5q-20 -90 -102.5 -146.5t-194.5 -56.5q-58 0 -102.5 10 t-122.5 41l65 99q101 -33 152 -33q36 0 70.5 22t41.5 58q7 34 -11.5 53.5t-51.5 19.5q-28 0 -86 -16l-35 41l127 145q-86 7 -152 34t-104.5 70t-62.5 94t-30 111.5t-2.5 116.5z" />
<glyph unicode="&#xe8;" d="M145 332.5q-8 100.5 23 234.5q7 34 18.5 72t36.5 94t57.5 106.5t83.5 102.5t112 90t147 62t184 24q49 0 94.5 -7t93.5 -25t86.5 -47t70 -76t47.5 -108t15.5 -147.5t-22.5 -189.5l-12 -51h-748q-2 -22 -3 -31.5t-1.5 -35t1.5 -39.5t7.5 -38t15 -38.5t25 -32.5t37 -27.5 t52 -16.5t67.5 -7q64 0 122.5 31t86.5 87h295q-47 -94 -114.5 -164t-142.5 -109t-148.5 -57t-147.5 -18q-95 0 -170 19t-136.5 61.5t-93 111.5t-39.5 169.5zM481 653h445q7 63 -5 109.5t-39 72t-59 37t-69 11.5q-99 0 -168 -60t-105 -170zM508 1536h315l129 -299h-207z" />
<glyph unicode="&#xe9;" d="M145 332.5q-8 100.5 23 234.5q7 34 18.5 72t36.5 94t57.5 106.5t83.5 102.5t112 90t147 62t184 24q49 0 94.5 -7t93.5 -25t86.5 -47t70 -76t47.5 -108t15.5 -147.5t-22.5 -189.5l-12 -51h-748q-2 -22 -3 -31.5t-1.5 -35t1.5 -39.5t7.5 -38t15 -38.5t25 -32.5t37 -27.5 t52 -16.5t67.5 -7q64 0 122.5 31t86.5 87h295q-47 -94 -114.5 -164t-142.5 -109t-148.5 -57t-147.5 -18q-95 0 -170 19t-136.5 61.5t-93 111.5t-39.5 169.5zM481 653h445q7 63 -5 109.5t-39 72t-59 37t-69 11.5q-99 0 -168 -60t-105 -170zM713 1237l256 299h315l-364 -299 h-207z" />
<glyph unicode="&#xea;" d="M145 332.5q-8 100.5 23 234.5q7 34 18.5 72t36.5 94t57.5 106.5t83.5 102.5t112 90t147 62t184 24q49 0 94.5 -7t93.5 -25t86.5 -47t70 -76t47.5 -108t15.5 -147.5t-22.5 -189.5l-12 -51h-748q-2 -22 -3 -31.5t-1.5 -35t1.5 -39.5t7.5 -38t15 -38.5t25 -32.5t37 -27.5 t52 -16.5t67.5 -7q64 0 122.5 31t86.5 87h295q-47 -94 -114.5 -164t-142.5 -109t-148.5 -57t-147.5 -18q-95 0 -170 19t-136.5 61.5t-93 111.5t-39.5 169.5zM471 1237l297 299h256l170 -299h-231l-95 168l-166 -168h-231zM481 653h445q7 63 -5 109.5t-39 72t-59 37t-69 11.5 q-99 0 -168 -60t-105 -170z" />
<glyph unicode="&#xeb;" d="M145 332.5q-8 100.5 23 234.5q7 34 18.5 72t36.5 94t57.5 106.5t83.5 102.5t112 90t147 62t184 24q49 0 94.5 -7t93.5 -25t86.5 -47t70 -76t47.5 -108t15.5 -147.5t-22.5 -189.5l-12 -51h-748q-2 -22 -3 -31.5t-1.5 -35t1.5 -39.5t7.5 -38t15 -38.5t25 -32.5t37 -27.5 t52 -16.5t67.5 -7q64 0 122.5 31t86.5 87h295q-47 -94 -114.5 -164t-142.5 -109t-148.5 -57t-147.5 -18q-95 0 -170 19t-136.5 61.5t-93 111.5t-39.5 169.5zM481 653h445q7 63 -5 109.5t-39 72t-59 37t-69 11.5q-99 0 -168 -60t-105 -170zM510 1257l49 236h258l-49 -236 h-258zM909 1257l49 236h259l-50 -236h-258z" />
<glyph unicode="&#xec;" horiz-adv-x="569" d="M141 0l232 1090h286l-231 -1090h-287zM223 1536h316l129 -299h-207z" />
<glyph unicode="&#xed;" horiz-adv-x="569" d="M141 0l232 1090h286l-231 -1090h-287zM428 1237l256 299h315l-364 -299h-207z" />
<glyph unicode="&#xee;" horiz-adv-x="569" d="M141 0l232 1090h286l-231 -1090h-287zM186 1237l297 299h256l170 -299h-231l-94 168l-166 -168h-232z" />
<glyph unicode="&#xef;" horiz-adv-x="569" d="M141 0l232 1090h286l-231 -1090h-287zM225 1257l49 236h258l-49 -236h-258zM625 1257l49 236h258l-49 -236h-258z" />
<glyph unicode="&#xf0;" horiz-adv-x="1251" d="M170.5 321.5q-14.5 95.5 13.5 221.5q50 229 222.5 378.5t396.5 149.5q23 0 48.5 -4t60 -14.5t66.5 -35t52 -59.5l6 5q-32 124 -145 247l-242 -96l-106 107l241 96q-79 67 -131 92l244 100q77 -34 141 -90l230 90l104 -106l-227 -90q111 -130 161.5 -313t6.5 -396 q-29 -135 -85 -244t-125 -180t-152 -119.5t-163 -69t-161 -20.5q-84 0 -158 19t-140 61t-105 108.5t-53.5 162zM477 535q-33 -156 20.5 -239t176.5 -83q69 0 126 28t91 65.5t60 88.5t36 83.5t17 64.5q6 28 7 60t-7.5 74t-28.5 74.5t-64.5 55t-107.5 22.5q-62 0 -116 -23.5 t-88.5 -57t-61.5 -76.5t-40.5 -76t-19.5 -61z" />
<glyph unicode="&#xf1;" horiz-adv-x="1251" d="M133 0l232 1090h274l-35 -160h4q27 33 53 58.5t72 59t108.5 52t135.5 18.5q167 0 252.5 -95t48.5 -269l-160 -754h-287l142 662q5 27 7.5 44.5t3.5 46t-7.5 47.5t-24 38.5t-46.5 29t-75 9.5q-99 0 -176 -66t-102 -186l-133 -625h-287zM516 1249q38 98 92 156 q89 96 209 96q33 0 59 -8t80 -31q82 -35 119 -35q78 0 115 82h133q-11 -27 -22 -50t-37 -62t-54 -65.5t-71.5 -47t-91.5 -20.5q-60 0 -148 32q-19 6 -51.5 18.5t-51 17.5t-34.5 5q-47 0 -76 -29.5t-39 -58.5h-131z" />
<glyph unicode="&#xf2;" horiz-adv-x="1251" d="M177.5 289.5q-20.5 108.5 8.5 255.5q30 143 99 254.5t161.5 180t199 103.5t218.5 35t203 -34.5t155.5 -105t85 -178.5t-7.5 -255q-25 -115 -75 -210.5t-116 -162t-146.5 -112.5t-166.5 -67.5t-175 -21.5q-112 0 -203 34.5t-155.5 105t-85 179zM467.5 457q-3.5 -42 4 -88 t28.5 -79.5t65 -55t107 -21.5t116 21.5t88 54.5t62.5 79.5t42.5 88t25 88.5q10 46 13 88t-5 88.5t-29 79.5t-65 54.5t-107 21.5t-116 -21.5t-88 -54.5t-62 -79.5t-41.5 -88.5t-24.5 -88t-13.5 -88zM563 1536h316l129 -299h-207z" />
<glyph unicode="&#xf3;" horiz-adv-x="1251" d="M177.5 289.5q-20.5 108.5 8.5 255.5q30 143 99 254.5t161.5 180t199 103.5t218.5 35t203 -34.5t155.5 -105t85 -178.5t-7.5 -255q-25 -115 -75 -210.5t-116 -162t-146.5 -112.5t-166.5 -67.5t-175 -21.5q-112 0 -203 34.5t-155.5 105t-85 179zM467.5 457q-3.5 -42 4 -88 t28.5 -79.5t65 -55t107 -21.5t116 21.5t88 54.5t62.5 79.5t42.5 88t25 88.5q10 46 13 88t-5 88.5t-29 79.5t-65 54.5t-107 21.5t-116 -21.5t-88 -54.5t-62 -79.5t-41.5 -88.5t-24.5 -88t-13.5 -88zM768 1237l256 299h315l-364 -299h-207z" />
<glyph unicode="&#xf4;" horiz-adv-x="1251" d="M177.5 289.5q-20.5 108.5 8.5 255.5q30 143 99 254.5t161.5 180t199 103.5t218.5 35t203 -34.5t155.5 -105t85 -178.5t-7.5 -255q-25 -115 -75 -210.5t-116 -162t-146.5 -112.5t-166.5 -67.5t-175 -21.5q-112 0 -203 34.5t-155.5 105t-85 179zM467.5 457q-3.5 -42 4 -88 t28.5 -79.5t65 -55t107 -21.5t116 21.5t88 54.5t62.5 79.5t42.5 88t25 88.5q10 46 13 88t-5 88.5t-29 79.5t-65 54.5t-107 21.5t-116 -21.5t-88 -54.5t-62 -79.5t-41.5 -88.5t-24.5 -88t-13.5 -88zM526 1237l297 299h256l170 -299h-231l-94 168l-166 -168h-232z" />
<glyph unicode="&#xf5;" horiz-adv-x="1251" d="M177.5 289.5q-20.5 108.5 8.5 255.5q30 143 99 254.5t161.5 180t199 103.5t218.5 35t203 -34.5t155.5 -105t85 -178.5t-7.5 -255q-25 -115 -75 -210.5t-116 -162t-146.5 -112.5t-166.5 -67.5t-175 -21.5q-112 0 -203 34.5t-155.5 105t-85 179zM467.5 457q-3.5 -42 4 -88 t28.5 -79.5t65 -55t107 -21.5t116 21.5t88 54.5t62.5 79.5t42.5 88t25 88.5q10 46 13 88t-5 88.5t-29 79.5t-65 54.5t-107 21.5t-116 -21.5t-88 -54.5t-62 -79.5t-41.5 -88.5t-24.5 -88t-13.5 -88zM516 1249q38 98 92 156q89 96 209 96q33 0 59 -8t80 -31q82 -35 119 -35 q78 0 115 82h133q-11 -27 -22 -50t-37 -62t-54 -65.5t-71.5 -47t-91.5 -20.5q-60 0 -148 32q-19 6 -51.5 18.5t-51 17.5t-34.5 5q-47 0 -76 -29.5t-39 -58.5h-131z" />
<glyph unicode="&#xf6;" horiz-adv-x="1251" d="M177.5 289.5q-20.5 108.5 8.5 255.5q30 143 99 254.5t161.5 180t199 103.5t218.5 35t203 -34.5t155.5 -105t85 -178.5t-7.5 -255q-25 -115 -75 -210.5t-116 -162t-146.5 -112.5t-166.5 -67.5t-175 -21.5q-112 0 -203 34.5t-155.5 105t-85 179zM467.5 457q-3.5 -42 4 -88 t28.5 -79.5t65 -55t107 -21.5t116 21.5t88 54.5t62.5 79.5t42.5 88t25 88.5q10 46 13 88t-5 88.5t-29 79.5t-65 54.5t-107 21.5t-116 -21.5t-88 -54.5t-62 -79.5t-41.5 -88.5t-24.5 -88t-13.5 -88zM565 1257l49 236h258l-49 -236h-258zM965 1257l49 236h258l-49 -236h-258z " />
<glyph unicode="&#xf7;" horiz-adv-x="1228" d="M96 403v230h1037v-230h-1037zM461 0v307h307v-307h-307zM461 729v307h307v-307h-307z" />
<glyph unicode="&#xf8;" horiz-adv-x="1251" d="M45 0l182 158q-93 153 -41 387q30 143 99 254.5t161.5 180t199 103.5t218.5 35q215 0 342 -121l172 150l58 -66l-179 -151q93 -150 43 -385q-25 -115 -75 -210.5t-116 -162t-146.5 -112.5t-166.5 -67.5t-175 -21.5q-216 0 -338 119l-172 -149zM473 367l510 438 q-56 72 -170 72q-63 0 -116 -21.5t-88 -54.5t-62 -79.5t-41.5 -88.5t-24.5 -88q-23 -105 -8 -178zM506 283q50 -70 166 -70q63 0 116 21.5t88 54.5t62.5 79.5t42.5 88t25 88.5q20 112 8 174z" />
<glyph unicode="&#xf9;" horiz-adv-x="1251" d="M215 373l152 717h286l-143 -676q-42 -201 143 -201q39 0 77.5 12t79 38.5t72 77.5t46.5 120l133 629h287l-232 -1090h-274l32 154h-4q-141 -183 -370 -183q-169 0 -248.5 100.5t-36.5 301.5zM563 1536h316l129 -299h-207z" />
<glyph unicode="&#xfa;" horiz-adv-x="1251" d="M215 373l152 717h286l-143 -676q-42 -201 143 -201q39 0 77.5 12t79 38.5t72 77.5t46.5 120l133 629h287l-232 -1090h-274l32 154h-4q-141 -183 -370 -183q-169 0 -248.5 100.5t-36.5 301.5zM768 1237l256 299h315l-364 -299h-207z" />
<glyph unicode="&#xfb;" horiz-adv-x="1251" d="M215 373l152 717h286l-143 -676q-42 -201 143 -201q39 0 77.5 12t79 38.5t72 77.5t46.5 120l133 629h287l-232 -1090h-274l32 154h-4q-141 -183 -370 -183q-169 0 -248.5 100.5t-36.5 301.5zM526 1237l297 299h256l170 -299h-231l-94 168l-166 -168h-232z" />
<glyph unicode="&#xfc;" horiz-adv-x="1251" d="M215 373l152 717h286l-143 -676q-42 -201 143 -201q39 0 77.5 12t79 38.5t72 77.5t46.5 120l133 629h287l-232 -1090h-274l32 154h-4q-141 -183 -370 -183q-169 0 -248.5 100.5t-36.5 301.5zM565 1257l49 236h258l-49 -236h-258zM965 1257l49 236h258l-49 -236h-258z" />
<glyph unicode="&#xfd;" d="M86 -434l49 229q24 -4 53 -4q44 0 71.5 4.5t57 21t52 50t43.5 88.5l-160 1135h319l64 -803h4l393 803h303l-602 -1072q-46 -84 -75.5 -136t-63.5 -104.5t-56.5 -81.5t-52.5 -57t-54.5 -40t-60 -22t-70.5 -12.5t-85 -2.5q-47 0 -129 4zM713 1237l256 299h315l-364 -299 h-207z" />
<glyph unicode="&#xfe;" horiz-adv-x="1251" d="M37 -426l403 1896h287l-111 -520h5q141 168 348 168q124 0 211 -61.5t125 -186.5t-2 -313q-24 -116 -73 -218.5t-120.5 -186t-172.5 -132.5t-218 -49q-57 0 -103 12.5t-73 29t-48.5 42.5t-30.5 43t-18 41h-4l-118 -565h-287zM500 402.5q4 -56.5 22.5 -100t63 -69.5 t110.5 -26q65 0 120.5 32.5t92 85t60 105.5t35.5 107q16 65 13.5 125t-19 106t-60 74t-109.5 28q-243 0 -317 -350q-16 -61 -12 -117.5z" />
<glyph unicode="&#xff;" d="M86 -434l49 229q24 -4 53 -4q44 0 71.5 4.5t57 21t52 50t43.5 88.5l-160 1135h319l64 -803h4l393 803h303l-602 -1072q-46 -84 -75.5 -136t-63.5 -104.5t-56.5 -81.5t-52.5 -57t-54.5 -40t-60 -22t-70.5 -12.5t-85 -2.5q-47 0 -129 4zM510 1257l49 236h258l-49 -236h-258 zM909 1257l49 236h259l-50 -236h-258z" />
<glyph unicode="&#x152;" horiz-adv-x="2048" d="M202 499.5q2 108.5 29 235.5q25 114 66.5 220t109.5 208.5t152.5 178t201 121.5t249.5 46q54 0 99 -9t73 -20.5t53.5 -31t37 -32t27.5 -32.5l19 86h962l-55 -260h-682l-65 -309h635l-56 -260h-635l-82 -381h682l-55 -260h-962l22 102q-57 -51 -101.5 -79.5t-107.5 -45 t-147 -16.5q-55 0 -108 10.5t-108.5 36t-100.5 64.5t-81 101t-55 140t-17 186.5zM512 582q-3 -68 8.5 -135t39 -118t80 -82.5t124.5 -31.5q121 0 206.5 58t100.5 128l141 666q9 42 -1.5 75.5t-33.5 54t-55 34.5t-63 19t-62 5q-93 0 -171 -41.5t-135 -115.5t-97 -169 t-64 -210q-15 -69 -18 -137z" />
<glyph unicode="&#x153;" horiz-adv-x="1933" d="M177.5 289.5q-20.5 108.5 8.5 255.5q30 143 99 254.5t161.5 180t199 103.5t218.5 35q110 0 203 -46t137 -118q44 37 75.5 60t81 50t107.5 40.5t125 13.5q49 0 94.5 -7t93.5 -25t86.5 -47t70 -76t47.5 -108t15.5 -147.5t-22.5 -189.5l-12 -51h-747q-2 -23 -3 -31.5 t-1.5 -34.5t1.5 -39.5t7 -38.5t14.5 -39t25 -32t37 -27.5t52 -16.5t67.5 -7q64 0 122.5 31t86.5 87h295q-47 -94 -114.5 -164t-142.5 -109t-148.5 -57t-147.5 -18q-70 0 -127 10.5t-91.5 24t-65 37.5t-44 39t-32.5 41q-159 -152 -389 -152q-112 0 -203 34.5t-155.5 105 t-85 179zM467.5 457q-3.5 -42 4 -88t28.5 -79.5t65 -55t107 -21.5t116 21.5t88 54.5t62.5 79.5t42.5 88t25 88.5q10 46 13 88t-5 88.5t-29 79.5t-65 54.5t-107 21.5t-116 -21.5t-88 -54.5t-62 -79.5t-41.5 -88.5t-24.5 -88t-13.5 -88zM1268 653h444q7 63 -5 109.5t-39 72 t-59 37t-69 11.5q-196 0 -272 -230z" />
<glyph unicode="&#x178;" horiz-adv-x="1366" d="M344 1470h363l167 -639l429 639h348l-688 -919l-117 -551h-307l118 555zM702 1638l50 236h258l-49 -236h-259zM1102 1638l49 236h258l-49 -236h-258z" />
<glyph unicode="&#x2c6;" horiz-adv-x="681" d="M242 1237l297 299h256l170 -299h-232l-94 168l-166 -168h-231z" />
<glyph unicode="&#x2dc;" horiz-adv-x="681" d="M231 1249q18 45 43 86t61.5 80t87.5 62.5t109 23.5q33 0 60 -8t80 -31q82 -35 119 -35q77 0 114 82h133q-11 -27 -22 -50t-37 -62t-54 -65.5t-71.5 -47t-91.5 -20.5q-60 0 -148 32q-19 6 -51.5 18.5t-51 17.5t-34.5 5q-47 0 -76 -29.5t-39 -58.5h-131z" />
<glyph unicode="&#x2000;" horiz-adv-x="985" />
<glyph unicode="&#x2001;" horiz-adv-x="1970" />
<glyph unicode="&#x2002;" horiz-adv-x="985" />
<glyph unicode="&#x2003;" horiz-adv-x="1970" />
<glyph unicode="&#x2004;" horiz-adv-x="656" />
<glyph unicode="&#x2005;" horiz-adv-x="492" />
<glyph unicode="&#x2006;" horiz-adv-x="328" />
<glyph unicode="&#x2007;" horiz-adv-x="328" />
<glyph unicode="&#x2008;" horiz-adv-x="246" />
<glyph unicode="&#x2009;" horiz-adv-x="394" />
<glyph unicode="&#x200a;" horiz-adv-x="109" />
<glyph unicode="&#x2010;" horiz-adv-x="681" d="M47 440l39 267h502l-37 -267h-504z" />
<glyph unicode="&#x2011;" horiz-adv-x="681" d="M47 440l39 267h502l-37 -267h-504z" />
<glyph unicode="&#x2012;" horiz-adv-x="681" d="M47 440l39 267h502l-37 -267h-504z" />
<glyph unicode="&#x2013;" d="M-23 451l37 217h1147l-37 -217h-1147z" />
<glyph unicode="&#x2014;" horiz-adv-x="2048" d="M231 451l45 217h1518l-45 -217h-1518z" />
<glyph unicode="&#x2018;" horiz-adv-x="454" d="M113 907l49 242q17 84 51 145.5t81.5 97t98 54t111.5 24.5l-21 -98q-95 -21 -140 -69.5t-56 -128.5h157l-53 -267h-278z" />
<glyph unicode="&#x2019;" horiz-adv-x="454" d="M131 907l21 99q95 21 140 69.5t56 128.5h-158l54 266h278l-49 -241q-59 -292 -342 -322z" />
<glyph unicode="&#x201a;" horiz-adv-x="454" d="M-49 -297l20 98q95 21 140.5 70t56.5 129h-158l53 266h279l-49 -241q-59 -292 -342 -322z" />
<glyph unicode="&#x201c;" horiz-adv-x="909" d="M131 907l49 242q17 84 51 145.5t81.5 97t98 54t111.5 24.5l-20 -98q-95 -21 -140.5 -70t-56.5 -128h158l-53 -267h-279zM555 907l49 242q17 84 51 145.5t81.5 97t98 54t111.5 24.5l-20 -98q-95 -21 -140.5 -70t-56.5 -128h158l-53 -267h-279z" />
<glyph unicode="&#x201d;" horiz-adv-x="909" d="M143 907l21 99q95 21 140 69.5t56 128.5h-157l53 266h279l-50 -241q-59 -292 -342 -322zM567 907l21 99q95 21 140 69.5t56 128.5h-157l53 266h278l-49 -241q-59 -292 -342 -322z" />
<glyph unicode="&#x201e;" horiz-adv-x="909" d="M12 -297l21 98q95 21 140 70t56 129h-157l53 266h278l-49 -241q-59 -292 -342 -322zM436 -297l21 98q95 21 140 70t56 129h-157l53 266h278l-49 -241q-59 -292 -342 -322z" />
<glyph unicode="&#x2022;" horiz-adv-x="1024" d="M145 735q0 152 107.5 260.5t259.5 108.5t260.5 -108.5t108.5 -260.5t-108 -259t-261 -107q-152 0 -259.5 107t-107.5 259z" />
<glyph unicode="&#x2026;" horiz-adv-x="2048" d="M76 0l59 307h309l-59 -307h-309zM758 0l59 307h309l-59 -307h-309zM1440 0l59 307h309l-59 -307h-309z" />
<glyph unicode="&#x202f;" horiz-adv-x="394" />
<glyph unicode="&#x2039;" horiz-adv-x="681" d="M100 473l41 203l410 289l-49 -242l-246 -172l178 -180l-45 -217z" />
<glyph unicode="&#x203a;" horiz-adv-x="681" d="M100 154l47 241l246 172l-178 181l45 217l291 -318l-43 -205z" />
<glyph unicode="&#x205f;" horiz-adv-x="492" />
<glyph unicode="&#x20ac;" d="M123 459l123 194h84q2 9 5 28t5 28l8 43h-164l121 194h103q90 245 255.5 376.5t389.5 131.5q140 0 238.5 -56.5t131.5 -125.5l-143 -230q-7 29 -47 78q-78 105 -229 105q-198 0 -304 -279h519l-123 -194h-453l-20 -99h413l-123 -194h-311q-1 -36 -0.5 -73.5t13 -72.5 t32 -62.5t55 -44t82.5 -16.5q186 0 338 109l-55 -262q-136 -76 -332 -76q-213 0 -325.5 124.5t-102.5 373.5h-184z" />
<glyph unicode="&#x2122;" horiz-adv-x="2048" d="M197 1343v127h602v-127h-224v-608h-153v608h-225zM946 735v735h221l133 -575h3l131 575h223v-735h-141v615h-3l-139 -615h-149l-135 615h-3v-615h-141z" />
<glyph unicode="&#xe000;" horiz-adv-x="1085" d="M0 0v1085h1085v-1085h-1085z" />
<glyph unicode="&#xfb01;" horiz-adv-x="1251" d="M178 0l189 885h-158l43 205h158l18 88q68 311 387 311q96 0 146 -4l-50 -232h-80q-37 0 -58 -5t-34 -22.5t-18.5 -35t-13.5 -57.5l-11 -43h187l-43 -205h-187l-188 -885h-287zM823 0l232 1090h286l-231 -1090h-287zM1081 1219l58 266h286l-57 -266h-287z" />
<glyph unicode="&#xfb02;" horiz-adv-x="1251" d="M178 0l189 885h-158l43 205h158l18 88q68 311 387 311q96 0 146 -4l-50 -232h-80q-37 0 -58 -5t-34 -22.5t-18.5 -35t-13.5 -57.5l-11 -43h187l-43 -205h-187l-188 -885h-287zM823 0l314 1470h286l-313 -1470h-287z" />
</font>
</defs>
</svg>
